<svg xmlns="http://www.w3.org/2000/svg" width="36" height="36" viewBox="0 0 36 36"><defs><style>.a{fill:none;}.b{fill:#212353;}</style></defs><g transform="translate(-63 -576)"><rect class="a" width="36" height="36" transform="translate(63 576)"/><g transform="translate(-253.799 360.551)"><path class="b" d="M343.913,218.449h-20.5a6.614,6.614,0,0,0-6.614,6.614V239.23a6.614,6.614,0,0,0,6.614,6.614h10.139A11.495,11.495,0,0,1,350.526,230.8v-5.735A6.614,6.614,0,0,0,343.913,218.449Zm-17.991,19.042a1.364,1.364,0,0,1-2.728,0V226.8a1.364,1.364,0,0,1,2.728,0Z"/><path class="b" d="M345.553,231.962a8.934,8.934,0,0,0-2.653.4h5.305A8.929,8.929,0,0,0,345.553,231.962Z" transform="translate(-2.267 -1.174)"/><path class="b" d="M336.011,241.162a8.911,8.911,0,0,0,2.547,6.245V234.918A8.907,8.907,0,0,0,336.011,241.162Z" transform="translate(-1.669 -1.431)"/><path class="b" d="M344.954,231.962a8.944,8.944,0,1,0,8.944,8.943A8.943,8.943,0,0,0,344.954,231.962Zm2.809,13.054a3.42,3.42,0,0,1-1.834,1.13l-.036.009v1.15a.938.938,0,0,1-.937.938h0a.939.939,0,0,1-.938-.938v-1.142l-.038-.01a4.338,4.338,0,0,1-1.335-.561,3.843,3.843,0,0,1-.863-.707.938.938,0,1,1,1.413-1.235,2.24,2.24,0,0,0,.447.352,2.449,2.449,0,0,0,1.312.387,1.778,1.778,0,0,0,1.316-.5.752.752,0,0,0,.216-.58c-.051-.465-.472-.818-1.8-1.509l-.316-.162a8.158,8.158,0,0,1-2.066-1.352,2.672,2.672,0,0,1-.155-3.534,3.437,3.437,0,0,1,1.834-1.131l.036-.009v-1.149a.951.951,0,0,1,1-.889.941.941,0,0,1,.883.882V235.6l.037.009a4.421,4.421,0,0,1,1.335.561,3.944,3.944,0,0,1,.866.709.938.938,0,0,1-1.413,1.235,2.2,2.2,0,0,0-.447-.352,2.434,2.434,0,0,0-1.314-.389,1.77,1.77,0,0,0-1.315.506.758.758,0,0,0-.219.581c.052.464.473.817,1.8,1.508l.315.162a8.141,8.141,0,0,1,2.066,1.353h0a2.666,2.666,0,0,1,.154,3.533Z" transform="translate(-1.669 -1.174)"/></g></g></svg>