<svg xmlns="http://www.w3.org/2000/svg" width="32" height="32" viewBox="0 0 32 32"><defs><style>.a{fill:#15d3a4;}.b{fill:#fff;}</style></defs><g transform="translate(-432 -7857)"><path class="a" d="M16,0A16,16,0,1,1,0,16,16,16,0,0,1,16,0Z" transform="translate(432 7857)"/><path class="b" d="M78.762,129.885l-2.229,10.124c-.168.714-.607.892-1.23.556l-3.4-2.41-1.639,1.518a.864.864,0,0,1-.683.321l.244-3.331,6.295-5.478c.274-.235-.059-.365-.425-.13l-7.782,4.719-3.35-1.01c-.729-.219-.742-.7.152-1.038l13.1-4.862C78.429,128.643,78.96,128.993,78.762,129.885Z" transform="translate(376.968 7738.201)"/></g></svg>