<svg xmlns="http://www.w3.org/2000/svg" width="32" height="32" viewBox="0 0 32 32"><defs><style>.a{fill:#15d3a4;}.b{fill:#fff;}</style></defs><g transform="translate(-384 -7857)"><path class="a" d="M16,0A16,16,0,1,1,0,16,16,16,0,0,1,16,0Z" transform="translate(384 7857)"/><path class="b" d="M98.318,56.492l-3.408-3.006.409,1.2H86.956a1.566,1.566,0,0,1-1.623-1.5V44.169a1.566,1.566,0,0,1,1.623-1.5h9.738a1.566,1.566,0,0,1,1.623,1.5V56.492M91.825,46.153a6.531,6.531,0,0,0-2.96.691,5.9,5.9,0,0,1,1.837-.872l-.11-.1a4.266,4.266,0,0,0-2.09.721,8.887,8.887,0,0,0-1.045,4.021,2.947,2.947,0,0,0,2.259,1.01l.461-.541a2.465,2.465,0,0,1-1.324-.83,6.13,6.13,0,0,0,5.947,0,2.465,2.465,0,0,1-1.324.83l.461.541a2.947,2.947,0,0,0,2.259-1.01,8.887,8.887,0,0,0-1.045-4.021,4.266,4.266,0,0,0-2.09-.721l-.11.1a5.9,5.9,0,0,1,1.837.872,6.531,6.531,0,0,0-2.96-.691m-1.344,2.278a.756.756,0,0,1,.76.763.756.756,0,1,1-1.513,0,.755.755,0,0,1,.753-.763m2.707,0a.763.763,0,1,1-.753.763A.76.76,0,0,1,93.189,48.431Z" transform="translate(308.667 7823.333)"/></g></svg>