<svg xmlns="http://www.w3.org/2000/svg" width="32" height="32" viewBox="0 0 32 32"><defs><style>.a{fill:#15d3a4;}.b{fill:#fff;}</style></defs><g transform="translate(-336 -7857)"><path class="a" d="M16,0A16,16,0,1,1,0,16,16,16,0,0,1,16,0Z" transform="translate(336 7857)"/><path class="b" d="M13.193,72.608c0-.134,0-.266-.009-.4a6.081,6.081,0,0,0,1.5-1.568,5.91,5.91,0,0,1-1.729.459,3.013,3.013,0,0,0,1.324-1.679,5.889,5.889,0,0,1-1.911.716,3.03,3.03,0,0,0-2.2-1.007,3,3,0,0,0-3.009,3.047,3.165,3.165,0,0,0,.078.706,8.541,8.541,0,0,1-6.2-3.329,3.214,3.214,0,0,0,.931,4.176,2.94,2.94,0,0,1-1.363-.405v.04a3.122,3.122,0,0,0,2.415,3.077,2.923,2.923,0,0,1-.793.1,2.823,2.823,0,0,1-.566-.06,3.043,3.043,0,0,0,2.811,2.176A5.925,5.925,0,0,1,.018,79.94a8.286,8.286,0,0,0,4.614,1.4,8.6,8.6,0,0,0,8.561-8.737Z" transform="translate(344.982 7797.869)"/></g></svg>