<svg xmlns="http://www.w3.org/2000/svg" width="137.817" height="22.553" viewBox="0 0 137.817 22.553"><defs><style>.a{fill:#fce937;}.b{fill:#fff;}</style></defs><g transform="translate(-335.166 -840.502)"><ellipse class="a" cx="3.774" cy="3.458" rx="3.774" ry="3.458" transform="matrix(0.722, -0.691, 0.691, 0.722, 426.709, 852.037)"/><path class="b" d="M353.684,854.383a6.261,6.261,0,0,1-2.814.452,49.8,49.8,0,0,1-5.087-.113,8.016,8.016,0,0,0-.926-.1c-1.917.124-2.258,1.32-2.272,2.178-.05.571.251.774.523.774a5.047,5.047,0,0,0,2.178-.489c2.18-.612,2.874-.3,3.09,0a3.043,3.043,0,0,1-.678,2.023c-.841,1.012-2.481,1.676-4.832,1.669-3.481-.01-5.02-2.141-4.622-5.762.525-4.78,2.718-7.373,6.278-7.6,2.108-.134,3.733,1.174,4.951,3.768l.047.075a1.074,1.074,0,0,0,.942.453,2.162,2.162,0,0,0,1.909-1.281,1.375,1.375,0,0,0,.038-.3c.031-.352-.664-1.359-.7-1.438-1.236-2.162-3.579-3.342-7-3.508-5.309.331-8.5,3.628-9.489,9.833-.46,5.255,2.031,7.962,7.419,8.045a8.959,8.959,0,0,0,5.822-2.173l-.019.28c.1,1.34.792,1.928,1.356,1.771a1.6,1.6,0,0,0,1.3-1.486l0-.11a6.582,6.582,0,0,1-.065-3.1c.024-.108.134-.624.159-.713,1.815-.305,2.815-1.12,3.151-2.459,0,0,.176-.743.074-.846s-.5.07-.5.07Z" transform="translate(0 -3.722)"/><path class="b" d="M441.651,861.413a6.436,6.436,0,0,0-1.376-.057,11.523,11.523,0,0,0-1.256.145c-3.435.671-5.555,3.081-6.307,7.235-.069,4.354,2.066,6.689,6.38,6.94,4.467-.167,7.089-2.5,7.8-6.991C447.059,864.925,445.409,862.1,441.651,861.413Zm2.892,7.281c-.55,3.023-2.273,4.527-5.229,4.6-2.978-.223-4.371-1.731-4.259-4.59.271-3.1,2-4.679,5.26-4.829C443.282,864.024,444.666,865.6,444.543,868.694Z" transform="translate(-77.588 -16.578)"/><path class="b" d="M515.159,840.512l-.054-.01-.056,0a2.064,2.064,0,0,0-1.994,2.083c-.111,1.268.484,1.967,1.675,1.967a2.052,2.052,0,0,0,2.134-1.935l.008-.051,0-.05A2,2,0,0,0,515.159,840.512Z" transform="translate(-141.485)"/><path class="b" d="M513.507,866.193a3.937,3.937,0,0,0,.013-.858c-.241-.84-1.644-1.323-2.343-1.347a1.022,1.022,0,0,0-.978.9c-.173,1.69.525,3.633.141,6.463-.089.653-.292,1.825-.544,3.474-.221,1.449-.26,1.54-.261,1.636-.008.829.479,1.557,1.311,1.434a2.289,2.289,0,0,0,1.863-2.375,34.44,34.44,0,0,1,.006-4.117c.089-1.019.207-1.913.4-3.169A12.3,12.3,0,0,1,513.507,866.193Z" transform="translate(-138.695 -18.681)"/><path class="b" d="M546.42,862.08a9.792,9.792,0,0,0-5.4,2.142c.027-.117.056-.235.083-.356l.013-.055,0-.056c-.022-.587-.332-1.313-1.68-1.437l-.07-.007-.071.017a1.515,1.515,0,0,0-1.289,1.6s.2,3.172.132,3.933c-.186,2.122-.365,3.715-.536,4.767a26.387,26.387,0,0,1-.369,2.861.729.729,0,0,0,.226.686,1.39,1.39,0,0,0,.557.084c1.861-.139,2.332-1.217,2.29-1.84a3.05,3.05,0,0,1-.045-.861c.081-2.684.224-4.8.426-6.287a7.229,7.229,0,0,1,5.57-3.044c2.352.3,3.429,1.612,3.294,3.974-.253,1.984-.478,3.651-.678,5.023l-.188,2.146a.757.757,0,0,0,.973.891,1.872,1.872,0,0,0,1.94-1.5c.108-2.139.261-4.34.455-6.559C552.223,864.309,550.345,862.25,546.42,862.08Z" transform="translate(-160.721 -17.163)"/><path class="b" d="M853.069,857.419c.066-1.644.151-3.08.253-4.245a25.969,25.969,0,0,1,.621-3.007l.016-.181a5.879,5.879,0,0,0,.369-1.488l-.014-.146c-.225-.782-.934-1.273-2.105-1.458l-.09-.014-.091.025c-1.113.313-1.156,1.026-1.123,1.318l.006.037a13.049,13.049,0,0,1,.207,2.886c-.032,1.27-.142,2.986-.327,5.1-.075.856-.287,2.37-.635,4.53l-.135,1.623c.122,1.3.8,1.742,1.338,1.88l.092.024.1-.021c.639-.139,1.453-.626,1.706-2.163l.012-.072-.013-.071A16.661,16.661,0,0,1,853.069,857.419Z" transform="translate(-409.52 -5.073)"/><path class="b" d="M889.128,869.838c.092-1.864.623-3.9.661-5.2.026-.871-.384-1.172-1.292-1.223-.46-.025-1.148-.289-1.247.9l.023.377a6.615,6.615,0,0,0-3.99-1.455c-3.885.251-6.169,2.67-6.794,7.219-.293,4.21,1.546,6.473,5.472,6.726.088,0,.174.006.262.006a6.863,6.863,0,0,0,4.373-1.768l-.034.392c-.056.634.306.983.99,1.008a2.146,2.146,0,0,0,1.9-2.081l-.007-.124A23.891,23.891,0,0,1,889.128,869.838Zm-2.3,2.838a7,7,0,0,1-4.626,2.368c-2.509-.294-3.675-1.8-3.569-4.551.537-3.067,2.02-4.738,4.47-5.107a3.937,3.937,0,0,1,3.915,2.787Z" transform="translate(-430.551 -18.088)"/><path class="b" d="M964.188,865.139a4.911,4.911,0,0,0-3.309-1.285,6.709,6.709,0,0,0-4.7,2.507,7.713,7.713,0,0,1,.2-1.084,6.557,6.557,0,0,0,.227-1.363,1.217,1.217,0,0,0-1.117-.5,2.081,2.081,0,0,0-1.66.829,2.055,2.055,0,0,0-.055.624s.133,2.258.093,3.507c-.041,1.272-.551,6.165-.729,7.413a1.468,1.468,0,0,0,.149,1.084,1.381,1.381,0,0,0,1.1.568l.113-.008a1.71,1.71,0,0,0,1.454-1.854c.007-.154-.014-.639-.014-.639a27.739,27.739,0,0,1,.182-5.634c1.292-1.9,2.7-3.081,4.388-3.011a2.738,2.738,0,0,1,1.9,1.225c.245.307.462.5.758.479a1.273,1.273,0,0,0,.911-.645A1.867,1.867,0,0,0,964.188,865.139Z" transform="translate(-491.51 -18.223)"/><ellipse class="a" cx="2.947" cy="2.7" rx="2.947" ry="2.7" transform="matrix(0.722, -0.691, 0.691, 0.722, 358.234, 852.02)"/><path class="b" d="M781.92,861.413a6.437,6.437,0,0,0-1.376-.057,11.549,11.549,0,0,0-1.256.145c-3.435.672-5.555,3.081-6.308,7.235-.069,4.354,2.066,6.689,6.38,6.94,4.467-.167,7.089-2.5,7.8-6.991C787.328,864.925,785.678,862.1,781.92,861.413Zm3.72,7.47a1.627,1.627,0,0,0-.744,2.093l.322.658h-.76a1.706,1.706,0,0,0-1.666,1.532l-.067.76-.625-.38a1.614,1.614,0,0,0-2.142.561l-.437.658-.322-.658a1.452,1.452,0,0,0-2.044-.561l-.691.38.066-.76a1.382,1.382,0,0,0-1.4-1.532h-.759l.437-.658a1.464,1.464,0,0,0-.378-2.093l-.625-.38.691-.38a1.627,1.627,0,0,0,.744-2.093l-.322-.658h.76a1.706,1.706,0,0,0,1.667-1.532l.066-.76.624.38a1.614,1.614,0,0,0,2.142-.561l.437-.658.322.658a1.453,1.453,0,0,0,2.044.561l.691-.38-.067.76a1.382,1.382,0,0,0,1.4,1.532h.76l-.437.658a1.465,1.465,0,0,0,.378,2.093l.625.38Z" transform="translate(-348.242 -16.578)"/><path class="b" d="M628.781,862.083a1.514,1.514,0,0,0-1.382,1.063s-.037.706-.057.953a7.224,7.224,0,0,0-4.737-1.693c-4.217.169-6.511,2.608-7.15,7.25-.185,3.894,1.718,5.932,5.983,6.1a8.13,8.13,0,0,0,5.058-1.35,3.271,3.271,0,0,1-.423,1.47c-.8,1.514-2.4,2.174-4.91,2.027-2.587-.076-4.006-.646-5.131-2.145a.862.862,0,0,0-.569-.246.843.843,0,0,0-.563.719,3.15,3.15,0,0,0,.661,2.652c.763.894,2.125,1.334,4.131,1.334.4,0,.816-.034,1.262-.051,4.422-.174,6.024-1.082,7.192-3.283a6.454,6.454,0,0,0,.353-1.346c.08-.21.257-1.868.257-1.868-.018-.181.309-5.7.548-7.592a8.074,8.074,0,0,1,.338-1.146,4.271,4.271,0,0,0,.325-1.727C629.924,862.674,629.788,862.2,628.781,862.083Zm-1.71,5.761-.285,3.251a.894.894,0,0,1-.312.609,7.521,7.521,0,0,1-4.9,1.79c-2.74-.3-3.865-1.575-3.864-3.922.453-2.813,1.861-4.367,4.665-4.665,2.2.137,3.723.887,4.544,2.231A1.163,1.163,0,0,1,627.071,867.844Z" transform="translate(-222.466 -17.163)"/><path class="b" d="M700.515,852.271c-2.678-.072-4.059-.863-4.109-2.3.053-.6.212-2.427,3.383-2.533a14.767,14.767,0,0,1,3.584.816,8.32,8.32,0,0,0,1.838.36c.667-.068,1.294-.36,1.861-2.492,0,0,.283-1.025.094-1.134a.545.545,0,0,0-.549.114c-.1.076-.383.336-.383.336a.917.917,0,0,1-.232.159,1.545,1.545,0,0,1-.444.2,10.754,10.754,0,0,1-3.378-.12,13.67,13.67,0,0,0-2.214-.36h0c-2.162.048-3.748.616-4.715,1.687a4.77,4.77,0,0,0-1.137,3.109c-.112,2.994,1.969,4.512,6.177,4.512,3.068.073,4.582.931,4.5,2.519-.254,2.19-1.787,3.255-4.689,3.255-2.524,0-5.475-1.524-6.468-2.933-.083-.251-.325-.956-.726-.9-.331.047-.487,1.032-.487,1.032a3.743,3.743,0,0,0,.55,2.826c1.029,1.46,3.291,2.222,6.926,2.33,2.709,0,4.7-.654,5.923-1.943a5.733,5.733,0,0,0,1.458-3.676C707.406,853.991,705.128,852.354,700.515,852.271Z" transform="translate(-284.117 -3.538)"/></g></svg>