<svg xmlns="http://www.w3.org/2000/svg" width="36" height="36" viewBox="0 0 36 36"><defs><style>.a{fill:none;}.b{fill:#212353;}</style></defs><g transform="translate(-0.101 0.173)"><rect class="a" width="36" height="36" transform="translate(0.101 -0.173)"/><path class="b" d="M233.714,222.884l-12.377-6.6a4.338,4.338,0,0,0-4.089,0l-12.376,6.6a4.485,4.485,0,0,0-2.356,3.963v18a4.439,4.439,0,0,0,4.4,4.477H212.9V238.638a6.4,6.4,0,1,1,12.8,0v10.682h5.977a4.439,4.439,0,0,0,4.4-4.477v-18A4.486,4.486,0,0,0,233.714,222.884Z" transform="translate(-201.169 -214.42)"/></g></svg>