<svg xmlns="http://www.w3.org/2000/svg" width="24" height="24" viewBox="0 0 24 24"><defs><style>.a{fill:none;}.b{fill:#212353;}</style></defs><g transform="translate(-1512 -25)"><circle class="a" cx="12" cy="12" r="12" transform="translate(1512 25)"/><path class="b" d="M78.762,129.885l-2.229,10.124c-.168.714-.607.892-1.23.556l-3.4-2.41-1.639,1.518a.864.864,0,0,1-.683.321l.244-3.331,6.295-5.478c.274-.235-.059-.365-.425-.13l-7.782,4.719-3.35-1.01c-.729-.219-.742-.7.152-1.038l13.1-4.862C78.429,128.643,78.96,128.993,78.762,129.885Z" transform="translate(1452.968 -97.799)"/></g></svg>