<svg xmlns="http://www.w3.org/2000/svg" width="24" height="24" viewBox="0 0 24 24"><defs><style>.a{fill:none;}.b{fill:#212353;}</style></defs><g transform="translate(-1416 -25)"><circle class="a" cx="12" cy="12" r="12" transform="translate(1416 25)"/><path class="b" d="M14.513,72.956c0-.147,0-.292-.01-.437a6.69,6.69,0,0,0,1.653-1.725,6.5,6.5,0,0,1-1.9.505,3.315,3.315,0,0,0,1.456-1.847,6.478,6.478,0,0,1-2.1.788,3.333,3.333,0,0,0-2.417-1.108A3.3,3.3,0,0,0,7.88,72.483a3.482,3.482,0,0,0,.086.777A9.4,9.4,0,0,1,1.14,69.6a3.536,3.536,0,0,0,1.024,4.595,3.234,3.234,0,0,1-1.5-.446v.044a3.435,3.435,0,0,0,2.656,3.385,3.215,3.215,0,0,1-.872.115,3.105,3.105,0,0,1-.623-.066A3.348,3.348,0,0,0,4.92,79.617a6.518,6.518,0,0,1-4.9,1.405,9.116,9.116,0,0,0,5.076,1.545,9.457,9.457,0,0,0,9.418-9.612Z" transform="translate(1419.982 -39.131)"/></g></svg>