<svg xmlns="http://www.w3.org/2000/svg" width="24" height="24" viewBox="0 0 24 24"><defs><style>.a{fill:none;}.b{fill:#212353;}</style></defs><g transform="translate(-1560 -25)"><circle class="a" cx="12" cy="12" r="12" transform="translate(1560 25)"/><path class="b" d="M98.846,57.055,95.3,53.927l.426,1.251h-8.7a1.63,1.63,0,0,1-1.689-1.564V44.231a1.63,1.63,0,0,1,1.689-1.564H97.157a1.63,1.63,0,0,1,1.689,1.564V57.055m-6.756-10.76a6.8,6.8,0,0,0-3.081.719,6.136,6.136,0,0,1,1.912-.907L90.806,46a4.44,4.44,0,0,0-2.176.751,9.249,9.249,0,0,0-1.088,4.185,3.067,3.067,0,0,0,2.351,1.051l.48-.563A2.566,2.566,0,0,1,89,50.561a6.379,6.379,0,0,0,6.189,0,2.566,2.566,0,0,1-1.378.863l.48.563a3.067,3.067,0,0,0,2.351-1.051,9.249,9.249,0,0,0-1.088-4.185A4.44,4.44,0,0,0,93.373,46l-.115.106a6.136,6.136,0,0,1,1.912.907,6.8,6.8,0,0,0-3.081-.719m-1.4,2.371a.787.787,0,0,1,.79.794.787.787,0,1,1-1.574,0,.786.786,0,0,1,.784-.794m2.817,0a.795.795,0,1,1-.784.794A.791.791,0,0,1,93.508,48.666Z" transform="translate(1479.668 -12.667)"/></g></svg>