<svg xmlns="http://www.w3.org/2000/svg" width="24" height="24" viewBox="0 0 24 24"><defs><style>.a{fill:none;}.b{fill:#212353;}</style></defs><g transform="translate(-1464 -25)"><circle class="a" cx="12" cy="12" r="12" transform="translate(1464 25)"/><g transform="translate(1469 30)"><path class="b" d="M380.941,378.7a2.24,2.24,0,1,0,2.24,2.241A2.245,2.245,0,0,0,380.941,378.7Z" transform="translate(-374.224 -374.222)"/><path class="b" d="M125.807,118.989c0-.928.008-1.847-.044-2.773a3.718,3.718,0,0,0-3.9-3.9c-.928-.052-1.847-.044-2.773-.044s-1.847-.008-2.773.044a3.718,3.718,0,0,0-3.9,3.9c-.052.928-.044,1.847-.044,2.773s-.008,1.847.044,2.773a3.718,3.718,0,0,0,3.9,3.9c.928.052,1.847.044,2.773.044s1.847.008,2.773-.044a3.718,3.718,0,0,0,3.9-3.9C125.817,120.836,125.807,119.917,125.807,118.989Zm-6.72,3.447a3.447,3.447,0,1,1,3.447-3.447A3.442,3.442,0,0,1,119.087,122.436Zm3.588-6.231a.805.805,0,1,1,.805-.805A.8.8,0,0,1,122.676,116.205Z" transform="translate(-112.37 -112.27)"/></g></g></svg>