<svg xmlns="http://www.w3.org/2000/svg" width="109.996" height="18" viewBox="0 0 109.996 18"><defs><style>.a{fill:#fce937;}.b{fill:#212353;}</style></defs><g transform="translate(-1114.208 -654.342)"><ellipse class="a" cx="3.012" cy="2.76" rx="3.012" ry="2.76" transform="matrix(0.722, -0.691, 0.691, 0.722, 1187.271, 663.548)"/><path class="b" d="M1128.988,662.834a4.994,4.994,0,0,1-2.245.361,39.736,39.736,0,0,1-4.06-.09,6.532,6.532,0,0,0-.739-.078c-1.529.1-1.8,1.054-1.813,1.738-.04.456.2.618.417.618a4.023,4.023,0,0,0,1.739-.391c1.74-.488,2.294-.238,2.466,0a2.426,2.426,0,0,1-.541,1.615,4.882,4.882,0,0,1-3.857,1.333c-2.778-.008-4.006-1.709-3.689-4.6.419-3.815,2.17-5.884,5.01-6.065,1.682-.107,2.98.937,3.952,3.007l.037.06a.859.859,0,0,0,.753.362,1.725,1.725,0,0,0,1.523-1.023,1.077,1.077,0,0,0,.031-.239c.025-.281-.53-1.085-.558-1.148-.986-1.726-2.857-2.668-5.589-2.8-4.237.264-6.784,2.9-7.574,7.848-.367,4.195,1.621,6.355,5.922,6.421a7.154,7.154,0,0,0,4.647-1.734l-.015.224c.08,1.069.631,1.538,1.082,1.413a1.276,1.276,0,0,0,1.037-1.186l0-.088a5.257,5.257,0,0,1-.053-2.474c.019-.086.107-.5.127-.57a2.7,2.7,0,0,0,2.514-1.963s.14-.593.06-.675-.4.056-.4.056Z" transform="translate(0 -0.384)"/><path class="b" d="M1145.284,659.512a5.127,5.127,0,0,0-1.1-.046,9.235,9.235,0,0,0-1,.116c-2.742.536-4.433,2.46-5.034,5.775-.055,3.475,1.649,5.338,5.092,5.539,3.565-.133,5.657-2,6.221-5.58C1149.6,662.316,1148.283,660.056,1145.284,659.512Zm2.308,5.811c-.439,2.412-1.815,3.613-4.174,3.672-2.377-.178-3.488-1.382-3.4-3.663.217-2.474,1.6-3.734,4.2-3.854C1146.586,661.6,1147.691,662.854,1147.593,665.323Z" transform="translate(-8.013 -1.712)"/><path class="b" d="M1159.554,654.349l-.043-.007-.045,0a1.648,1.648,0,0,0-1.592,1.663c-.089,1.013.386,1.57,1.337,1.57a1.638,1.638,0,0,0,1.7-1.544l.007-.041,0-.041A1.6,1.6,0,0,0,1159.554,654.349Z" transform="translate(-14.611 0)"/><path class="b" d="M1160.173,661.866a3.144,3.144,0,0,0,.011-.685c-.192-.671-1.312-1.055-1.87-1.075a.816.816,0,0,0-.78.719c-.138,1.349.418,2.9.112,5.158-.071.522-.233,1.456-.434,2.772-.177,1.157-.208,1.229-.209,1.306-.006.662.383,1.243,1.047,1.145a1.827,1.827,0,0,0,1.487-1.9,27.6,27.6,0,0,1,0-3.286c.071-.814.166-1.527.316-2.53A9.872,9.872,0,0,1,1160.173,661.866Z" transform="translate(-14.323 -1.929)"/><path class="b" d="M1171.138,659.637a7.819,7.819,0,0,0-4.31,1.711c.022-.094.045-.188.067-.284l.01-.044,0-.045c-.018-.469-.265-1.048-1.341-1.146l-.056-.005-.057.013a1.209,1.209,0,0,0-1.029,1.275s.158,2.532.105,3.14c-.148,1.694-.292,2.965-.428,3.8a21.044,21.044,0,0,1-.294,2.283.583.583,0,0,0,.18.548,1.1,1.1,0,0,0,.445.067c1.485-.111,1.861-.971,1.828-1.469a2.394,2.394,0,0,1-.036-.686c.064-2.142.179-3.83.34-5.018a5.768,5.768,0,0,1,4.446-2.429,2.678,2.678,0,0,1,2.629,3.171c-.2,1.584-.382,2.914-.541,4.01l-.15,1.712a.6.6,0,0,0,.777.711,1.493,1.493,0,0,0,1.548-1.2c.087-1.707.208-3.464.364-5.235C1175.769,661.416,1174.27,659.773,1171.138,659.637Z" transform="translate(-16.598 -1.772)"/><path class="b" d="M1243,664.318c.052-1.312.121-2.459.2-3.388a20.628,20.628,0,0,1,.5-2.4l.012-.144a4.677,4.677,0,0,0,.294-1.188l-.011-.116c-.18-.625-.746-1.017-1.681-1.163l-.072-.011-.072.02c-.888.25-.923.819-.9,1.052l0,.03a10.348,10.348,0,0,1,.166,2.3c-.025,1.014-.114,2.383-.261,4.07-.06.683-.23,1.891-.507,3.616l-.108,1.3c.1,1.042.634,1.391,1.068,1.5l.074.019.077-.017c.51-.11,1.16-.5,1.362-1.726l.009-.058-.01-.057A13.274,13.274,0,0,1,1243,664.318Z" transform="translate(-42.292 -0.524)"/><path class="b" d="M1257.169,665.188c.073-1.488.5-3.112.528-4.149.02-.695-.306-.935-1.031-.976-.366-.02-.916-.231-1,.721l.018.3a5.28,5.28,0,0,0-3.184-1.162c-3.1.2-4.924,2.131-5.423,5.762-.234,3.36,1.233,5.165,4.368,5.368.07,0,.139,0,.209,0a5.478,5.478,0,0,0,3.49-1.411l-.027.313c-.044.506.244.784.79.8a1.713,1.713,0,0,0,1.516-1.661l-.005-.1A19.038,19.038,0,0,1,1257.169,665.188Zm-1.834,2.265a5.587,5.587,0,0,1-3.692,1.89c-2-.235-2.933-1.439-2.849-3.632.429-2.448,1.612-3.782,3.568-4.076a3.142,3.142,0,0,1,3.124,2.225Z" transform="translate(-44.464 -1.868)"/><path class="b" d="M1274.718,661.343a3.916,3.916,0,0,0-2.641-1.026,5.352,5.352,0,0,0-3.751,2,6.157,6.157,0,0,1,.158-.865,5.268,5.268,0,0,0,.181-1.088.973.973,0,0,0-.892-.4,1.052,1.052,0,0,0-1.369,1.16s.106,1.8.074,2.8c-.032,1.015-.439,4.92-.581,5.916a1.168,1.168,0,0,0,.119.866,1.1,1.1,0,0,0,.877.454l.09-.007a1.365,1.365,0,0,0,1.161-1.48c.005-.123-.011-.51-.011-.51a22.145,22.145,0,0,1,.145-4.5c1.031-1.517,2.157-2.459,3.5-2.4a2.187,2.187,0,0,1,1.514.977c.2.245.368.4.605.383a1.018,1.018,0,0,0,.727-.515A1.49,1.49,0,0,0,1274.718,661.343Z" transform="translate(-50.759 -1.882)"/><ellipse class="a" cx="2.352" cy="2.155" rx="2.352" ry="2.155" transform="matrix(0.722, -0.691, 0.691, 0.722, 1132.619, 663.534)"/><path class="b" d="M1228.8,659.512a5.118,5.118,0,0,0-1.1-.046,9.23,9.23,0,0,0-1,.116c-2.742.536-4.433,2.46-5.034,5.775-.055,3.475,1.648,5.338,5.092,5.539,3.566-.133,5.658-2,6.222-5.58C1233.113,662.316,1231.8,660.056,1228.8,659.512Zm2.969,5.962a1.3,1.3,0,0,0-.594,1.671l.258.526h-.607a1.362,1.362,0,0,0-1.33,1.223l-.053.606-.5-.3a1.289,1.289,0,0,0-1.71.448l-.349.526-.257-.526a1.16,1.16,0,0,0-1.632-.448l-.552.3.053-.606a1.1,1.1,0,0,0-1.116-1.223h-.606l.348-.526a1.169,1.169,0,0,0-.3-1.671l-.5-.3.551-.3a1.3,1.3,0,0,0,.593-1.671l-.257-.525h.606a1.362,1.362,0,0,0,1.33-1.224l.053-.606.5.3a1.289,1.289,0,0,0,1.71-.448l.349-.525.257.525a1.161,1.161,0,0,0,1.632.448l.552-.3-.053.606a1.1,1.1,0,0,0,1.116,1.224h.606l-.349.525a1.169,1.169,0,0,0,.3,1.671l.5.3Z" transform="translate(-35.964 -1.712)"/><path class="b" d="M1193.969,659.641a1.208,1.208,0,0,0-1.1.848s-.03.563-.046.761a5.764,5.764,0,0,0-3.781-1.352c-3.366.136-5.2,2.082-5.706,5.786-.148,3.108,1.371,4.735,4.776,4.869a6.489,6.489,0,0,0,4.037-1.078,2.616,2.616,0,0,1-.337,1.174c-.641,1.208-1.919,1.735-3.919,1.617-2.065-.06-3.2-.515-4.095-1.712a.689.689,0,0,0-.454-.2.674.674,0,0,0-.449.574,2.515,2.515,0,0,0,.528,2.117,4.162,4.162,0,0,0,3.3,1.065c.315,0,.651-.027,1.007-.041,3.529-.139,4.808-.864,5.74-2.62a5.138,5.138,0,0,0,.282-1.075c.064-.168.2-1.491.2-1.491-.014-.144.247-4.545.437-6.059a6.492,6.492,0,0,1,.27-.915,3.412,3.412,0,0,0,.259-1.379C1194.881,660.112,1194.772,659.734,1193.969,659.641Zm-1.365,4.6-.227,2.6a.718.718,0,0,1-.249.486,6.006,6.006,0,0,1-3.909,1.428c-2.187-.237-3.085-1.257-3.084-3.13.361-2.245,1.485-3.485,3.723-3.723a4.248,4.248,0,0,1,3.627,1.781A.926.926,0,0,1,1192.6,664.239Z" transform="translate(-22.974 -1.772)"/><path class="b" d="M1208.383,661.276c-2.137-.057-3.24-.689-3.28-1.835.042-.479.17-1.937,2.7-2.021a11.8,11.8,0,0,1,2.86.651,6.7,6.7,0,0,0,1.468.288c.532-.054,1.033-.287,1.486-1.989,0,0,.225-.818.075-.9a.434.434,0,0,0-.438.091c-.081.06-.305.268-.305.268a.74.74,0,0,1-.186.127,1.187,1.187,0,0,1-.354.159,8.57,8.57,0,0,1-2.7-.1,10.867,10.867,0,0,0-1.767-.287h0a5.03,5.03,0,0,0-3.764,1.346,3.808,3.808,0,0,0-.907,2.482c-.089,2.39,1.571,3.6,4.931,3.6,2.448.059,3.656.743,3.593,2.011-.2,1.748-1.426,2.6-3.742,2.6a7.245,7.245,0,0,1-5.163-2.341c-.066-.2-.26-.763-.579-.718-.264.037-.389.823-.389.823a2.988,2.988,0,0,0,.438,2.255c.821,1.165,2.626,1.774,5.528,1.86,2.162,0,3.753-.522,4.727-1.551a4.574,4.574,0,0,0,1.164-2.934C1213.882,662.649,1212.064,661.342,1208.383,661.276Z" transform="translate(-29.341 -0.365)"/></g></svg>