<svg xmlns="http://www.w3.org/2000/svg" width="1937.774" height="38.588" viewBox="0 0 1937.774 38.588"><defs><style>.a{fill:#fce937;}.b{fill:#15d3a4;}</style></defs><g transform="translate(1.774 -3680.07)"><g transform="translate(-1.774 3680.071)"><ellipse class="a" cx="9.726" cy="9.726" rx="9.726" ry="9.726" transform="translate(9.301 9.549)"/><path class="b" d="M916,1174.641a17.534,17.534,0,0,0-3.717-.154,30.13,30.13,0,0,0-3.347.391c-9.09,1.808-14.229,8.3-15.277,19.479.839,11.723,7.137,18.008,18.811,18.686,11.988-.449,18.495-6.737,19.34-18.822C931.384,1184.1,926.275,1176.479,916,1174.641Zm11.773,20.112a4.126,4.126,0,0,0-1.51,5.636l1.023,1.771h-2.045a4.126,4.126,0,0,0-4.126,4.126v2.045l-1.771-1.022a4.126,4.126,0,0,0-5.636,1.51l-1.022,1.771-1.022-1.771a4.126,4.126,0,0,0-5.636-1.51l-1.771,1.022v-2.045a4.126,4.126,0,0,0-4.125-4.126h-2.045l1.022-1.771a4.125,4.125,0,0,0-1.51-5.636l-1.771-1.022,1.771-1.022a4.126,4.126,0,0,0,1.51-5.636l-1.022-1.771h2.045a4.125,4.125,0,0,0,4.125-4.126v-2.045l1.771,1.022a4.126,4.126,0,0,0,5.636-1.51l1.022-1.771,1.022,1.771a4.126,4.126,0,0,0,5.636,1.51l1.771-1.022v2.045a4.126,4.126,0,0,0,4.126,4.126h2.045l-1.022,1.771a4.125,4.125,0,0,0,1.51,5.636l1.771,1.022Z" transform="translate(-893.655 -1174.455)"/></g><g transform="translate(384.745 3680.071)"><ellipse class="a" cx="9.726" cy="9.726" rx="9.726" ry="9.726" transform="translate(9.301 9.549)"/><path class="b" d="M916,1174.641a17.534,17.534,0,0,0-3.717-.154,30.13,30.13,0,0,0-3.347.391c-9.09,1.808-14.229,8.3-15.277,19.479.839,11.723,7.137,18.008,18.811,18.686,11.988-.449,18.495-6.737,19.34-18.822C931.384,1184.1,926.275,1176.479,916,1174.641Zm11.773,20.112a4.126,4.126,0,0,0-1.51,5.636l1.023,1.771h-2.045a4.126,4.126,0,0,0-4.126,4.126v2.045l-1.771-1.022a4.126,4.126,0,0,0-5.636,1.51l-1.022,1.771-1.022-1.771a4.126,4.126,0,0,0-5.636-1.51l-1.771,1.022v-2.045a4.126,4.126,0,0,0-4.125-4.126h-2.045l1.022-1.771a4.125,4.125,0,0,0-1.51-5.636l-1.771-1.022,1.771-1.022a4.126,4.126,0,0,0,1.51-5.636l-1.022-1.771h2.045a4.125,4.125,0,0,0,4.125-4.126v-2.045l1.771,1.022a4.126,4.126,0,0,0,5.636-1.51l1.022-1.771,1.022,1.771a4.126,4.126,0,0,0,5.636,1.51l1.771-1.022v2.045a4.126,4.126,0,0,0,4.126,4.126h2.045l-1.022,1.771a4.125,4.125,0,0,0,1.51,5.636l1.771,1.022Z" transform="translate(-893.655 -1174.455)"/></g><g transform="translate(773.097 3680.071)"><ellipse class="a" cx="9.726" cy="9.726" rx="9.726" ry="9.726" transform="translate(9.301 9.549)"/><path class="b" d="M916,1174.641a17.534,17.534,0,0,0-3.717-.154,30.13,30.13,0,0,0-3.347.391c-9.09,1.808-14.229,8.3-15.277,19.479.839,11.723,7.137,18.008,18.811,18.686,11.988-.449,18.495-6.737,19.34-18.822C931.384,1184.1,926.275,1176.479,916,1174.641Zm11.773,20.112a4.126,4.126,0,0,0-1.51,5.636l1.023,1.771h-2.045a4.126,4.126,0,0,0-4.126,4.126v2.045l-1.771-1.022a4.126,4.126,0,0,0-5.636,1.51l-1.022,1.771-1.022-1.771a4.126,4.126,0,0,0-5.636-1.51l-1.771,1.022v-2.045a4.126,4.126,0,0,0-4.125-4.126h-2.045l1.022-1.771a4.125,4.125,0,0,0-1.51-5.636l-1.771-1.022,1.771-1.022a4.126,4.126,0,0,0,1.51-5.636l-1.022-1.771h2.045a4.125,4.125,0,0,0,4.125-4.126v-2.045l1.771,1.022a4.126,4.126,0,0,0,5.636-1.51l1.022-1.771,1.022,1.771a4.126,4.126,0,0,0,5.636,1.51l1.771-1.022v2.045a4.126,4.126,0,0,0,4.126,4.126h2.045l-1.022,1.771a4.125,4.125,0,0,0,1.51,5.636l1.771,1.022Z" transform="translate(-893.655 -1174.455)"/></g><g transform="translate(1161.447 3680.071)"><ellipse class="a" cx="9.726" cy="9.726" rx="9.726" ry="9.726" transform="translate(9.301 9.549)"/><path class="b" d="M916,1174.641a17.534,17.534,0,0,0-3.717-.154,30.13,30.13,0,0,0-3.347.391c-9.09,1.808-14.229,8.3-15.277,19.479.839,11.723,7.137,18.008,18.811,18.686,11.988-.449,18.495-6.737,19.34-18.822C931.384,1184.1,926.275,1176.479,916,1174.641Zm11.773,20.112a4.126,4.126,0,0,0-1.51,5.636l1.023,1.771h-2.045a4.126,4.126,0,0,0-4.126,4.126v2.045l-1.771-1.022a4.126,4.126,0,0,0-5.636,1.51l-1.022,1.771-1.022-1.771a4.126,4.126,0,0,0-5.636-1.51l-1.771,1.022v-2.045a4.126,4.126,0,0,0-4.125-4.126h-2.045l1.022-1.771a4.125,4.125,0,0,0-1.51-5.636l-1.771-1.022,1.771-1.022a4.126,4.126,0,0,0,1.51-5.636l-1.022-1.771h2.045a4.125,4.125,0,0,0,4.125-4.126v-2.045l1.771,1.022a4.126,4.126,0,0,0,5.636-1.51l1.022-1.771,1.022,1.771a4.126,4.126,0,0,0,5.636,1.51l1.771-1.022v2.045a4.126,4.126,0,0,0,4.126,4.126h2.045l-1.022,1.771a4.125,4.125,0,0,0,1.51,5.636l1.771,1.022Z" transform="translate(-893.655 -1174.455)"/></g><g transform="translate(1547.967 3680.071)"><ellipse class="a" cx="9.726" cy="9.726" rx="9.726" ry="9.726" transform="translate(9.301 9.549)"/><path class="b" d="M916,1174.641a17.534,17.534,0,0,0-3.717-.154,30.13,30.13,0,0,0-3.347.391c-9.09,1.808-14.229,8.3-15.277,19.479.839,11.723,7.137,18.008,18.811,18.686,11.988-.449,18.495-6.737,19.34-18.822C931.384,1184.1,926.275,1176.479,916,1174.641Zm11.773,20.112a4.126,4.126,0,0,0-1.51,5.636l1.023,1.771h-2.045a4.126,4.126,0,0,0-4.126,4.126v2.045l-1.771-1.022a4.126,4.126,0,0,0-5.636,1.51l-1.022,1.771-1.022-1.771a4.126,4.126,0,0,0-5.636-1.51l-1.771,1.022v-2.045a4.126,4.126,0,0,0-4.125-4.126h-2.045l1.022-1.771a4.125,4.125,0,0,0-1.51-5.636l-1.771-1.022,1.771-1.022a4.126,4.126,0,0,0,1.51-5.636l-1.022-1.771h2.045a4.125,4.125,0,0,0,4.125-4.126v-2.045l1.771,1.022a4.126,4.126,0,0,0,5.636-1.51l1.022-1.771,1.022,1.771a4.126,4.126,0,0,0,5.636,1.51l1.771-1.022v2.045a4.126,4.126,0,0,0,4.126,4.126h2.045l-1.022,1.771a4.125,4.125,0,0,0,1.51,5.636l1.771,1.022Z" transform="translate(-893.655 -1174.455)"/></g><g transform="translate(112.681 3680.071)"><ellipse class="a" cx="9.726" cy="9.726" rx="9.726" ry="9.726" transform="translate(9.301 9.549)"/><path class="b" d="M916,1174.641a17.534,17.534,0,0,0-3.717-.154,30.13,30.13,0,0,0-3.347.391c-9.09,1.808-14.229,8.3-15.277,19.479.839,11.723,7.137,18.008,18.811,18.686,11.988-.449,18.495-6.737,19.34-18.822C931.384,1184.1,926.275,1176.479,916,1174.641Zm11.773,20.112a4.126,4.126,0,0,0-1.51,5.636l1.023,1.771h-2.045a4.126,4.126,0,0,0-4.126,4.126v2.045l-1.771-1.022a4.126,4.126,0,0,0-5.636,1.51l-1.022,1.771-1.022-1.771a4.126,4.126,0,0,0-5.636-1.51l-1.771,1.022v-2.045a4.126,4.126,0,0,0-4.125-4.126h-2.045l1.022-1.771a4.125,4.125,0,0,0-1.51-5.636l-1.771-1.022,1.771-1.022a4.126,4.126,0,0,0,1.51-5.636l-1.022-1.771h2.045a4.125,4.125,0,0,0,4.125-4.126v-2.045l1.771,1.022a4.126,4.126,0,0,0,5.636-1.51l1.022-1.771,1.022,1.771a4.126,4.126,0,0,0,5.636,1.51l1.771-1.022v2.045a4.126,4.126,0,0,0,4.126,4.126h2.045l-1.022,1.771a4.125,4.125,0,0,0,1.51,5.636l1.771,1.022Z" transform="translate(-893.655 -1174.455)"/></g><g transform="translate(499.2 3680.071)"><ellipse class="a" cx="9.726" cy="9.726" rx="9.726" ry="9.726" transform="translate(9.301 9.549)"/><path class="b" d="M916,1174.641a17.534,17.534,0,0,0-3.717-.154,30.13,30.13,0,0,0-3.347.391c-9.09,1.808-14.229,8.3-15.277,19.479.839,11.723,7.137,18.008,18.811,18.686,11.988-.449,18.495-6.737,19.34-18.822C931.384,1184.1,926.275,1176.479,916,1174.641Zm11.773,20.112a4.126,4.126,0,0,0-1.51,5.636l1.023,1.771h-2.045a4.126,4.126,0,0,0-4.126,4.126v2.045l-1.771-1.022a4.126,4.126,0,0,0-5.636,1.51l-1.022,1.771-1.022-1.771a4.126,4.126,0,0,0-5.636-1.51l-1.771,1.022v-2.045a4.126,4.126,0,0,0-4.125-4.126h-2.045l1.022-1.771a4.125,4.125,0,0,0-1.51-5.636l-1.771-1.022,1.771-1.022a4.126,4.126,0,0,0,1.51-5.636l-1.022-1.771h2.045a4.125,4.125,0,0,0,4.125-4.126v-2.045l1.771,1.022a4.126,4.126,0,0,0,5.636-1.51l1.022-1.771,1.022,1.771a4.126,4.126,0,0,0,5.636,1.51l1.771-1.022v2.045a4.126,4.126,0,0,0,4.126,4.126h2.045l-1.022,1.771a4.125,4.125,0,0,0,1.51,5.636l1.771,1.022Z" transform="translate(-893.655 -1174.455)"/></g><g transform="translate(887.551 3680.071)"><ellipse class="a" cx="9.726" cy="9.726" rx="9.726" ry="9.726" transform="translate(9.301 9.549)"/><path class="b" d="M916,1174.641a17.534,17.534,0,0,0-3.717-.154,30.13,30.13,0,0,0-3.347.391c-9.09,1.808-14.229,8.3-15.277,19.479.839,11.723,7.137,18.008,18.811,18.686,11.988-.449,18.495-6.737,19.34-18.822C931.384,1184.1,926.275,1176.479,916,1174.641Zm11.773,20.112a4.126,4.126,0,0,0-1.51,5.636l1.023,1.771h-2.045a4.126,4.126,0,0,0-4.126,4.126v2.045l-1.771-1.022a4.126,4.126,0,0,0-5.636,1.51l-1.022,1.771-1.022-1.771a4.126,4.126,0,0,0-5.636-1.51l-1.771,1.022v-2.045a4.126,4.126,0,0,0-4.125-4.126h-2.045l1.022-1.771a4.125,4.125,0,0,0-1.51-5.636l-1.771-1.022,1.771-1.022a4.126,4.126,0,0,0,1.51-5.636l-1.022-1.771h2.045a4.125,4.125,0,0,0,4.125-4.126v-2.045l1.771,1.022a4.126,4.126,0,0,0,5.636-1.51l1.022-1.771,1.022,1.771a4.126,4.126,0,0,0,5.636,1.51l1.771-1.022v2.045a4.126,4.126,0,0,0,4.126,4.126h2.045l-1.022,1.771a4.125,4.125,0,0,0,1.51,5.636l1.771,1.022Z" transform="translate(-893.655 -1174.455)"/></g><g transform="translate(1275.902 3680.071)"><ellipse class="a" cx="9.726" cy="9.726" rx="9.726" ry="9.726" transform="translate(9.301 9.549)"/><path class="b" d="M916,1174.641a17.534,17.534,0,0,0-3.717-.154,30.13,30.13,0,0,0-3.347.391c-9.09,1.808-14.229,8.3-15.277,19.479.839,11.723,7.137,18.008,18.811,18.686,11.988-.449,18.495-6.737,19.34-18.822C931.384,1184.1,926.275,1176.479,916,1174.641Zm11.773,20.112a4.126,4.126,0,0,0-1.51,5.636l1.023,1.771h-2.045a4.126,4.126,0,0,0-4.126,4.126v2.045l-1.771-1.022a4.126,4.126,0,0,0-5.636,1.51l-1.022,1.771-1.022-1.771a4.126,4.126,0,0,0-5.636-1.51l-1.771,1.022v-2.045a4.126,4.126,0,0,0-4.125-4.126h-2.045l1.022-1.771a4.125,4.125,0,0,0-1.51-5.636l-1.771-1.022,1.771-1.022a4.126,4.126,0,0,0,1.51-5.636l-1.022-1.771h2.045a4.125,4.125,0,0,0,4.125-4.126v-2.045l1.771,1.022a4.126,4.126,0,0,0,5.636-1.51l1.022-1.771,1.022,1.771a4.126,4.126,0,0,0,5.636,1.51l1.771-1.022v2.045a4.126,4.126,0,0,0,4.126,4.126h2.045l-1.022,1.771a4.125,4.125,0,0,0,1.51,5.636l1.771,1.022Z" transform="translate(-893.655 -1174.455)"/></g><g transform="translate(1662.422 3680.071)"><ellipse class="a" cx="9.726" cy="9.726" rx="9.726" ry="9.726" transform="translate(9.301 9.549)"/><path class="b" d="M916,1174.641a17.534,17.534,0,0,0-3.717-.154,30.13,30.13,0,0,0-3.347.391c-9.09,1.808-14.229,8.3-15.277,19.479.839,11.723,7.137,18.008,18.811,18.686,11.988-.449,18.495-6.737,19.34-18.822C931.384,1184.1,926.275,1176.479,916,1174.641Zm11.773,20.112a4.126,4.126,0,0,0-1.51,5.636l1.023,1.771h-2.045a4.126,4.126,0,0,0-4.126,4.126v2.045l-1.771-1.022a4.126,4.126,0,0,0-5.636,1.51l-1.022,1.771-1.022-1.771a4.126,4.126,0,0,0-5.636-1.51l-1.771,1.022v-2.045a4.126,4.126,0,0,0-4.125-4.126h-2.045l1.022-1.771a4.125,4.125,0,0,0-1.51-5.636l-1.771-1.022,1.771-1.022a4.126,4.126,0,0,0,1.51-5.636l-1.022-1.771h2.045a4.125,4.125,0,0,0,4.125-4.126v-2.045l1.771,1.022a4.126,4.126,0,0,0,5.636-1.51l1.022-1.771,1.022,1.771a4.126,4.126,0,0,0,5.636,1.51l1.771-1.022v2.045a4.126,4.126,0,0,0,4.126,4.126h2.045l-1.022,1.771a4.125,4.125,0,0,0,1.51,5.636l1.771,1.022Z" transform="translate(-893.655 -1174.455)"/></g><g transform="translate(36.377 3680.071)"><ellipse class="a" cx="9.726" cy="9.726" rx="9.726" ry="9.726" transform="translate(9.302 9.549)"/><path class="b" d="M916,1174.641a17.534,17.534,0,0,0-3.717-.154,30.13,30.13,0,0,0-3.347.391c-9.09,1.808-14.229,8.3-15.277,19.479.839,11.723,7.137,18.008,18.811,18.686,11.988-.449,18.495-6.737,19.34-18.822C931.384,1184.1,926.275,1176.479,916,1174.641Zm11.773,20.112a4.126,4.126,0,0,0-1.51,5.636l1.023,1.771h-2.045a4.126,4.126,0,0,0-4.126,4.126v2.045l-1.771-1.022a4.126,4.126,0,0,0-5.636,1.51l-1.022,1.771-1.022-1.771a4.126,4.126,0,0,0-5.636-1.51l-1.771,1.022v-2.045a4.126,4.126,0,0,0-4.125-4.126h-2.045l1.022-1.771a4.125,4.125,0,0,0-1.51-5.636l-1.771-1.022,1.771-1.022a4.126,4.126,0,0,0,1.51-5.636l-1.022-1.771h2.045a4.125,4.125,0,0,0,4.125-4.126v-2.045l1.771,1.022a4.126,4.126,0,0,0,5.636-1.51l1.022-1.771,1.022,1.771a4.126,4.126,0,0,0,5.636,1.51l1.771-1.022v2.045a4.126,4.126,0,0,0,4.126,4.126h2.045l-1.022,1.771a4.125,4.125,0,0,0,1.51,5.636l1.771,1.022Z" transform="translate(-893.655 -1174.455)"/></g><g transform="translate(422.896 3680.071)"><ellipse class="a" cx="9.726" cy="9.726" rx="9.726" ry="9.726" transform="translate(9.302 9.549)"/><path class="b" d="M916,1174.641a17.534,17.534,0,0,0-3.717-.154,30.13,30.13,0,0,0-3.347.391c-9.09,1.808-14.229,8.3-15.277,19.479.839,11.723,7.137,18.008,18.811,18.686,11.988-.449,18.495-6.737,19.34-18.822C931.384,1184.1,926.275,1176.479,916,1174.641Zm11.773,20.112a4.126,4.126,0,0,0-1.51,5.636l1.023,1.771h-2.045a4.126,4.126,0,0,0-4.126,4.126v2.045l-1.771-1.022a4.126,4.126,0,0,0-5.636,1.51l-1.022,1.771-1.022-1.771a4.126,4.126,0,0,0-5.636-1.51l-1.771,1.022v-2.045a4.126,4.126,0,0,0-4.125-4.126h-2.045l1.022-1.771a4.125,4.125,0,0,0-1.51-5.636l-1.771-1.022,1.771-1.022a4.126,4.126,0,0,0,1.51-5.636l-1.022-1.771h2.045a4.125,4.125,0,0,0,4.125-4.126v-2.045l1.771,1.022a4.126,4.126,0,0,0,5.636-1.51l1.022-1.771,1.022,1.771a4.126,4.126,0,0,0,5.636,1.51l1.771-1.022v2.045a4.126,4.126,0,0,0,4.126,4.126h2.045l-1.022,1.771a4.125,4.125,0,0,0,1.51,5.636l1.771,1.022Z" transform="translate(-893.655 -1174.455)"/></g><g transform="translate(811.247 3680.071)"><ellipse class="a" cx="9.726" cy="9.726" rx="9.726" ry="9.726" transform="translate(9.302 9.549)"/><path class="b" d="M916,1174.641a17.534,17.534,0,0,0-3.717-.154,30.13,30.13,0,0,0-3.347.391c-9.09,1.808-14.229,8.3-15.277,19.479.839,11.723,7.137,18.008,18.811,18.686,11.988-.449,18.495-6.737,19.34-18.822C931.384,1184.1,926.275,1176.479,916,1174.641Zm11.773,20.112a4.126,4.126,0,0,0-1.51,5.636l1.023,1.771h-2.045a4.126,4.126,0,0,0-4.126,4.126v2.045l-1.771-1.022a4.126,4.126,0,0,0-5.636,1.51l-1.022,1.771-1.022-1.771a4.126,4.126,0,0,0-5.636-1.51l-1.771,1.022v-2.045a4.126,4.126,0,0,0-4.125-4.126h-2.045l1.022-1.771a4.125,4.125,0,0,0-1.51-5.636l-1.771-1.022,1.771-1.022a4.126,4.126,0,0,0,1.51-5.636l-1.022-1.771h2.045a4.125,4.125,0,0,0,4.125-4.126v-2.045l1.771,1.022a4.126,4.126,0,0,0,5.636-1.51l1.022-1.771,1.022,1.771a4.126,4.126,0,0,0,5.636,1.51l1.771-1.022v2.045a4.126,4.126,0,0,0,4.126,4.126h2.045l-1.022,1.771a4.125,4.125,0,0,0,1.51,5.636l1.771,1.022Z" transform="translate(-893.655 -1174.455)"/></g><g transform="translate(1199.599 3680.071)"><ellipse class="a" cx="9.726" cy="9.726" rx="9.726" ry="9.726" transform="translate(9.302 9.549)"/><path class="b" d="M916,1174.641a17.534,17.534,0,0,0-3.717-.154,30.13,30.13,0,0,0-3.347.391c-9.09,1.808-14.229,8.3-15.277,19.479.839,11.723,7.137,18.008,18.811,18.686,11.988-.449,18.495-6.737,19.34-18.822C931.384,1184.1,926.275,1176.479,916,1174.641Zm11.773,20.112a4.126,4.126,0,0,0-1.51,5.636l1.023,1.771h-2.045a4.126,4.126,0,0,0-4.126,4.126v2.045l-1.771-1.022a4.126,4.126,0,0,0-5.636,1.51l-1.022,1.771-1.022-1.771a4.126,4.126,0,0,0-5.636-1.51l-1.771,1.022v-2.045a4.126,4.126,0,0,0-4.125-4.126h-2.045l1.022-1.771a4.125,4.125,0,0,0-1.51-5.636l-1.771-1.022,1.771-1.022a4.126,4.126,0,0,0,1.51-5.636l-1.022-1.771h2.045a4.125,4.125,0,0,0,4.125-4.126v-2.045l1.771,1.022a4.126,4.126,0,0,0,5.636-1.51l1.022-1.771,1.022,1.771a4.126,4.126,0,0,0,5.636,1.51l1.771-1.022v2.045a4.126,4.126,0,0,0,4.126,4.126h2.045l-1.022,1.771a4.125,4.125,0,0,0,1.51,5.636l1.771,1.022Z" transform="translate(-893.655 -1174.455)"/></g><g transform="translate(1586.118 3680.071)"><ellipse class="a" cx="9.726" cy="9.726" rx="9.726" ry="9.726" transform="translate(9.302 9.549)"/><path class="b" d="M916,1174.641a17.534,17.534,0,0,0-3.717-.154,30.13,30.13,0,0,0-3.347.391c-9.09,1.808-14.229,8.3-15.277,19.479.839,11.723,7.137,18.008,18.811,18.686,11.988-.449,18.495-6.737,19.34-18.822C931.384,1184.1,926.275,1176.479,916,1174.641Zm11.773,20.112a4.126,4.126,0,0,0-1.51,5.636l1.023,1.771h-2.045a4.126,4.126,0,0,0-4.126,4.126v2.045l-1.771-1.022a4.126,4.126,0,0,0-5.636,1.51l-1.022,1.771-1.022-1.771a4.126,4.126,0,0,0-5.636-1.51l-1.771,1.022v-2.045a4.126,4.126,0,0,0-4.125-4.126h-2.045l1.022-1.771a4.125,4.125,0,0,0-1.51-5.636l-1.771-1.022,1.771-1.022a4.126,4.126,0,0,0,1.51-5.636l-1.022-1.771h2.045a4.125,4.125,0,0,0,4.125-4.126v-2.045l1.771,1.022a4.126,4.126,0,0,0,5.636-1.51l1.022-1.771,1.022,1.771a4.126,4.126,0,0,0,5.636,1.51l1.771-1.022v2.045a4.126,4.126,0,0,0,4.126,4.126h2.045l-1.022,1.771a4.125,4.125,0,0,0,1.51,5.636l1.771,1.022Z" transform="translate(-893.655 -1174.455)"/></g><g transform="translate(150.831 3680.071)"><ellipse class="a" cx="9.726" cy="9.726" rx="9.726" ry="9.726" transform="translate(9.302 9.549)"/><path class="b" d="M916,1174.641a17.534,17.534,0,0,0-3.717-.154,30.13,30.13,0,0,0-3.347.391c-9.09,1.808-14.229,8.3-15.277,19.479.839,11.723,7.137,18.008,18.811,18.686,11.988-.449,18.495-6.737,19.34-18.822C931.384,1184.1,926.275,1176.479,916,1174.641Zm11.773,20.112a4.126,4.126,0,0,0-1.51,5.636l1.023,1.771h-2.045a4.126,4.126,0,0,0-4.126,4.126v2.045l-1.771-1.022a4.126,4.126,0,0,0-5.636,1.51l-1.022,1.771-1.022-1.771a4.126,4.126,0,0,0-5.636-1.51l-1.771,1.022v-2.045a4.126,4.126,0,0,0-4.125-4.126h-2.045l1.022-1.771a4.125,4.125,0,0,0-1.51-5.636l-1.771-1.022,1.771-1.022a4.126,4.126,0,0,0,1.51-5.636l-1.022-1.771h2.045a4.125,4.125,0,0,0,4.125-4.126v-2.045l1.771,1.022a4.126,4.126,0,0,0,5.636-1.51l1.022-1.771,1.022,1.771a4.126,4.126,0,0,0,5.636,1.51l1.771-1.022v2.045a4.126,4.126,0,0,0,4.126,4.126h2.045l-1.022,1.771a4.125,4.125,0,0,0,1.51,5.636l1.771,1.022Z" transform="translate(-893.655 -1174.455)"/></g><g transform="translate(537.352 3680.071)"><ellipse class="a" cx="9.726" cy="9.726" rx="9.726" ry="9.726" transform="translate(9.302 9.549)"/><path class="b" d="M916,1174.641a17.534,17.534,0,0,0-3.717-.154,30.13,30.13,0,0,0-3.347.391c-9.09,1.808-14.229,8.3-15.277,19.479.839,11.723,7.137,18.008,18.811,18.686,11.988-.449,18.495-6.737,19.34-18.822C931.384,1184.1,926.275,1176.479,916,1174.641Zm11.773,20.112a4.126,4.126,0,0,0-1.51,5.636l1.023,1.771h-2.045a4.126,4.126,0,0,0-4.126,4.126v2.045l-1.771-1.022a4.126,4.126,0,0,0-5.636,1.51l-1.022,1.771-1.022-1.771a4.126,4.126,0,0,0-5.636-1.51l-1.771,1.022v-2.045a4.126,4.126,0,0,0-4.125-4.126h-2.045l1.022-1.771a4.125,4.125,0,0,0-1.51-5.636l-1.771-1.022,1.771-1.022a4.126,4.126,0,0,0,1.51-5.636l-1.022-1.771h2.045a4.125,4.125,0,0,0,4.125-4.126v-2.045l1.771,1.022a4.126,4.126,0,0,0,5.636-1.51l1.022-1.771,1.022,1.771a4.126,4.126,0,0,0,5.636,1.51l1.771-1.022v2.045a4.126,4.126,0,0,0,4.126,4.126h2.045l-1.022,1.771a4.125,4.125,0,0,0,1.51,5.636l1.771,1.022Z" transform="translate(-893.655 -1174.455)"/></g><g transform="translate(925.702 3680.071)"><ellipse class="a" cx="9.726" cy="9.726" rx="9.726" ry="9.726" transform="translate(9.302 9.549)"/><path class="b" d="M916,1174.641a17.534,17.534,0,0,0-3.717-.154,30.13,30.13,0,0,0-3.347.391c-9.09,1.808-14.229,8.3-15.277,19.479.839,11.723,7.137,18.008,18.811,18.686,11.988-.449,18.495-6.737,19.34-18.822C931.384,1184.1,926.275,1176.479,916,1174.641Zm11.773,20.112a4.126,4.126,0,0,0-1.51,5.636l1.023,1.771h-2.045a4.126,4.126,0,0,0-4.126,4.126v2.045l-1.771-1.022a4.126,4.126,0,0,0-5.636,1.51l-1.022,1.771-1.022-1.771a4.126,4.126,0,0,0-5.636-1.51l-1.771,1.022v-2.045a4.126,4.126,0,0,0-4.125-4.126h-2.045l1.022-1.771a4.125,4.125,0,0,0-1.51-5.636l-1.771-1.022,1.771-1.022a4.126,4.126,0,0,0,1.51-5.636l-1.022-1.771h2.045a4.125,4.125,0,0,0,4.125-4.126v-2.045l1.771,1.022a4.126,4.126,0,0,0,5.636-1.51l1.022-1.771,1.022,1.771a4.126,4.126,0,0,0,5.636,1.51l1.771-1.022v2.045a4.126,4.126,0,0,0,4.126,4.126h2.045l-1.022,1.771a4.125,4.125,0,0,0,1.51,5.636l1.771,1.022Z" transform="translate(-893.655 -1174.455)"/></g><g transform="translate(1314.053 3680.071)"><ellipse class="a" cx="9.726" cy="9.726" rx="9.726" ry="9.726" transform="translate(9.302 9.549)"/><path class="b" d="M916,1174.641a17.534,17.534,0,0,0-3.717-.154,30.13,30.13,0,0,0-3.347.391c-9.09,1.808-14.229,8.3-15.277,19.479.839,11.723,7.137,18.008,18.811,18.686,11.988-.449,18.495-6.737,19.34-18.822C931.384,1184.1,926.275,1176.479,916,1174.641Zm11.773,20.112a4.126,4.126,0,0,0-1.51,5.636l1.023,1.771h-2.045a4.126,4.126,0,0,0-4.126,4.126v2.045l-1.771-1.022a4.126,4.126,0,0,0-5.636,1.51l-1.022,1.771-1.022-1.771a4.126,4.126,0,0,0-5.636-1.51l-1.771,1.022v-2.045a4.126,4.126,0,0,0-4.125-4.126h-2.045l1.022-1.771a4.125,4.125,0,0,0-1.51-5.636l-1.771-1.022,1.771-1.022a4.126,4.126,0,0,0,1.51-5.636l-1.022-1.771h2.045a4.125,4.125,0,0,0,4.125-4.126v-2.045l1.771,1.022a4.126,4.126,0,0,0,5.636-1.51l1.022-1.771,1.022,1.771a4.126,4.126,0,0,0,5.636,1.51l1.771-1.022v2.045a4.126,4.126,0,0,0,4.126,4.126h2.045l-1.022,1.771a4.125,4.125,0,0,0,1.51,5.636l1.771,1.022Z" transform="translate(-893.655 -1174.455)"/></g><g transform="translate(1700.573 3680.071)"><ellipse class="a" cx="9.726" cy="9.726" rx="9.726" ry="9.726" transform="translate(9.302 9.549)"/><path class="b" d="M916,1174.641a17.534,17.534,0,0,0-3.717-.154,30.13,30.13,0,0,0-3.347.391c-9.09,1.808-14.229,8.3-15.277,19.479.839,11.723,7.137,18.008,18.811,18.686,11.988-.449,18.495-6.737,19.34-18.822C931.384,1184.1,926.275,1176.479,916,1174.641Zm11.773,20.112a4.126,4.126,0,0,0-1.51,5.636l1.023,1.771h-2.045a4.126,4.126,0,0,0-4.126,4.126v2.045l-1.771-1.022a4.126,4.126,0,0,0-5.636,1.51l-1.022,1.771-1.022-1.771a4.126,4.126,0,0,0-5.636-1.51l-1.771,1.022v-2.045a4.126,4.126,0,0,0-4.125-4.126h-2.045l1.022-1.771a4.125,4.125,0,0,0-1.51-5.636l-1.771-1.022,1.771-1.022a4.126,4.126,0,0,0,1.51-5.636l-1.022-1.771h2.045a4.125,4.125,0,0,0,4.125-4.126v-2.045l1.771,1.022a4.126,4.126,0,0,0,5.636-1.51l1.022-1.771,1.022,1.771a4.126,4.126,0,0,0,5.636,1.51l1.771-1.022v2.045a4.126,4.126,0,0,0,4.126,4.126h2.045l-1.022,1.771a4.125,4.125,0,0,0,1.51,5.636l1.771,1.022Z" transform="translate(-893.655 -1174.455)"/></g><g transform="translate(189.301 3683.733)"><ellipse class="a" cx="5.394" cy="4.942" rx="5.394" ry="4.942" transform="matrix(0.722, -0.691, 0.691, 0.722, 130.826, 16.485)"/><path class="b" d="M361.631,193.6a8.952,8.952,0,0,1-4.021.646,71.168,71.168,0,0,1-7.27-.162,11.6,11.6,0,0,0-1.324-.14c-2.739.178-3.227,1.887-3.247,3.112-.071.817.358,1.106.747,1.106a7.208,7.208,0,0,0,3.113-.7c3.116-.875,4.107-.427,4.416-.007a4.349,4.349,0,0,1-.968,2.891c-1.2,1.446-3.546,2.4-6.906,2.386-4.974-.014-7.174-3.06-6.606-8.235.75-6.831,3.884-10.537,8.971-10.861,3.012-.192,5.335,1.678,7.076,5.384l.067.107a1.535,1.535,0,0,0,1.346.648,3.089,3.089,0,0,0,2.728-1.831,1.964,1.964,0,0,0,.055-.428c.044-.5-.949-1.943-1-2.056-1.767-3.09-5.115-4.777-10.007-5.013-7.587.474-12.148,5.185-13.561,14.052-.657,7.511,2.9,11.379,10.6,11.5a12.806,12.806,0,0,0,8.32-3.105l-.027.4c.145,1.915,1.131,2.755,1.938,2.531a2.284,2.284,0,0,0,1.857-2.124l-.005-.157a9.406,9.406,0,0,1-.093-4.428c.035-.155.192-.892.227-1.02,2.594-.436,4.022-1.6,4.5-3.514,0,0,.251-1.061.106-1.208-.124-.126-.708.1-.708.1Z" transform="translate(-335.166 -179.083)"/><path class="b" d="M445.487,196.712a9.2,9.2,0,0,0-1.966-.082,16.552,16.552,0,0,0-1.795.208c-4.909.96-7.938,4.4-9.014,10.34-.1,6.223,2.952,9.559,9.118,9.919,6.384-.239,10.131-3.576,11.141-9.991C453.216,201.732,450.859,197.688,445.487,196.712Zm4.134,10.406c-.786,4.32-3.249,6.47-7.474,6.574-4.256-.319-6.246-2.474-6.086-6.559.388-4.43,2.863-6.687,7.517-6.9C447.819,200.445,449.8,202.7,449.621,207.118Z" transform="translate(-404.19 -190.52)"/><path class="b" d="M516.067,175.786l-.077-.014-.08.007a2.95,2.95,0,0,0-2.85,2.977c-.159,1.812.692,2.811,2.394,2.811A2.932,2.932,0,0,0,518.5,178.8l.012-.072-.005-.072A2.865,2.865,0,0,0,516.067,175.786Z" transform="translate(-461.034 -175.772)"/><path class="b" d="M515.211,202.41a5.625,5.625,0,0,0,.019-1.226c-.344-1.2-2.35-1.89-3.349-1.925a1.461,1.461,0,0,0-1.4,1.287c-.247,2.415.75,5.193.2,9.236-.127.933-.418,2.607-.778,4.964-.316,2.071-.372,2.2-.373,2.338-.011,1.185.684,2.225,1.874,2.05a3.272,3.272,0,0,0,2.662-3.394,49.2,49.2,0,0,1,.009-5.884c.128-1.456.3-2.734.566-4.529A17.565,17.565,0,0,1,515.211,202.41Z" transform="translate(-458.553 -192.391)"/><path class="b" d="M550.366,197.35a13.993,13.993,0,0,0-7.716,3.062c.039-.168.08-.336.119-.508l.019-.079,0-.08c-.031-.839-.475-1.877-2.4-2.053l-.1-.009-.1.025a2.165,2.165,0,0,0-1.842,2.282s.284,4.534.189,5.622c-.265,3.033-.522,5.31-.766,6.813a37.749,37.749,0,0,1-.528,4.089,1.041,1.041,0,0,0,.322.981,1.992,1.992,0,0,0,.8.12c2.659-.2,3.332-1.739,3.273-2.63a4.356,4.356,0,0,1-.064-1.23c.116-3.836.321-6.857.609-8.985a10.331,10.331,0,0,1,7.96-4.35c3.361.432,4.9,2.3,4.708,5.678-.361,2.836-.683,5.218-.969,7.179l-.268,3.067a1.081,1.081,0,0,0,1.391,1.274c1.959-.175,2.583-1.212,2.773-2.148.155-3.056.373-6.2.65-9.373C558.659,200.535,555.974,197.593,550.366,197.35Z" transform="translate(-478.148 -191.041)"/><path class="b" d="M854.377,197.211c.094-2.349.216-4.4.361-6.066a37.127,37.127,0,0,1,.888-4.3l.022-.258a8.388,8.388,0,0,0,.527-2.126l-.02-.21c-.322-1.118-1.335-1.819-3.009-2.083l-.129-.02-.13.036c-1.59.448-1.652,1.466-1.6,1.884l.008.054a18.65,18.65,0,0,1,.3,4.124c-.046,1.815-.2,4.267-.468,7.287-.107,1.223-.41,3.387-.907,6.474l-.194,2.32c.175,1.865,1.136,2.49,1.912,2.686l.132.034.139-.03c.913-.2,2.077-.895,2.438-3.091l.017-.1-.019-.1A23.811,23.811,0,0,1,854.377,197.211Z" transform="translate(-699.486 -180.285)"/><path class="b" d="M894.565,207.939c.131-2.664.89-5.573.945-7.428.037-1.244-.549-1.676-1.846-1.748-.657-.037-1.641-.414-1.782,1.29l.033.539a9.455,9.455,0,0,0-5.7-2.08c-5.551.359-8.816,3.816-9.71,10.317-.419,6.017,2.209,9.25,7.82,9.612.125.006.249.008.374.008a9.809,9.809,0,0,0,6.25-2.527l-.049.561c-.079.906.437,1.405,1.415,1.44a3.066,3.066,0,0,0,2.714-2.973l-.01-.178A34.146,34.146,0,0,1,894.565,207.939Zm-3.285,4.056a10.005,10.005,0,0,1-6.611,3.384c-3.586-.42-5.251-2.577-5.1-6.5.768-4.383,2.886-6.772,6.389-7.3a5.627,5.627,0,0,1,5.594,3.983Z" transform="translate(-718.195 -191.863)"/><path class="b" d="M968.946,201.15a7.016,7.016,0,0,0-4.729-1.837A9.587,9.587,0,0,0,957.5,202.9a11.027,11.027,0,0,1,.283-1.55,9.38,9.38,0,0,0,.325-1.948,1.74,1.74,0,0,0-1.6-.713,2.974,2.974,0,0,0-2.373,1.184,2.933,2.933,0,0,0-.078.892s.19,3.227.133,5.012c-.059,1.818-.788,8.81-1.042,10.594a2.1,2.1,0,0,0,.213,1.55,1.975,1.975,0,0,0,1.571.812l.161-.012a2.443,2.443,0,0,0,2.078-2.649c.01-.22-.02-.913-.02-.913a39.624,39.624,0,0,1,.26-8.052c1.846-2.717,3.862-4.4,6.271-4.3a3.911,3.911,0,0,1,2.71,1.75c.351.439.66.713,1.084.684a1.821,1.821,0,0,0,1.3-.922A2.668,2.668,0,0,0,968.946,201.15Z" transform="translate(-772.426 -191.984)"/><ellipse class="a" cx="4.211" cy="3.858" rx="4.211" ry="3.858" transform="matrix(0.722, -0.691, 0.691, 0.722, 32.966, 16.46)"/><path class="b" d="M785.757,196.712a9.2,9.2,0,0,0-1.966-.082,16.551,16.551,0,0,0-1.795.208c-4.909.96-7.938,4.4-9.014,10.34-.1,6.223,2.953,9.559,9.118,9.919,6.384-.239,10.13-3.576,11.141-9.991C793.485,201.732,791.128,197.688,785.757,196.712Zm5.316,10.676a2.325,2.325,0,0,0-1.063,2.992l.461.94h-1.086A2.438,2.438,0,0,0,787,213.51l-.1,1.085-.893-.543a2.307,2.307,0,0,0-3.062.8l-.625.94-.46-.94a2.076,2.076,0,0,0-2.922-.8l-.987.543.095-1.085a1.975,1.975,0,0,0-2-2.19H774.97l.625-.94a2.093,2.093,0,0,0-.54-2.992l-.893-.543.988-.543a2.326,2.326,0,0,0,1.063-2.991l-.461-.94h1.086a2.438,2.438,0,0,0,2.382-2.19l.1-1.086.892.543a2.308,2.308,0,0,0,3.062-.8l.625-.94.461.94a2.076,2.076,0,0,0,2.921.8l.988-.543-.1,1.086a1.975,1.975,0,0,0,2,2.19h1.086l-.625.94a2.093,2.093,0,0,0,.54,2.991l.893.543Z" transform="translate(-644.971 -190.52)"/><path class="b" d="M634.758,197.355a2.163,2.163,0,0,0-1.974,1.519s-.053,1.009-.082,1.362a10.323,10.323,0,0,0-6.77-2.42c-6.027.242-9.3,3.727-10.218,10.361-.264,5.564,2.455,8.478,8.551,8.718a11.619,11.619,0,0,0,7.229-1.93,4.674,4.674,0,0,1-.6,2.1c-1.148,2.164-3.436,3.107-7.017,2.9-3.7-.109-5.726-.924-7.332-3.065a1.23,1.23,0,0,0-.813-.351,1.2,1.2,0,0,0-.8,1.027,4.5,4.5,0,0,0,.945,3.791c1.09,1.277,3.038,1.907,5.9,1.907.565,0,1.167-.048,1.8-.073,6.32-.249,8.609-1.546,10.278-4.692a9.215,9.215,0,0,0,.5-1.923c.115-.3.368-2.67.368-2.67-.026-.258.442-8.139.783-10.849a11.518,11.518,0,0,1,.483-1.638,6.1,6.1,0,0,0,.465-2.467C636.392,198.2,636.2,197.523,634.758,197.355Zm-2.444,8.233-.407,4.647a1.278,1.278,0,0,1-.446.871,10.748,10.748,0,0,1-7,2.557c-3.916-.425-5.524-2.251-5.522-5.6.647-4.019,2.66-6.241,6.667-6.666,3.141.2,5.321,1.268,6.493,3.188A1.663,1.663,0,0,1,632.315,205.589Z" transform="translate(-533.078 -191.041)"/><path class="b" d="M704.015,190.683c-3.827-.1-5.8-1.234-5.872-3.285.075-.858.3-3.468,4.835-3.62a21.1,21.1,0,0,1,5.122,1.166,11.9,11.9,0,0,0,2.627.515c.953-.1,1.85-.514,2.66-3.561,0,0,.4-1.465.135-1.62a.778.778,0,0,0-.784.163c-.143.108-.547.48-.547.48a1.311,1.311,0,0,1-.331.228,2.194,2.194,0,0,1-.634.285,15.354,15.354,0,0,1-4.828-.171,19.541,19.541,0,0,0-3.164-.514h0c-3.09.069-5.357.88-6.739,2.41a6.817,6.817,0,0,0-1.624,4.443c-.16,4.279,2.814,6.448,8.828,6.448,4.385.1,6.548,1.331,6.435,3.6-.363,3.13-2.554,4.651-6.7,4.651-3.607,0-7.825-2.179-9.244-4.192-.119-.359-.465-1.366-1.038-1.286-.474.066-.7,1.474-.7,1.474a5.351,5.351,0,0,0,.786,4.039c1.47,2.086,4.7,3.176,9.9,3.33,3.871,0,6.719-.935,8.465-2.777a8.193,8.193,0,0,0,2.084-5.253C713.862,193.141,710.607,190.8,704.015,190.683Z" transform="translate(-587.924 -178.92)"/></g><g transform="translate(575.82 3683.733)"><ellipse class="a" cx="5.394" cy="4.942" rx="5.394" ry="4.942" transform="matrix(0.722, -0.691, 0.691, 0.722, 130.826, 16.485)"/><path class="b" d="M361.631,193.6a8.952,8.952,0,0,1-4.021.646,71.168,71.168,0,0,1-7.27-.162,11.6,11.6,0,0,0-1.324-.14c-2.739.178-3.227,1.887-3.247,3.112-.071.817.358,1.106.747,1.106a7.208,7.208,0,0,0,3.113-.7c3.116-.875,4.107-.427,4.416-.007a4.349,4.349,0,0,1-.968,2.891c-1.2,1.446-3.546,2.4-6.906,2.386-4.974-.014-7.174-3.06-6.606-8.235.75-6.831,3.884-10.537,8.971-10.861,3.012-.192,5.335,1.678,7.076,5.384l.067.107a1.535,1.535,0,0,0,1.346.648,3.089,3.089,0,0,0,2.728-1.831,1.964,1.964,0,0,0,.055-.428c.044-.5-.949-1.943-1-2.056-1.767-3.09-5.115-4.777-10.007-5.013-7.587.474-12.148,5.185-13.561,14.052-.657,7.511,2.9,11.379,10.6,11.5a12.806,12.806,0,0,0,8.32-3.105l-.027.4c.145,1.915,1.131,2.755,1.938,2.531a2.284,2.284,0,0,0,1.857-2.124l-.005-.157a9.406,9.406,0,0,1-.093-4.428c.035-.155.192-.892.227-1.02,2.594-.436,4.022-1.6,4.5-3.514,0,0,.251-1.061.106-1.208-.124-.126-.708.1-.708.1Z" transform="translate(-335.166 -179.083)"/><path class="b" d="M445.487,196.712a9.2,9.2,0,0,0-1.966-.082,16.552,16.552,0,0,0-1.795.208c-4.909.96-7.938,4.4-9.014,10.34-.1,6.223,2.952,9.559,9.118,9.919,6.384-.239,10.131-3.576,11.141-9.991C453.216,201.732,450.859,197.688,445.487,196.712Zm4.134,10.406c-.786,4.32-3.249,6.47-7.474,6.574-4.256-.319-6.246-2.474-6.086-6.559.388-4.43,2.863-6.687,7.517-6.9C447.819,200.445,449.8,202.7,449.621,207.118Z" transform="translate(-404.19 -190.52)"/><path class="b" d="M516.067,175.786l-.077-.014-.08.007a2.95,2.95,0,0,0-2.85,2.977c-.159,1.812.692,2.811,2.394,2.811A2.932,2.932,0,0,0,518.5,178.8l.012-.072-.005-.072A2.865,2.865,0,0,0,516.067,175.786Z" transform="translate(-461.034 -175.772)"/><path class="b" d="M515.211,202.41a5.625,5.625,0,0,0,.019-1.226c-.344-1.2-2.35-1.89-3.349-1.925a1.461,1.461,0,0,0-1.4,1.287c-.247,2.415.75,5.193.2,9.236-.127.933-.418,2.607-.778,4.964-.316,2.071-.372,2.2-.373,2.338-.011,1.185.684,2.225,1.874,2.05a3.272,3.272,0,0,0,2.662-3.394,49.2,49.2,0,0,1,.009-5.884c.128-1.456.3-2.734.566-4.529A17.565,17.565,0,0,1,515.211,202.41Z" transform="translate(-458.553 -192.391)"/><path class="b" d="M550.366,197.35a13.993,13.993,0,0,0-7.716,3.062c.039-.168.08-.336.119-.508l.019-.079,0-.08c-.031-.839-.475-1.877-2.4-2.053l-.1-.009-.1.025a2.165,2.165,0,0,0-1.842,2.282s.284,4.534.189,5.622c-.265,3.033-.522,5.31-.766,6.813a37.749,37.749,0,0,1-.528,4.089,1.041,1.041,0,0,0,.322.981,1.992,1.992,0,0,0,.8.12c2.659-.2,3.332-1.739,3.273-2.63a4.356,4.356,0,0,1-.064-1.23c.116-3.836.321-6.857.609-8.985a10.331,10.331,0,0,1,7.96-4.35c3.361.432,4.9,2.3,4.708,5.678-.361,2.836-.683,5.218-.969,7.179l-.268,3.067a1.081,1.081,0,0,0,1.391,1.274c1.959-.175,2.583-1.212,2.773-2.148.155-3.056.373-6.2.65-9.373C558.659,200.535,555.974,197.593,550.366,197.35Z" transform="translate(-478.148 -191.041)"/><path class="b" d="M854.377,197.211c.094-2.349.216-4.4.361-6.066a37.127,37.127,0,0,1,.888-4.3l.022-.258a8.388,8.388,0,0,0,.527-2.126l-.02-.21c-.322-1.118-1.335-1.819-3.009-2.083l-.129-.02-.13.036c-1.59.448-1.652,1.466-1.6,1.884l.008.054a18.65,18.65,0,0,1,.3,4.124c-.046,1.815-.2,4.267-.468,7.287-.107,1.223-.41,3.387-.907,6.474l-.194,2.32c.175,1.865,1.136,2.49,1.912,2.686l.132.034.139-.03c.913-.2,2.077-.895,2.438-3.091l.017-.1-.019-.1A23.811,23.811,0,0,1,854.377,197.211Z" transform="translate(-699.486 -180.285)"/><path class="b" d="M894.565,207.939c.131-2.664.89-5.573.945-7.428.037-1.244-.549-1.676-1.846-1.748-.657-.037-1.641-.414-1.782,1.29l.033.539a9.455,9.455,0,0,0-5.7-2.08c-5.551.359-8.816,3.816-9.71,10.317-.419,6.017,2.209,9.25,7.82,9.612.125.006.249.008.374.008a9.809,9.809,0,0,0,6.25-2.527l-.049.561c-.079.906.437,1.405,1.415,1.44a3.066,3.066,0,0,0,2.714-2.973l-.01-.178A34.146,34.146,0,0,1,894.565,207.939Zm-3.285,4.056a10.005,10.005,0,0,1-6.611,3.384c-3.586-.42-5.251-2.577-5.1-6.5.768-4.383,2.886-6.772,6.389-7.3a5.627,5.627,0,0,1,5.594,3.983Z" transform="translate(-718.195 -191.863)"/><path class="b" d="M968.946,201.15a7.016,7.016,0,0,0-4.729-1.837A9.587,9.587,0,0,0,957.5,202.9a11.027,11.027,0,0,1,.283-1.55,9.38,9.38,0,0,0,.325-1.948,1.74,1.74,0,0,0-1.6-.713,2.974,2.974,0,0,0-2.373,1.184,2.933,2.933,0,0,0-.078.892s.19,3.227.133,5.012c-.059,1.818-.788,8.81-1.042,10.594a2.1,2.1,0,0,0,.213,1.55,1.975,1.975,0,0,0,1.571.812l.161-.012a2.443,2.443,0,0,0,2.078-2.649c.01-.22-.02-.913-.02-.913a39.624,39.624,0,0,1,.26-8.052c1.846-2.717,3.862-4.4,6.271-4.3a3.911,3.911,0,0,1,2.71,1.75c.351.439.66.713,1.084.684a1.821,1.821,0,0,0,1.3-.922A2.668,2.668,0,0,0,968.946,201.15Z" transform="translate(-772.426 -191.984)"/><ellipse class="a" cx="4.211" cy="3.858" rx="4.211" ry="3.858" transform="matrix(0.722, -0.691, 0.691, 0.722, 32.966, 16.46)"/><path class="b" d="M785.757,196.712a9.2,9.2,0,0,0-1.966-.082,16.551,16.551,0,0,0-1.795.208c-4.909.96-7.938,4.4-9.014,10.34-.1,6.223,2.953,9.559,9.118,9.919,6.384-.239,10.13-3.576,11.141-9.991C793.485,201.732,791.128,197.688,785.757,196.712Zm5.316,10.676a2.325,2.325,0,0,0-1.063,2.992l.461.94h-1.086A2.438,2.438,0,0,0,787,213.51l-.1,1.085-.893-.543a2.307,2.307,0,0,0-3.062.8l-.625.94-.46-.94a2.076,2.076,0,0,0-2.922-.8l-.987.543.095-1.085a1.975,1.975,0,0,0-2-2.19H774.97l.625-.94a2.093,2.093,0,0,0-.54-2.992l-.893-.543.988-.543a2.326,2.326,0,0,0,1.063-2.991l-.461-.94h1.086a2.438,2.438,0,0,0,2.382-2.19l.1-1.086.892.543a2.308,2.308,0,0,0,3.062-.8l.625-.94.461.94a2.076,2.076,0,0,0,2.921.8l.988-.543-.1,1.086a1.975,1.975,0,0,0,2,2.19h1.086l-.625.94a2.093,2.093,0,0,0,.54,2.991l.893.543Z" transform="translate(-644.971 -190.52)"/><path class="b" d="M634.758,197.355a2.163,2.163,0,0,0-1.974,1.519s-.053,1.009-.082,1.362a10.323,10.323,0,0,0-6.77-2.42c-6.027.242-9.3,3.727-10.218,10.361-.264,5.564,2.455,8.478,8.551,8.718a11.619,11.619,0,0,0,7.229-1.93,4.674,4.674,0,0,1-.6,2.1c-1.148,2.164-3.436,3.107-7.017,2.9-3.7-.109-5.726-.924-7.332-3.065a1.23,1.23,0,0,0-.813-.351,1.2,1.2,0,0,0-.8,1.027,4.5,4.5,0,0,0,.945,3.791c1.09,1.277,3.038,1.907,5.9,1.907.565,0,1.167-.048,1.8-.073,6.32-.249,8.609-1.546,10.278-4.692a9.215,9.215,0,0,0,.5-1.923c.115-.3.368-2.67.368-2.67-.026-.258.442-8.139.783-10.849a11.518,11.518,0,0,1,.483-1.638,6.1,6.1,0,0,0,.465-2.467C636.392,198.2,636.2,197.523,634.758,197.355Zm-2.444,8.233-.407,4.647a1.278,1.278,0,0,1-.446.871,10.748,10.748,0,0,1-7,2.557c-3.916-.425-5.524-2.251-5.522-5.6.647-4.019,2.66-6.241,6.667-6.666,3.141.2,5.321,1.268,6.493,3.188A1.663,1.663,0,0,1,632.315,205.589Z" transform="translate(-533.078 -191.041)"/><path class="b" d="M704.015,190.683c-3.827-.1-5.8-1.234-5.872-3.285.075-.858.3-3.468,4.835-3.62a21.1,21.1,0,0,1,5.122,1.166,11.9,11.9,0,0,0,2.627.515c.953-.1,1.85-.514,2.66-3.561,0,0,.4-1.465.135-1.62a.778.778,0,0,0-.784.163c-.143.108-.547.48-.547.48a1.311,1.311,0,0,1-.331.228,2.194,2.194,0,0,1-.634.285,15.354,15.354,0,0,1-4.828-.171,19.541,19.541,0,0,0-3.164-.514h0c-3.09.069-5.357.88-6.739,2.41a6.817,6.817,0,0,0-1.624,4.443c-.16,4.279,2.814,6.448,8.828,6.448,4.385.1,6.548,1.331,6.435,3.6-.363,3.13-2.554,4.651-6.7,4.651-3.607,0-7.825-2.179-9.244-4.192-.119-.359-.465-1.366-1.038-1.286-.474.066-.7,1.474-.7,1.474a5.351,5.351,0,0,0,.786,4.039c1.47,2.086,4.7,3.176,9.9,3.33,3.871,0,6.719-.935,8.465-2.777a8.193,8.193,0,0,0,2.084-5.253C713.862,193.141,710.607,190.8,704.015,190.683Z" transform="translate(-587.924 -178.92)"/></g><g transform="translate(964.172 3683.733)"><ellipse class="a" cx="5.394" cy="4.942" rx="5.394" ry="4.942" transform="matrix(0.722, -0.691, 0.691, 0.722, 130.826, 16.485)"/><path class="b" d="M361.631,193.6a8.952,8.952,0,0,1-4.021.646,71.168,71.168,0,0,1-7.27-.162,11.6,11.6,0,0,0-1.324-.14c-2.739.178-3.227,1.887-3.247,3.112-.071.817.358,1.106.747,1.106a7.208,7.208,0,0,0,3.113-.7c3.116-.875,4.107-.427,4.416-.007a4.349,4.349,0,0,1-.968,2.891c-1.2,1.446-3.546,2.4-6.906,2.386-4.974-.014-7.174-3.06-6.606-8.235.75-6.831,3.884-10.537,8.971-10.861,3.012-.192,5.335,1.678,7.076,5.384l.067.107a1.535,1.535,0,0,0,1.346.648,3.089,3.089,0,0,0,2.728-1.831,1.964,1.964,0,0,0,.055-.428c.044-.5-.949-1.943-1-2.056-1.767-3.09-5.115-4.777-10.007-5.013-7.587.474-12.148,5.185-13.561,14.052-.657,7.511,2.9,11.379,10.6,11.5a12.806,12.806,0,0,0,8.32-3.105l-.027.4c.145,1.915,1.131,2.755,1.938,2.531a2.284,2.284,0,0,0,1.857-2.124l-.005-.157a9.406,9.406,0,0,1-.093-4.428c.035-.155.192-.892.227-1.02,2.594-.436,4.022-1.6,4.5-3.514,0,0,.251-1.061.106-1.208-.124-.126-.708.1-.708.1Z" transform="translate(-335.166 -179.083)"/><path class="b" d="M445.487,196.712a9.2,9.2,0,0,0-1.966-.082,16.552,16.552,0,0,0-1.795.208c-4.909.96-7.938,4.4-9.014,10.34-.1,6.223,2.952,9.559,9.118,9.919,6.384-.239,10.131-3.576,11.141-9.991C453.216,201.732,450.859,197.688,445.487,196.712Zm4.134,10.406c-.786,4.32-3.249,6.47-7.474,6.574-4.256-.319-6.246-2.474-6.086-6.559.388-4.43,2.863-6.687,7.517-6.9C447.819,200.445,449.8,202.7,449.621,207.118Z" transform="translate(-404.19 -190.52)"/><path class="b" d="M516.067,175.786l-.077-.014-.08.007a2.95,2.95,0,0,0-2.85,2.977c-.159,1.812.692,2.811,2.394,2.811A2.932,2.932,0,0,0,518.5,178.8l.012-.072-.005-.072A2.865,2.865,0,0,0,516.067,175.786Z" transform="translate(-461.034 -175.772)"/><path class="b" d="M515.211,202.41a5.625,5.625,0,0,0,.019-1.226c-.344-1.2-2.35-1.89-3.349-1.925a1.461,1.461,0,0,0-1.4,1.287c-.247,2.415.75,5.193.2,9.236-.127.933-.418,2.607-.778,4.964-.316,2.071-.372,2.2-.373,2.338-.011,1.185.684,2.225,1.874,2.05a3.272,3.272,0,0,0,2.662-3.394,49.2,49.2,0,0,1,.009-5.884c.128-1.456.3-2.734.566-4.529A17.565,17.565,0,0,1,515.211,202.41Z" transform="translate(-458.553 -192.391)"/><path class="b" d="M550.366,197.35a13.993,13.993,0,0,0-7.716,3.062c.039-.168.08-.336.119-.508l.019-.079,0-.08c-.031-.839-.475-1.877-2.4-2.053l-.1-.009-.1.025a2.165,2.165,0,0,0-1.842,2.282s.284,4.534.189,5.622c-.265,3.033-.522,5.31-.766,6.813a37.749,37.749,0,0,1-.528,4.089,1.041,1.041,0,0,0,.322.981,1.992,1.992,0,0,0,.8.12c2.659-.2,3.332-1.739,3.273-2.63a4.356,4.356,0,0,1-.064-1.23c.116-3.836.321-6.857.609-8.985a10.331,10.331,0,0,1,7.96-4.35c3.361.432,4.9,2.3,4.708,5.678-.361,2.836-.683,5.218-.969,7.179l-.268,3.067a1.081,1.081,0,0,0,1.391,1.274c1.959-.175,2.583-1.212,2.773-2.148.155-3.056.373-6.2.65-9.373C558.659,200.535,555.974,197.593,550.366,197.35Z" transform="translate(-478.148 -191.041)"/><path class="b" d="M854.377,197.211c.094-2.349.216-4.4.361-6.066a37.127,37.127,0,0,1,.888-4.3l.022-.258a8.388,8.388,0,0,0,.527-2.126l-.02-.21c-.322-1.118-1.335-1.819-3.009-2.083l-.129-.02-.13.036c-1.59.448-1.652,1.466-1.6,1.884l.008.054a18.65,18.65,0,0,1,.3,4.124c-.046,1.815-.2,4.267-.468,7.287-.107,1.223-.41,3.387-.907,6.474l-.194,2.32c.175,1.865,1.136,2.49,1.912,2.686l.132.034.139-.03c.913-.2,2.077-.895,2.438-3.091l.017-.1-.019-.1A23.811,23.811,0,0,1,854.377,197.211Z" transform="translate(-699.486 -180.285)"/><path class="b" d="M894.565,207.939c.131-2.664.89-5.573.945-7.428.037-1.244-.549-1.676-1.846-1.748-.657-.037-1.641-.414-1.782,1.29l.033.539a9.455,9.455,0,0,0-5.7-2.08c-5.551.359-8.816,3.816-9.71,10.317-.419,6.017,2.209,9.25,7.82,9.612.125.006.249.008.374.008a9.809,9.809,0,0,0,6.25-2.527l-.049.561c-.079.906.437,1.405,1.415,1.44a3.066,3.066,0,0,0,2.714-2.973l-.01-.178A34.146,34.146,0,0,1,894.565,207.939Zm-3.285,4.056a10.005,10.005,0,0,1-6.611,3.384c-3.586-.42-5.251-2.577-5.1-6.5.768-4.383,2.886-6.772,6.389-7.3a5.627,5.627,0,0,1,5.594,3.983Z" transform="translate(-718.195 -191.863)"/><path class="b" d="M968.946,201.15a7.016,7.016,0,0,0-4.729-1.837A9.587,9.587,0,0,0,957.5,202.9a11.027,11.027,0,0,1,.283-1.55,9.38,9.38,0,0,0,.325-1.948,1.74,1.74,0,0,0-1.6-.713,2.974,2.974,0,0,0-2.373,1.184,2.933,2.933,0,0,0-.078.892s.19,3.227.133,5.012c-.059,1.818-.788,8.81-1.042,10.594a2.1,2.1,0,0,0,.213,1.55,1.975,1.975,0,0,0,1.571.812l.161-.012a2.443,2.443,0,0,0,2.078-2.649c.01-.22-.02-.913-.02-.913a39.624,39.624,0,0,1,.26-8.052c1.846-2.717,3.862-4.4,6.271-4.3a3.911,3.911,0,0,1,2.71,1.75c.351.439.66.713,1.084.684a1.821,1.821,0,0,0,1.3-.922A2.668,2.668,0,0,0,968.946,201.15Z" transform="translate(-772.426 -191.984)"/><ellipse class="a" cx="4.211" cy="3.858" rx="4.211" ry="3.858" transform="matrix(0.722, -0.691, 0.691, 0.722, 32.966, 16.46)"/><path class="b" d="M785.757,196.712a9.2,9.2,0,0,0-1.966-.082,16.551,16.551,0,0,0-1.795.208c-4.909.96-7.938,4.4-9.014,10.34-.1,6.223,2.953,9.559,9.118,9.919,6.384-.239,10.13-3.576,11.141-9.991C793.485,201.732,791.128,197.688,785.757,196.712Zm5.316,10.676a2.325,2.325,0,0,0-1.063,2.992l.461.94h-1.086A2.438,2.438,0,0,0,787,213.51l-.1,1.085-.893-.543a2.307,2.307,0,0,0-3.062.8l-.625.94-.46-.94a2.076,2.076,0,0,0-2.922-.8l-.987.543.095-1.085a1.975,1.975,0,0,0-2-2.19H774.97l.625-.94a2.093,2.093,0,0,0-.54-2.992l-.893-.543.988-.543a2.326,2.326,0,0,0,1.063-2.991l-.461-.94h1.086a2.438,2.438,0,0,0,2.382-2.19l.1-1.086.892.543a2.308,2.308,0,0,0,3.062-.8l.625-.94.461.94a2.076,2.076,0,0,0,2.921.8l.988-.543-.1,1.086a1.975,1.975,0,0,0,2,2.19h1.086l-.625.94a2.093,2.093,0,0,0,.54,2.991l.893.543Z" transform="translate(-644.971 -190.52)"/><path class="b" d="M634.758,197.355a2.163,2.163,0,0,0-1.974,1.519s-.053,1.009-.082,1.362a10.323,10.323,0,0,0-6.77-2.42c-6.027.242-9.3,3.727-10.218,10.361-.264,5.564,2.455,8.478,8.551,8.718a11.619,11.619,0,0,0,7.229-1.93,4.674,4.674,0,0,1-.6,2.1c-1.148,2.164-3.436,3.107-7.017,2.9-3.7-.109-5.726-.924-7.332-3.065a1.23,1.23,0,0,0-.813-.351,1.2,1.2,0,0,0-.8,1.027,4.5,4.5,0,0,0,.945,3.791c1.09,1.277,3.038,1.907,5.9,1.907.565,0,1.167-.048,1.8-.073,6.32-.249,8.609-1.546,10.278-4.692a9.215,9.215,0,0,0,.5-1.923c.115-.3.368-2.67.368-2.67-.026-.258.442-8.139.783-10.849a11.518,11.518,0,0,1,.483-1.638,6.1,6.1,0,0,0,.465-2.467C636.392,198.2,636.2,197.523,634.758,197.355Zm-2.444,8.233-.407,4.647a1.278,1.278,0,0,1-.446.871,10.748,10.748,0,0,1-7,2.557c-3.916-.425-5.524-2.251-5.522-5.6.647-4.019,2.66-6.241,6.667-6.666,3.141.2,5.321,1.268,6.493,3.188A1.663,1.663,0,0,1,632.315,205.589Z" transform="translate(-533.078 -191.041)"/><path class="b" d="M704.015,190.683c-3.827-.1-5.8-1.234-5.872-3.285.075-.858.3-3.468,4.835-3.62a21.1,21.1,0,0,1,5.122,1.166,11.9,11.9,0,0,0,2.627.515c.953-.1,1.85-.514,2.66-3.561,0,0,.4-1.465.135-1.62a.778.778,0,0,0-.784.163c-.143.108-.547.48-.547.48a1.311,1.311,0,0,1-.331.228,2.194,2.194,0,0,1-.634.285,15.354,15.354,0,0,1-4.828-.171,19.541,19.541,0,0,0-3.164-.514h0c-3.09.069-5.357.88-6.739,2.41a6.817,6.817,0,0,0-1.624,4.443c-.16,4.279,2.814,6.448,8.828,6.448,4.385.1,6.548,1.331,6.435,3.6-.363,3.13-2.554,4.651-6.7,4.651-3.607,0-7.825-2.179-9.244-4.192-.119-.359-.465-1.366-1.038-1.286-.474.066-.7,1.474-.7,1.474a5.351,5.351,0,0,0,.786,4.039c1.47,2.086,4.7,3.176,9.9,3.33,3.871,0,6.719-.935,8.465-2.777a8.193,8.193,0,0,0,2.084-5.253C713.862,193.141,710.607,190.8,704.015,190.683Z" transform="translate(-587.924 -178.92)"/></g><g transform="translate(1352.522 3683.733)"><ellipse class="a" cx="5.394" cy="4.942" rx="5.394" ry="4.942" transform="matrix(0.722, -0.691, 0.691, 0.722, 130.826, 16.485)"/><path class="b" d="M361.631,193.6a8.952,8.952,0,0,1-4.021.646,71.168,71.168,0,0,1-7.27-.162,11.6,11.6,0,0,0-1.324-.14c-2.739.178-3.227,1.887-3.247,3.112-.071.817.358,1.106.747,1.106a7.208,7.208,0,0,0,3.113-.7c3.116-.875,4.107-.427,4.416-.007a4.349,4.349,0,0,1-.968,2.891c-1.2,1.446-3.546,2.4-6.906,2.386-4.974-.014-7.174-3.06-6.606-8.235.75-6.831,3.884-10.537,8.971-10.861,3.012-.192,5.335,1.678,7.076,5.384l.067.107a1.535,1.535,0,0,0,1.346.648,3.089,3.089,0,0,0,2.728-1.831,1.964,1.964,0,0,0,.055-.428c.044-.5-.949-1.943-1-2.056-1.767-3.09-5.115-4.777-10.007-5.013-7.587.474-12.148,5.185-13.561,14.052-.657,7.511,2.9,11.379,10.6,11.5a12.806,12.806,0,0,0,8.32-3.105l-.027.4c.145,1.915,1.131,2.755,1.938,2.531a2.284,2.284,0,0,0,1.857-2.124l-.005-.157a9.406,9.406,0,0,1-.093-4.428c.035-.155.192-.892.227-1.02,2.594-.436,4.022-1.6,4.5-3.514,0,0,.251-1.061.106-1.208-.124-.126-.708.1-.708.1Z" transform="translate(-335.166 -179.083)"/><path class="b" d="M445.487,196.712a9.2,9.2,0,0,0-1.966-.082,16.552,16.552,0,0,0-1.795.208c-4.909.96-7.938,4.4-9.014,10.34-.1,6.223,2.952,9.559,9.118,9.919,6.384-.239,10.131-3.576,11.141-9.991C453.216,201.732,450.859,197.688,445.487,196.712Zm4.134,10.406c-.786,4.32-3.249,6.47-7.474,6.574-4.256-.319-6.246-2.474-6.086-6.559.388-4.43,2.863-6.687,7.517-6.9C447.819,200.445,449.8,202.7,449.621,207.118Z" transform="translate(-404.19 -190.52)"/><path class="b" d="M516.067,175.786l-.077-.014-.08.007a2.95,2.95,0,0,0-2.85,2.977c-.159,1.812.692,2.811,2.394,2.811A2.932,2.932,0,0,0,518.5,178.8l.012-.072-.005-.072A2.865,2.865,0,0,0,516.067,175.786Z" transform="translate(-461.034 -175.772)"/><path class="b" d="M515.211,202.41a5.625,5.625,0,0,0,.019-1.226c-.344-1.2-2.35-1.89-3.349-1.925a1.461,1.461,0,0,0-1.4,1.287c-.247,2.415.75,5.193.2,9.236-.127.933-.418,2.607-.778,4.964-.316,2.071-.372,2.2-.373,2.338-.011,1.185.684,2.225,1.874,2.05a3.272,3.272,0,0,0,2.662-3.394,49.2,49.2,0,0,1,.009-5.884c.128-1.456.3-2.734.566-4.529A17.565,17.565,0,0,1,515.211,202.41Z" transform="translate(-458.553 -192.391)"/><path class="b" d="M550.366,197.35a13.993,13.993,0,0,0-7.716,3.062c.039-.168.08-.336.119-.508l.019-.079,0-.08c-.031-.839-.475-1.877-2.4-2.053l-.1-.009-.1.025a2.165,2.165,0,0,0-1.842,2.282s.284,4.534.189,5.622c-.265,3.033-.522,5.31-.766,6.813a37.749,37.749,0,0,1-.528,4.089,1.041,1.041,0,0,0,.322.981,1.992,1.992,0,0,0,.8.12c2.659-.2,3.332-1.739,3.273-2.63a4.356,4.356,0,0,1-.064-1.23c.116-3.836.321-6.857.609-8.985a10.331,10.331,0,0,1,7.96-4.35c3.361.432,4.9,2.3,4.708,5.678-.361,2.836-.683,5.218-.969,7.179l-.268,3.067a1.081,1.081,0,0,0,1.391,1.274c1.959-.175,2.583-1.212,2.773-2.148.155-3.056.373-6.2.65-9.373C558.659,200.535,555.974,197.593,550.366,197.35Z" transform="translate(-478.148 -191.041)"/><path class="b" d="M854.377,197.211c.094-2.349.216-4.4.361-6.066a37.127,37.127,0,0,1,.888-4.3l.022-.258a8.388,8.388,0,0,0,.527-2.126l-.02-.21c-.322-1.118-1.335-1.819-3.009-2.083l-.129-.02-.13.036c-1.59.448-1.652,1.466-1.6,1.884l.008.054a18.65,18.65,0,0,1,.3,4.124c-.046,1.815-.2,4.267-.468,7.287-.107,1.223-.41,3.387-.907,6.474l-.194,2.32c.175,1.865,1.136,2.49,1.912,2.686l.132.034.139-.03c.913-.2,2.077-.895,2.438-3.091l.017-.1-.019-.1A23.811,23.811,0,0,1,854.377,197.211Z" transform="translate(-699.486 -180.285)"/><path class="b" d="M894.565,207.939c.131-2.664.89-5.573.945-7.428.037-1.244-.549-1.676-1.846-1.748-.657-.037-1.641-.414-1.782,1.29l.033.539a9.455,9.455,0,0,0-5.7-2.08c-5.551.359-8.816,3.816-9.71,10.317-.419,6.017,2.209,9.25,7.82,9.612.125.006.249.008.374.008a9.809,9.809,0,0,0,6.25-2.527l-.049.561c-.079.906.437,1.405,1.415,1.44a3.066,3.066,0,0,0,2.714-2.973l-.01-.178A34.146,34.146,0,0,1,894.565,207.939Zm-3.285,4.056a10.005,10.005,0,0,1-6.611,3.384c-3.586-.42-5.251-2.577-5.1-6.5.768-4.383,2.886-6.772,6.389-7.3a5.627,5.627,0,0,1,5.594,3.983Z" transform="translate(-718.195 -191.863)"/><path class="b" d="M968.946,201.15a7.016,7.016,0,0,0-4.729-1.837A9.587,9.587,0,0,0,957.5,202.9a11.027,11.027,0,0,1,.283-1.55,9.38,9.38,0,0,0,.325-1.948,1.74,1.74,0,0,0-1.6-.713,2.974,2.974,0,0,0-2.373,1.184,2.933,2.933,0,0,0-.078.892s.19,3.227.133,5.012c-.059,1.818-.788,8.81-1.042,10.594a2.1,2.1,0,0,0,.213,1.55,1.975,1.975,0,0,0,1.571.812l.161-.012a2.443,2.443,0,0,0,2.078-2.649c.01-.22-.02-.913-.02-.913a39.624,39.624,0,0,1,.26-8.052c1.846-2.717,3.862-4.4,6.271-4.3a3.911,3.911,0,0,1,2.71,1.75c.351.439.66.713,1.084.684a1.821,1.821,0,0,0,1.3-.922A2.668,2.668,0,0,0,968.946,201.15Z" transform="translate(-772.426 -191.984)"/><ellipse class="a" cx="4.211" cy="3.858" rx="4.211" ry="3.858" transform="matrix(0.722, -0.691, 0.691, 0.722, 32.966, 16.46)"/><path class="b" d="M785.757,196.712a9.2,9.2,0,0,0-1.966-.082,16.551,16.551,0,0,0-1.795.208c-4.909.96-7.938,4.4-9.014,10.34-.1,6.223,2.953,9.559,9.118,9.919,6.384-.239,10.13-3.576,11.141-9.991C793.485,201.732,791.128,197.688,785.757,196.712Zm5.316,10.676a2.325,2.325,0,0,0-1.063,2.992l.461.94h-1.086A2.438,2.438,0,0,0,787,213.51l-.1,1.085-.893-.543a2.307,2.307,0,0,0-3.062.8l-.625.94-.46-.94a2.076,2.076,0,0,0-2.922-.8l-.987.543.095-1.085a1.975,1.975,0,0,0-2-2.19H774.97l.625-.94a2.093,2.093,0,0,0-.54-2.992l-.893-.543.988-.543a2.326,2.326,0,0,0,1.063-2.991l-.461-.94h1.086a2.438,2.438,0,0,0,2.382-2.19l.1-1.086.892.543a2.308,2.308,0,0,0,3.062-.8l.625-.94.461.94a2.076,2.076,0,0,0,2.921.8l.988-.543-.1,1.086a1.975,1.975,0,0,0,2,2.19h1.086l-.625.94a2.093,2.093,0,0,0,.54,2.991l.893.543Z" transform="translate(-644.971 -190.52)"/><path class="b" d="M634.758,197.355a2.163,2.163,0,0,0-1.974,1.519s-.053,1.009-.082,1.362a10.323,10.323,0,0,0-6.77-2.42c-6.027.242-9.3,3.727-10.218,10.361-.264,5.564,2.455,8.478,8.551,8.718a11.619,11.619,0,0,0,7.229-1.93,4.674,4.674,0,0,1-.6,2.1c-1.148,2.164-3.436,3.107-7.017,2.9-3.7-.109-5.726-.924-7.332-3.065a1.23,1.23,0,0,0-.813-.351,1.2,1.2,0,0,0-.8,1.027,4.5,4.5,0,0,0,.945,3.791c1.09,1.277,3.038,1.907,5.9,1.907.565,0,1.167-.048,1.8-.073,6.32-.249,8.609-1.546,10.278-4.692a9.215,9.215,0,0,0,.5-1.923c.115-.3.368-2.67.368-2.67-.026-.258.442-8.139.783-10.849a11.518,11.518,0,0,1,.483-1.638,6.1,6.1,0,0,0,.465-2.467C636.392,198.2,636.2,197.523,634.758,197.355Zm-2.444,8.233-.407,4.647a1.278,1.278,0,0,1-.446.871,10.748,10.748,0,0,1-7,2.557c-3.916-.425-5.524-2.251-5.522-5.6.647-4.019,2.66-6.241,6.667-6.666,3.141.2,5.321,1.268,6.493,3.188A1.663,1.663,0,0,1,632.315,205.589Z" transform="translate(-533.078 -191.041)"/><path class="b" d="M704.015,190.683c-3.827-.1-5.8-1.234-5.872-3.285.075-.858.3-3.468,4.835-3.62a21.1,21.1,0,0,1,5.122,1.166,11.9,11.9,0,0,0,2.627.515c.953-.1,1.85-.514,2.66-3.561,0,0,.4-1.465.135-1.62a.778.778,0,0,0-.784.163c-.143.108-.547.48-.547.48a1.311,1.311,0,0,1-.331.228,2.194,2.194,0,0,1-.634.285,15.354,15.354,0,0,1-4.828-.171,19.541,19.541,0,0,0-3.164-.514h0c-3.09.069-5.357.88-6.739,2.41a6.817,6.817,0,0,0-1.624,4.443c-.16,4.279,2.814,6.448,8.828,6.448,4.385.1,6.548,1.331,6.435,3.6-.363,3.13-2.554,4.651-6.7,4.651-3.607,0-7.825-2.179-9.244-4.192-.119-.359-.465-1.366-1.038-1.286-.474.066-.7,1.474-.7,1.474a5.351,5.351,0,0,0,.786,4.039c1.47,2.086,4.7,3.176,9.9,3.33,3.871,0,6.719-.935,8.465-2.777a8.193,8.193,0,0,0,2.084-5.253C713.862,193.141,710.607,190.8,704.015,190.683Z" transform="translate(-587.924 -178.92)"/></g><g transform="translate(1739.042 3683.733)"><ellipse class="a" cx="5.394" cy="4.942" rx="5.394" ry="4.942" transform="matrix(0.722, -0.691, 0.691, 0.722, 130.826, 16.485)"/><path class="b" d="M361.631,193.6a8.952,8.952,0,0,1-4.021.646,71.168,71.168,0,0,1-7.27-.162,11.6,11.6,0,0,0-1.324-.14c-2.739.178-3.227,1.887-3.247,3.112-.071.817.358,1.106.747,1.106a7.208,7.208,0,0,0,3.113-.7c3.116-.875,4.107-.427,4.416-.007a4.349,4.349,0,0,1-.968,2.891c-1.2,1.446-3.546,2.4-6.906,2.386-4.974-.014-7.174-3.06-6.606-8.235.75-6.831,3.884-10.537,8.971-10.861,3.012-.192,5.335,1.678,7.076,5.384l.067.107a1.535,1.535,0,0,0,1.346.648,3.089,3.089,0,0,0,2.728-1.831,1.964,1.964,0,0,0,.055-.428c.044-.5-.949-1.943-1-2.056-1.767-3.09-5.115-4.777-10.007-5.013-7.587.474-12.148,5.185-13.561,14.052-.657,7.511,2.9,11.379,10.6,11.5a12.806,12.806,0,0,0,8.32-3.105l-.027.4c.145,1.915,1.131,2.755,1.938,2.531a2.284,2.284,0,0,0,1.857-2.124l-.005-.157a9.406,9.406,0,0,1-.093-4.428c.035-.155.192-.892.227-1.02,2.594-.436,4.022-1.6,4.5-3.514,0,0,.251-1.061.106-1.208-.124-.126-.708.1-.708.1Z" transform="translate(-335.166 -179.083)"/><path class="b" d="M445.487,196.712a9.2,9.2,0,0,0-1.966-.082,16.552,16.552,0,0,0-1.795.208c-4.909.96-7.938,4.4-9.014,10.34-.1,6.223,2.952,9.559,9.118,9.919,6.384-.239,10.131-3.576,11.141-9.991C453.216,201.732,450.859,197.688,445.487,196.712Zm4.134,10.406c-.786,4.32-3.249,6.47-7.474,6.574-4.256-.319-6.246-2.474-6.086-6.559.388-4.43,2.863-6.687,7.517-6.9C447.819,200.445,449.8,202.7,449.621,207.118Z" transform="translate(-404.19 -190.52)"/><path class="b" d="M516.067,175.786l-.077-.014-.08.007a2.95,2.95,0,0,0-2.85,2.977c-.159,1.812.692,2.811,2.394,2.811A2.932,2.932,0,0,0,518.5,178.8l.012-.072-.005-.072A2.865,2.865,0,0,0,516.067,175.786Z" transform="translate(-461.034 -175.772)"/><path class="b" d="M515.211,202.41a5.625,5.625,0,0,0,.019-1.226c-.344-1.2-2.35-1.89-3.349-1.925a1.461,1.461,0,0,0-1.4,1.287c-.247,2.415.75,5.193.2,9.236-.127.933-.418,2.607-.778,4.964-.316,2.071-.372,2.2-.373,2.338-.011,1.185.684,2.225,1.874,2.05a3.272,3.272,0,0,0,2.662-3.394,49.2,49.2,0,0,1,.009-5.884c.128-1.456.3-2.734.566-4.529A17.565,17.565,0,0,1,515.211,202.41Z" transform="translate(-458.553 -192.391)"/><path class="b" d="M550.366,197.35a13.993,13.993,0,0,0-7.716,3.062c.039-.168.08-.336.119-.508l.019-.079,0-.08c-.031-.839-.475-1.877-2.4-2.053l-.1-.009-.1.025a2.165,2.165,0,0,0-1.842,2.282s.284,4.534.189,5.622c-.265,3.033-.522,5.31-.766,6.813a37.749,37.749,0,0,1-.528,4.089,1.041,1.041,0,0,0,.322.981,1.992,1.992,0,0,0,.8.12c2.659-.2,3.332-1.739,3.273-2.63a4.356,4.356,0,0,1-.064-1.23c.116-3.836.321-6.857.609-8.985a10.331,10.331,0,0,1,7.96-4.35c3.361.432,4.9,2.3,4.708,5.678-.361,2.836-.683,5.218-.969,7.179l-.268,3.067a1.081,1.081,0,0,0,1.391,1.274c1.959-.175,2.583-1.212,2.773-2.148.155-3.056.373-6.2.65-9.373C558.659,200.535,555.974,197.593,550.366,197.35Z" transform="translate(-478.148 -191.041)"/><path class="b" d="M854.377,197.211c.094-2.349.216-4.4.361-6.066a37.127,37.127,0,0,1,.888-4.3l.022-.258a8.388,8.388,0,0,0,.527-2.126l-.02-.21c-.322-1.118-1.335-1.819-3.009-2.083l-.129-.02-.13.036c-1.59.448-1.652,1.466-1.6,1.884l.008.054a18.65,18.65,0,0,1,.3,4.124c-.046,1.815-.2,4.267-.468,7.287-.107,1.223-.41,3.387-.907,6.474l-.194,2.32c.175,1.865,1.136,2.49,1.912,2.686l.132.034.139-.03c.913-.2,2.077-.895,2.438-3.091l.017-.1-.019-.1A23.811,23.811,0,0,1,854.377,197.211Z" transform="translate(-699.486 -180.285)"/><path class="b" d="M894.565,207.939c.131-2.664.89-5.573.945-7.428.037-1.244-.549-1.676-1.846-1.748-.657-.037-1.641-.414-1.782,1.29l.033.539a9.455,9.455,0,0,0-5.7-2.08c-5.551.359-8.816,3.816-9.71,10.317-.419,6.017,2.209,9.25,7.82,9.612.125.006.249.008.374.008a9.809,9.809,0,0,0,6.25-2.527l-.049.561c-.079.906.437,1.405,1.415,1.44a3.066,3.066,0,0,0,2.714-2.973l-.01-.178A34.146,34.146,0,0,1,894.565,207.939Zm-3.285,4.056a10.005,10.005,0,0,1-6.611,3.384c-3.586-.42-5.251-2.577-5.1-6.5.768-4.383,2.886-6.772,6.389-7.3a5.627,5.627,0,0,1,5.594,3.983Z" transform="translate(-718.195 -191.863)"/><path class="b" d="M968.946,201.15a7.016,7.016,0,0,0-4.729-1.837A9.587,9.587,0,0,0,957.5,202.9a11.027,11.027,0,0,1,.283-1.55,9.38,9.38,0,0,0,.325-1.948,1.74,1.74,0,0,0-1.6-.713,2.974,2.974,0,0,0-2.373,1.184,2.933,2.933,0,0,0-.078.892s.19,3.227.133,5.012c-.059,1.818-.788,8.81-1.042,10.594a2.1,2.1,0,0,0,.213,1.55,1.975,1.975,0,0,0,1.571.812l.161-.012a2.443,2.443,0,0,0,2.078-2.649c.01-.22-.02-.913-.02-.913a39.624,39.624,0,0,1,.26-8.052c1.846-2.717,3.862-4.4,6.271-4.3a3.911,3.911,0,0,1,2.71,1.75c.351.439.66.713,1.084.684a1.821,1.821,0,0,0,1.3-.922A2.668,2.668,0,0,0,968.946,201.15Z" transform="translate(-772.426 -191.984)"/><ellipse class="a" cx="4.211" cy="3.858" rx="4.211" ry="3.858" transform="matrix(0.722, -0.691, 0.691, 0.722, 32.966, 16.46)"/><path class="b" d="M785.757,196.712a9.2,9.2,0,0,0-1.966-.082,16.551,16.551,0,0,0-1.795.208c-4.909.96-7.938,4.4-9.014,10.34-.1,6.223,2.953,9.559,9.118,9.919,6.384-.239,10.13-3.576,11.141-9.991C793.485,201.732,791.128,197.688,785.757,196.712Zm5.316,10.676a2.325,2.325,0,0,0-1.063,2.992l.461.94h-1.086A2.438,2.438,0,0,0,787,213.51l-.1,1.085-.893-.543a2.307,2.307,0,0,0-3.062.8l-.625.94-.46-.94a2.076,2.076,0,0,0-2.922-.8l-.987.543.095-1.085a1.975,1.975,0,0,0-2-2.19H774.97l.625-.94a2.093,2.093,0,0,0-.54-2.992l-.893-.543.988-.543a2.326,2.326,0,0,0,1.063-2.991l-.461-.94h1.086a2.438,2.438,0,0,0,2.382-2.19l.1-1.086.892.543a2.308,2.308,0,0,0,3.062-.8l.625-.94.461.94a2.076,2.076,0,0,0,2.921.8l.988-.543-.1,1.086a1.975,1.975,0,0,0,2,2.19h1.086l-.625.94a2.093,2.093,0,0,0,.54,2.991l.893.543Z" transform="translate(-644.971 -190.52)"/><path class="b" d="M634.758,197.355a2.163,2.163,0,0,0-1.974,1.519s-.053,1.009-.082,1.362a10.323,10.323,0,0,0-6.77-2.42c-6.027.242-9.3,3.727-10.218,10.361-.264,5.564,2.455,8.478,8.551,8.718a11.619,11.619,0,0,0,7.229-1.93,4.674,4.674,0,0,1-.6,2.1c-1.148,2.164-3.436,3.107-7.017,2.9-3.7-.109-5.726-.924-7.332-3.065a1.23,1.23,0,0,0-.813-.351,1.2,1.2,0,0,0-.8,1.027,4.5,4.5,0,0,0,.945,3.791c1.09,1.277,3.038,1.907,5.9,1.907.565,0,1.167-.048,1.8-.073,6.32-.249,8.609-1.546,10.278-4.692a9.215,9.215,0,0,0,.5-1.923c.115-.3.368-2.67.368-2.67-.026-.258.442-8.139.783-10.849a11.518,11.518,0,0,1,.483-1.638,6.1,6.1,0,0,0,.465-2.467C636.392,198.2,636.2,197.523,634.758,197.355Zm-2.444,8.233-.407,4.647a1.278,1.278,0,0,1-.446.871,10.748,10.748,0,0,1-7,2.557c-3.916-.425-5.524-2.251-5.522-5.6.647-4.019,2.66-6.241,6.667-6.666,3.141.2,5.321,1.268,6.493,3.188A1.663,1.663,0,0,1,632.315,205.589Z" transform="translate(-533.078 -191.041)"/><path class="b" d="M704.015,190.683c-3.827-.1-5.8-1.234-5.872-3.285.075-.858.3-3.468,4.835-3.62a21.1,21.1,0,0,1,5.122,1.166,11.9,11.9,0,0,0,2.627.515c.953-.1,1.85-.514,2.66-3.561,0,0,.4-1.465.135-1.62a.778.778,0,0,0-.784.163c-.143.108-.547.48-.547.48a1.311,1.311,0,0,1-.331.228,2.194,2.194,0,0,1-.634.285,15.354,15.354,0,0,1-4.828-.171,19.541,19.541,0,0,0-3.164-.514h0c-3.09.069-5.357.88-6.739,2.41a6.817,6.817,0,0,0-1.624,4.443c-.16,4.279,2.814,6.448,8.828,6.448,4.385.1,6.548,1.331,6.435,3.6-.363,3.13-2.554,4.651-6.7,4.651-3.607,0-7.825-2.179-9.244-4.192-.119-.359-.465-1.366-1.038-1.286-.474.066-.7,1.474-.7,1.474a5.351,5.351,0,0,0,.786,4.039c1.47,2.086,4.7,3.176,9.9,3.33,3.871,0,6.719-.935,8.465-2.777a8.193,8.193,0,0,0,2.084-5.253C713.862,193.141,710.607,190.8,704.015,190.683Z" transform="translate(-587.924 -178.92)"/></g><g transform="translate(74.213 3680.071)"><path class="b" d="M455.154,865.2a17.563,17.563,0,0,0-3.717-.154,30.2,30.2,0,0,0-3.346.392c-9.09,1.808-14.228,8.295-15.277,19.478.839,11.722,7.137,18.007,18.81,18.685,11.987-.449,18.494-6.737,19.34-18.821C470.541,874.656,465.432,867.037,455.154,865.2Zm9.5,19.6c-.769,8.137-5.054,12.187-12.995,12.384-8.07-.6-12.174-4.661-12.546-12.355,0-8.345,4.291-12.6,13.022-13C460.162,872.23,464.258,876.473,464.656,884.8Z" transform="translate(-432.814 -865.013)"/><circle class="a" cx="7.625" cy="7.625" r="7.625" transform="translate(11.45 11.668)"/></g><g transform="translate(460.732 3680.071)"><path class="b" d="M455.154,865.2a17.563,17.563,0,0,0-3.717-.154,30.2,30.2,0,0,0-3.346.392c-9.09,1.808-14.228,8.295-15.277,19.478.839,11.722,7.137,18.007,18.81,18.685,11.987-.449,18.494-6.737,19.34-18.821C470.541,874.656,465.432,867.037,455.154,865.2Zm9.5,19.6c-.769,8.137-5.054,12.187-12.995,12.384-8.07-.6-12.174-4.661-12.546-12.355,0-8.345,4.291-12.6,13.022-13C460.162,872.23,464.258,876.473,464.656,884.8Z" transform="translate(-432.814 -865.013)"/><circle class="a" cx="7.625" cy="7.625" r="7.625" transform="translate(11.45 11.668)"/></g><g transform="translate(849.083 3680.071)"><path class="b" d="M455.154,865.2a17.563,17.563,0,0,0-3.717-.154,30.2,30.2,0,0,0-3.346.392c-9.09,1.808-14.228,8.295-15.277,19.478.839,11.722,7.137,18.007,18.81,18.685,11.987-.449,18.494-6.737,19.34-18.821C470.541,874.656,465.432,867.037,455.154,865.2Zm9.5,19.6c-.769,8.137-5.054,12.187-12.995,12.384-8.07-.6-12.174-4.661-12.546-12.355,0-8.345,4.291-12.6,13.022-13C460.162,872.23,464.258,876.473,464.656,884.8Z" transform="translate(-432.814 -865.013)"/><circle class="a" cx="7.625" cy="7.625" r="7.625" transform="translate(11.45 11.668)"/></g><g transform="translate(1237.435 3680.071)"><path class="b" d="M455.154,865.2a17.563,17.563,0,0,0-3.717-.154,30.2,30.2,0,0,0-3.346.392c-9.09,1.808-14.228,8.295-15.277,19.478.839,11.722,7.137,18.007,18.81,18.685,11.987-.449,18.494-6.737,19.34-18.821C470.541,874.656,465.432,867.037,455.154,865.2Zm9.5,19.6c-.769,8.137-5.054,12.187-12.995,12.384-8.07-.6-12.174-4.661-12.546-12.355,0-8.345,4.291-12.6,13.022-13C460.162,872.23,464.258,876.473,464.656,884.8Z" transform="translate(-432.814 -865.013)"/><circle class="a" cx="7.625" cy="7.625" r="7.625" transform="translate(11.45 11.668)"/></g><g transform="translate(1623.954 3680.071)"><path class="b" d="M455.154,865.2a17.563,17.563,0,0,0-3.717-.154,30.2,30.2,0,0,0-3.346.392c-9.09,1.808-14.228,8.295-15.277,19.478.839,11.722,7.137,18.007,18.81,18.685,11.987-.449,18.494-6.737,19.34-18.821C470.541,874.656,465.432,867.037,455.154,865.2Zm9.5,19.6c-.769,8.137-5.054,12.187-12.995,12.384-8.07-.6-12.174-4.661-12.546-12.355,0-8.345,4.291-12.6,13.022-13C460.162,872.23,464.258,876.473,464.656,884.8Z" transform="translate(-432.814 -865.013)"/><circle class="a" cx="7.625" cy="7.625" r="7.625" transform="translate(11.45 11.668)"/></g></g></svg>