<svg xmlns="http://www.w3.org/2000/svg" width="190.553" height="31.111" viewBox="0 0 190.553 31.111"><defs><style>.a{fill:#fce937;}.b{fill:#212353;}</style></defs><g transform="translate(-1114.208 -654.342)"><ellipse class="a" cx="5.218" cy="4.781" rx="5.218" ry="4.781" transform="matrix(0.722, -0.691, 0.691, 0.722, 1240.78, 670.254)"/><path class="b" d="M1139.812,668.213a8.65,8.65,0,0,1-3.89.625,68.839,68.839,0,0,1-7.034-.157,11.306,11.306,0,0,0-1.281-.135c-2.65.172-3.122,1.826-3.141,3.01-.069.791.346,1.071.723,1.071a6.968,6.968,0,0,0,3.012-.677c3.015-.846,3.974-.413,4.273-.007a4.2,4.2,0,0,1-.937,2.8c-1.163,1.4-3.43,2.318-6.682,2.309-4.812-.014-6.94-2.961-6.391-7.968.726-6.609,3.758-10.193,8.68-10.507,2.915-.185,5.162,1.623,6.846,5.208l.064.1a1.488,1.488,0,0,0,1.3.627,2.988,2.988,0,0,0,2.639-1.772,1.855,1.855,0,0,0,.053-.414c.043-.488-.919-1.88-.967-1.989-1.708-2.99-4.949-4.622-9.682-4.85-7.34.458-11.753,5.017-13.12,13.6-.635,7.267,2.809,11.009,10.258,11.123a12.394,12.394,0,0,0,8.05-3l-.025.387c.139,1.852,1.094,2.665,1.874,2.448a2.21,2.21,0,0,0,1.8-2.055l0-.152a9.108,9.108,0,0,1-.091-4.285c.033-.149.186-.862.22-.987,2.509-.422,3.891-1.548,4.356-3.4,0,0,.243-1.027.1-1.169-.12-.122-.684.1-.684.1Z" transform="translate(0 0.175)"/><path class="b" d="M1150.511,659.552a8.913,8.913,0,0,0-1.9-.079,16.085,16.085,0,0,0-1.736.2c-4.75.925-7.68,4.245-8.721,9.968-.1,6,2.856,9.214,8.822,9.561,6.177-.23,9.8-3.447,10.777-9.631C1157.989,664.392,1155.706,660.492,1150.511,659.552Zm4,10.03c-.761,4.164-3.144,6.237-7.231,6.338-4.118-.308-6.042-2.385-5.888-6.323.375-4.271,2.77-6.446,7.273-6.652C1152.766,663.15,1154.679,665.321,1154.51,669.582Z" transform="translate(3.652 0.78)"/><path class="b" d="M1160.792,654.355l-.075-.013-.077.006a2.856,2.856,0,0,0-2.757,2.88c-.153,1.754.669,2.72,2.316,2.72a2.837,2.837,0,0,0,2.95-2.675l.011-.07-.006-.07A2.772,2.772,0,0,0,1160.792,654.355Z" transform="translate(6.66 0)"/><path class="b" d="M1162.495,663.144a5.423,5.423,0,0,0,.019-1.183c-.332-1.157-2.273-1.821-3.24-1.856a1.411,1.411,0,0,0-1.352,1.24c-.239,2.329.725,5.005.195,8.9-.122.9-.4,2.513-.752,4.785-.307,2-.361,2.122-.362,2.254-.01,1.143.663,2.145,1.813,1.976a3.157,3.157,0,0,0,2.576-3.271,47.371,47.371,0,0,1,.008-5.671c.123-1.4.287-2.635.547-4.366A17.013,17.013,0,0,1,1162.495,663.144Z" transform="translate(6.529 0.879)"/><path class="b" d="M1176.512,659.637a13.577,13.577,0,0,0-7.466,2.952c.038-.162.078-.324.115-.49l.018-.076,0-.078c-.031-.809-.459-1.809-2.324-1.979l-.1-.009-.1.023a2.088,2.088,0,0,0-1.782,2.2s.274,4.37.182,5.419c-.256,2.924-.505,5.118-.741,6.567a36.172,36.172,0,0,1-.51,3.941,1,1,0,0,0,.312.946,1.927,1.927,0,0,0,.771.115c2.573-.192,3.224-1.675,3.167-2.536a4.126,4.126,0,0,1-.062-1.185c.111-3.7.309-6.61.589-8.661a10,10,0,0,1,7.7-4.193c3.251.416,4.74,2.22,4.555,5.473-.35,2.734-.662,5.03-.937,6.921l-.26,2.955a1.149,1.149,0,0,0,.323,1.018,1.164,1.164,0,0,0,1.023.21c1.895-.168,2.5-1.168,2.681-2.071.15-2.946.361-5.978.63-9.035C1184.535,662.708,1181.938,659.872,1176.512,659.637Z" transform="translate(7.565 0.808)"/><path class="b" d="M1244.785,670.479c.091-2.273.209-4.26.349-5.869a35.769,35.769,0,0,1,.859-4.159l.021-.249a8.109,8.109,0,0,0,.51-2.058l-.019-.2c-.313-1.082-1.292-1.761-2.912-2.016l-.125-.02-.125.035c-1.539.433-1.6,1.419-1.553,1.822l.007.052a17.941,17.941,0,0,1,.287,3.99c-.044,1.756-.2,4.129-.452,7.05-.1,1.183-.4,3.276-.878,6.264l-.187,2.244c.169,1.805,1.1,2.409,1.85,2.6l.127.032.134-.029c.885-.191,2.01-.865,2.359-2.991l.016-.1-.018-.1A23.008,23.008,0,0,1,1244.785,670.479Z" transform="translate(19.277 0.239)"/><path class="b" d="M1264.575,669.009c.127-2.569.862-5.372.914-7.161.035-1.2-.53-1.614-1.786-1.685-.635-.034-1.587-.4-1.724,1.245l.031.519a9.167,9.167,0,0,0-5.516-2c-5.371.346-8.53,3.678-9.395,9.944-.406,5.8,2.137,8.915,7.567,9.264.121.006.241.008.362.008a9.51,9.51,0,0,0,6.047-2.435l-.047.541c-.076.872.423,1.354,1.369,1.388a2.961,2.961,0,0,0,2.627-2.867l-.009-.171A32.738,32.738,0,0,1,1264.575,669.009Zm-3.178,3.909a9.692,9.692,0,0,1-6.4,3.262c-3.47-.405-5.082-2.484-4.935-6.268.743-4.225,2.792-6.528,6.181-7.035a5.441,5.441,0,0,1,5.412,3.84Z" transform="translate(20.267 0.851)"/><path class="b" d="M1281.2,662.343a6.8,6.8,0,0,0-4.574-1.771,9.283,9.283,0,0,0-6.5,3.453,10.6,10.6,0,0,1,.274-1.494,9.043,9.043,0,0,0,.314-1.878,1.688,1.688,0,0,0-1.546-.687,2.879,2.879,0,0,0-2.3,1.141,2.838,2.838,0,0,0-.075.86s.184,3.111.128,4.831c-.056,1.752-.761,8.492-1.007,10.211a2.008,2.008,0,0,0,.206,1.494,1.913,1.913,0,0,0,1.52.783l.156-.012a2.358,2.358,0,0,0,2.011-2.554c.009-.212-.02-.88-.02-.88a38.08,38.08,0,0,1,.251-7.761c1.787-2.618,3.736-4.244,6.067-4.149a3.791,3.791,0,0,1,2.622,1.687c.338.424.638.688,1.049.66a1.763,1.763,0,0,0,1.26-.889A2.563,2.563,0,0,0,1281.2,662.343Z" transform="translate(23.136 0.858)"/><ellipse class="a" cx="4.074" cy="3.733" rx="4.074" ry="3.733" transform="matrix(0.722, -0.691, 0.691, 0.722, 1146.103, 670.23)"/><path class="b" d="M1234.022,659.552a8.9,8.9,0,0,0-1.9-.079,16.07,16.07,0,0,0-1.737.2c-4.75.925-7.679,4.245-8.72,9.968-.1,6,2.856,9.214,8.821,9.561,6.177-.23,9.8-3.447,10.778-9.631C1241.5,664.392,1239.219,660.492,1234.022,659.552Zm5.143,10.29a2.238,2.238,0,0,0-1.029,2.884l.446.907h-1.051a2.356,2.356,0,0,0-2.3,2.111l-.092,1.046-.863-.524a2.238,2.238,0,0,0-2.962.773l-.6.907-.445-.907a2.014,2.014,0,0,0-2.827-.773l-.955.524.092-1.046a1.906,1.906,0,0,0-1.933-2.111h-1.05l.6-.907a2.012,2.012,0,0,0-.522-2.884l-.863-.522.955-.524a2.237,2.237,0,0,0,1.028-2.884l-.445-.906h1.05a2.356,2.356,0,0,0,2.3-2.112l.092-1.046.863.523a2.238,2.238,0,0,0,2.962-.773l.605-.906.445.906a2.014,2.014,0,0,0,2.827.773l.956-.523-.092,1.046a1.906,1.906,0,0,0,1.934,2.112h1.05l-.605.906a2.013,2.013,0,0,0,.522,2.884l.863.524Z" transform="translate(16.393 0.78)"/><path class="b" d="M1202.11,659.643a2.092,2.092,0,0,0-1.91,1.47s-.052.976-.079,1.318a9.986,9.986,0,0,0-6.551-2.342c-5.831.235-9,3.606-9.885,10.024-.256,5.384,2.376,8.2,8.273,8.434a11.241,11.241,0,0,0,6.993-1.867,4.53,4.53,0,0,1-.584,2.033c-1.111,2.093-3.325,3.006-6.79,2.8-3.577-.1-5.539-.893-7.094-2.965a1.193,1.193,0,0,0-.787-.34,1.168,1.168,0,0,0-.778.995,4.357,4.357,0,0,0,.914,3.667c1.055,1.235,2.939,1.845,5.712,1.845.546,0,1.128-.047,1.745-.071,6.114-.241,8.329-1.5,9.944-4.539a8.912,8.912,0,0,0,.488-1.861c.111-.29.355-2.583.355-2.583-.024-.25.428-7.874.757-10.5a11.224,11.224,0,0,1,.468-1.585,5.911,5.911,0,0,0,.448-2.388C1203.69,660.459,1203.5,659.805,1202.11,659.643Zm-2.365,7.966-.393,4.5a1.244,1.244,0,0,1-.431.843,10.4,10.4,0,0,1-6.771,2.473c-3.788-.41-5.344-2.177-5.342-5.423.626-3.889,2.573-6.037,6.45-6.45,3.039.19,5.149,1.228,6.283,3.085A1.6,1.6,0,0,1,1199.745,667.608Z" transform="translate(10.472 0.736)"/><path class="b" d="M1213.149,665.556c-3.7-.1-5.613-1.194-5.682-3.179.073-.83.294-3.355,4.678-3.5A20.431,20.431,0,0,1,1217.1,660a11.608,11.608,0,0,0,2.543.5c.922-.094,1.789-.5,2.574-3.446,0,0,.39-1.417.13-1.567a.752.752,0,0,0-.759.158c-.139.1-.529.464-.529.464a1.287,1.287,0,0,1-.322.22,2.056,2.056,0,0,1-.613.276,14.851,14.851,0,0,1-4.67-.165,18.84,18.84,0,0,0-3.061-.5h0c-2.99.067-5.184.851-6.52,2.332a6.6,6.6,0,0,0-1.572,4.3c-.155,4.14,2.722,6.238,8.541,6.238,4.241.1,6.334,1.287,6.225,3.484-.352,3.028-2.471,4.5-6.483,4.5-3.49,0-7.571-2.107-8.944-4.055-.114-.347-.449-1.322-1-1.244-.458.064-.673,1.426-.673,1.426a5.176,5.176,0,0,0,.759,3.907c1.422,2.018,4.55,3.073,9.576,3.223,3.745,0,6.5-.9,8.189-2.687a7.923,7.923,0,0,0,2.017-5.083C1222.677,667.934,1219.526,665.67,1213.149,665.556Z" transform="translate(13.374 0.166)"/></g></svg>