<svg xmlns="http://www.w3.org/2000/svg" width="36" height="36" viewBox="0 0 36 36"><defs><style>.a{fill:none;}.b{fill:#212353;}</style></defs><g transform="translate(-0.101 -0.464)"><rect class="a" width="36" height="36" transform="translate(0.101 0.464)"/><path class="b" d="M285.61,215.6H263.8a6.2,6.2,0,0,0-6.2,6.2V243.61a6.2,6.2,0,0,0,6.2,6.2H285.61a6.2,6.2,0,0,0,6.2-6.2V221.8A6.2,6.2,0,0,0,285.61,215.6Zm-3.917,24.316a1.775,1.775,0,0,1-3.234,1.018l-7.19-10.23v9.213a1.776,1.776,0,1,1-3.552,0V225.5a1.775,1.775,0,0,1,3.234-1.018l7.19,10.2v-9.188a1.776,1.776,0,1,1,3.552,0Z" transform="translate(-256.695 -214.696)"/></g></svg>