<svg xmlns="http://www.w3.org/2000/svg" width="984.806" height="164.757" viewBox="0 0 984.806 164.757"><defs><style>.a{fill:#15d3a4;}.b{fill:#fce937;}</style></defs><g transform="translate(-348.392 -401.533)"><path class="a" d="M518.872,486.339c-9.012,3.469-17.635,4.886-25.9,4.159-20.114,0-35.656.324-46.83-1.042-5.259-.642-7.347-.976-8.528-.9C419.967,489.7,416.826,500.711,416.7,508.6c-.461,5.261,2.307,7.127,4.814,7.127a46.439,46.439,0,0,0,20.055-4.5c20.072-5.635,26.453-2.75,28.448-.045-.015,7.5-2.062,13.6-6.238,18.624-7.747,9.316-22.843,15.431-44.487,15.369-32.042-.092-46.213-19.71-42.555-53.048,4.829-44.007,25.022-67.875,57.794-69.963,19.405-1.236,34.369,10.807,45.584,34.684l.433.689c2.4,2.968,5.242,4.407,8.673,4.176,5.04-.3,13.6-2.61,17.577-11.794a12.613,12.613,0,0,0,.35-2.759c.284-3.245-6.114-12.516-6.434-13.243-11.38-19.9-32.953-30.772-64.467-32.294-48.87,3.051-78.252,33.4-87.357,90.523-4.234,48.384,18.7,73.3,68.3,74.067,21.272-.661,39.255-7.376,53.6-20l-.171,2.577c.934,12.337,7.287,17.748,12.485,16.3,7.592-2.115,11.363-6.865,11.958-13.685l-.032-1.011c-1.2-7.562-3.692-14.708-.6-28.527.224-1,1.236-5.745,1.463-6.57,16.71-2.81,25.911-10.308,29.005-22.639,0,0,1.616-6.837.684-7.784-.8-.81-4.558.642-4.558.642Z" transform="translate(0 0.078)"/><path class="a" d="M522.111,418.42a59.285,59.285,0,0,0-12.664-.527,106.542,106.542,0,0,0-11.561,1.339c-31.627,6.183-51.138,28.365-58.069,66.609-.637,40.088,19.017,61.58,58.734,63.9,41.127-1.537,65.26-23.039,71.766-64.362C571.9,450.759,556.713,424.705,522.111,418.42Zm26.63,67.031c-5.067,27.826-20.929,41.676-48.145,42.35-27.418-2.053-40.236-15.94-39.2-42.252,2.5-28.538,18.441-43.077,48.418-44.456C537.134,442.464,549.872,456.973,548.742,485.451Z" transform="translate(80.758 14.357)"/><path class="a" d="M637.818,418.42a59.292,59.292,0,0,0-12.664-.527,106.541,106.541,0,0,0-11.561,1.339c-31.627,6.183-51.138,28.365-58.069,66.609-.639,40.088,19.017,61.58,58.734,63.9,41.127-1.537,65.26-23.039,71.766-64.362C687.608,450.759,672.42,424.705,637.818,418.42Zm26.628,67.031c-5.065,27.826-20.929,41.676-48.143,42.35-27.418-2.053-40.238-15.94-39.206-42.252,2.5-28.538,18.443-43.077,48.42-44.456C652.841,442.464,665.577,456.973,664.447,485.451Z" transform="translate(182.981 14.357)"/><path class="a" d="M753.658,418.42a59.292,59.292,0,0,0-12.664-.527,106.543,106.543,0,0,0-11.561,1.339c-31.627,6.183-51.138,28.365-58.069,66.609-.638,40.088,19.017,61.58,58.734,63.9,41.127-1.537,65.26-23.039,71.766-64.362C803.448,450.759,788.26,424.705,753.658,418.42Zm26.628,67.031c-5.065,27.826-20.929,41.676-48.143,42.35-27.418-2.053-40.239-15.94-39.206-42.252,2.5-28.538,18.443-43.077,48.42-44.456C768.681,442.464,781.417,456.973,780.287,485.451Z" transform="translate(285.322 14.357)"/><circle class="b" cx="40.953" cy="40.953" r="40.953" transform="translate(1211.721 441.742)"/><path class="a" d="M722.211,486.5c-5.4,26.683-21.136,40.016-47.787,40.675-27.418-2.053-40.236-15.94-39.206-42.252,2.219-25.355,15.083-39.632,38.946-43.47a6.885,6.885,0,0,0,5.709-6.833v-9.184a6.939,6.939,0,0,0-8.159-6.829h0c-31.627,6.183-51.138,28.365-58.069,66.609-.639,40.088,19.017,61.58,58.734,63.9,40.538-1.514,64.552-22.44,71.463-62.612Z" transform="translate(234.328 14.984)"/><path class="a" d="M929.959,402.316a73.892,73.892,0,0,0-15.652-.65,127.245,127.245,0,0,0-14.092,1.648c-38.278,7.613-59.913,34.929-64.33,82.021.409,5.7.064,10.956.058,16.147-.026,27.209-19.038,40.016-45.68,40.675-27.418-2.053-40.237-15.94-39.206-42.252,2.219-25.355,15.083-39.632,38.946-43.47a6.885,6.885,0,0,0,5.709-6.833v-9.184a6.939,6.939,0,0,0-8.159-6.829h0c-31.627,6.183-51.138,28.365-58.069,66.609-.638,40.088,19.017,61.58,58.734,63.9,28.947-1.081,49.464-12.069,61.348-32.887,12.956,20.031,34.825,31.025,65.528,32.806,50.477-1.891,77.876-28.367,81.435-79.251C994.75,442.138,973.241,410.053,929.959,402.316Zm43.216,108.414,4.306,7.457h-8.611A17.372,17.372,0,0,0,951.5,535.56l0,8.609-7.457-4.306a17.372,17.372,0,0,0-23.73,6.359L916,553.679l-4.3-7.457a17.372,17.372,0,0,0-23.73-6.359l-7.458,4.306V535.56a17.371,17.371,0,0,0-17.371-17.373h-7.709q.613-1.751,1.162-3.573l2.241-3.884A17.37,17.37,0,0,0,852.477,487L845.02,482.7l7.459-4.306a17.373,17.373,0,0,0,6.357-23.73l-4.306-7.457h8.611a17.369,17.369,0,0,0,17.371-17.371v-8.611l7.457,4.306a17.371,17.371,0,0,0,23.73-6.359L916,411.711l4.306,7.457a17.372,17.372,0,0,0,23.73,6.359l7.458-4.306,0,8.611A17.373,17.373,0,0,0,968.869,447.2h8.611l-4.306,7.457a17.37,17.37,0,0,0,6.359,23.73l7.457,4.306L979.533,487A17.369,17.369,0,0,0,973.175,510.731Z" transform="translate(336.669 0)"/><path class="a" d="M606.5,486.5c-5.4,26.683-21.136,40.016-47.787,40.675-27.418-2.053-40.237-15.94-39.2-42.252,2.217-25.355,15.081-39.632,38.944-43.47a6.483,6.483,0,0,0,1.539-.469,11.387,11.387,0,1,0-6.376-21.822c-30.2,6.826-48.931,28.794-55.683,66.053-.637,40.088,19.017,61.58,58.734,63.9,40.54-1.514,64.552-22.44,71.463-62.612Z" transform="translate(132.105 14.984)"/><path class="a" d="M722.211,486.5c-5.4,26.683-21.136,40.016-47.787,40.675-27.418-2.053-40.236-15.94-39.206-42.252,2.219-25.355,15.083-39.632,38.946-43.47a6.5,6.5,0,0,0,1.539-.469,11.387,11.387,0,1,0-6.376-21.822c-30.2,6.826-48.931,28.794-55.683,66.053-.639,40.088,19.017,61.58,58.734,63.9,40.538-1.514,64.552-22.44,71.463-62.612Z" transform="translate(234.328 14.984)"/><path class="a" d="M838.051,486.5c-5.4,26.683-21.136,40.016-47.787,40.675-27.418-2.053-40.237-15.94-39.206-42.252,2.219-25.355,15.083-39.632,38.946-43.47a6.509,6.509,0,0,0,1.539-.469,11.387,11.387,0,1,0-6.376-21.822c-30.2,6.826-48.931,28.794-55.683,66.053-.638,40.088,19.017,61.58,58.734,63.9,40.538-1.514,64.552-22.44,71.463-62.612Z" transform="translate(336.669 14.984)"/></g></svg>