<svg xmlns="http://www.w3.org/2000/svg" width="36" height="36" viewBox="0 0 36 36"><defs><style>.a{fill:none;}.b{fill:#212353;}</style></defs><g transform="translate(-0.101 0.263)"><rect class="a" width="36" height="36" transform="translate(0.101 -0.263)"/><g transform="translate(0.905 3.62)"><path class="b" d="M400.224,224.34h-11.6a1.258,1.258,0,0,1-1.025-.53l-1.839-2.6a1.256,1.256,0,0,1,1.025-1.983h13.441a1.256,1.256,0,0,1,1.257,1.256v2.6A1.257,1.257,0,0,1,400.224,224.34Z" transform="translate(-368.578 -218.818)"/><path class="b" d="M398.3,227.175H387.1a4.264,4.264,0,0,1-3.4-1.7l-3.77-5a4.3,4.3,0,0,0-3.429-1.709h-6.06a3.642,3.642,0,0,0-3.642,3.642V244.5a3.642,3.642,0,0,0,3.642,3.642h27.107a3.642,3.642,0,0,0,3.642-3.642V230.063A2.888,2.888,0,0,0,398.3,227.175Zm-9.981,13.907a1.5,1.5,0,0,1-1.5,1.5H373.065a1.5,1.5,0,0,1-1.5-1.5v-.4a1.5,1.5,0,0,1,1.5-1.5h13.756a1.5,1.5,0,0,1,1.5,1.5Zm7.792,0a1.5,1.5,0,0,1-1.5,1.5h-2.519a1.5,1.5,0,0,1-1.5-1.5v-.4a1.5,1.5,0,0,1,1.5-1.5h2.519a1.5,1.5,0,0,1,1.5,1.5Z" transform="translate(-366.8 -218.775)"/></g></g></svg>