<svg xmlns="http://www.w3.org/2000/svg" width="36" height="36.412" viewBox="0 0 36 36.412"><defs><style>.a{fill:#212353;}</style></defs><g transform="translate(-950.07 -619.789)"><ellipse class="a" cx="8.399" cy="8.381" rx="8.399" ry="8.381" transform="translate(959.621 629.595)"/><path class="a" d="M971.152,619.964a16.551,16.551,0,0,0-3.508-.146,28.4,28.4,0,0,0-3.158.37c-8.578,1.706-13.427,7.827-14.416,18.381.792,11.062,6.735,16.993,17.75,17.632,11.312-.424,17.452-6.357,18.25-17.761C985.671,628.888,980.851,621.7,971.152,619.964Zm11.11,18.978a3.893,3.893,0,0,0-1.425,5.318l.965,1.671h-1.93a3.893,3.893,0,0,0-3.893,3.893v1.93l-1.671-.965a3.893,3.893,0,0,0-5.318,1.425l-.965,1.671-.965-1.671a3.893,3.893,0,0,0-5.318-1.425l-1.672.965v-1.93a3.893,3.893,0,0,0-3.893-3.893h-1.93l.965-1.671a3.893,3.893,0,0,0-1.425-5.318l-1.671-.965,1.671-.965a3.893,3.893,0,0,0,1.425-5.318l-.965-1.671h1.93a3.893,3.893,0,0,0,3.893-3.893V624.2l1.672.965a3.893,3.893,0,0,0,5.318-1.425l.965-1.671.965,1.671a3.893,3.893,0,0,0,5.318,1.425l1.671-.965v1.93a3.894,3.894,0,0,0,3.893,3.893h1.93l-.965,1.671a3.893,3.893,0,0,0,1.425,5.318l1.671.965Z" transform="translate(0)"/></g></svg>