<svg xmlns="http://www.w3.org/2000/svg" xmlns:xlink="http://www.w3.org/1999/xlink" width="210" height="292" viewBox="0 0 210 292">
  <defs>
    <linearGradient id="linear-gradient" x1="0.5" x2="0.5" y2="1" gradientUnits="objectBoundingBox">
      <stop offset="0" stop-color="#15d3a4"/>
      <stop offset="1" stop-color="#feffbb"/>
    </linearGradient>
  </defs>
  <g id="组_2972" data-name="组 2972" transform="translate(-465 -4741)">
    <rect id="矩形_1502" data-name="矩形 1502" width="210" height="292" rx="16" transform="translate(465 4741)" fill="#fce937"/>
    <text id="Loomee_Private_Club" data-name="Loomee Private Club" transform="translate(508 4970)" fill="#212353" font-size="16" font-family="aAntiCorona, a Anti Corona"><tspan x="-57.414" y="11">Loomee Private </tspan><tspan x="-15.852" y="35">Club</tspan></text>
    <rect id="矩形_57" data-name="矩形 57" width="210" height="210" rx="16" transform="translate(465 4741)" fill="url(#linear-gradient)"/>
    <rect id="矩形_70" data-name="矩形 70" width="180" height="180" rx="90" transform="translate(480 4756)" fill="#d9f5e8" opacity="0.5"/>
    <g id="组_1822" data-name="组 1822" transform="translate(-282.643 4323.703)">
      <g id="组_1815" data-name="组 1815">
        <circle id="椭圆_234" data-name="椭圆 234" cx="53.333" cy="53.333" r="53.333" transform="translate(799.067 470.6)" fill="#f2dcff"/>
        <path id="路径_1378" data-name="路径 1378" d="M804.052,504.112c.042.025-.11.389-.015.32l-.152.411c-.058.057.145-.561-.014-.171A3.149,3.149,0,0,1,804.052,504.112Zm.636-1.817c.006.046-.114.271-.087.289-.108.282-.128.167-.17.239-.119.2-.341.793-.362.636A9.7,9.7,0,0,1,804.688,502.3Zm-.593,1.84a6.823,6.823,0,0,1,.268-.678C804.4,503.483,804.142,504.3,804.095,504.135Zm3.452-7.481a2.8,2.8,0,0,1-.364.642c-.14.234.018.126-.077.308l-.766,1.251c-.249.392.1-.243.211-.389-.07.005-.3.409-.329.307-.135.236.023.125-.058.314a3.848,3.848,0,0,1-.7,1.11,5.02,5.02,0,0,1-.535,1.047,23.147,23.147,0,0,1,1.089-2.079c-.062.071-.168.29-.189.223.222-.49.557-1.019.641-.978.478-.675.648-1.209,1.017-1.8-.02.032.115-.04.192-.222-.041-.063-.3.4-.268.163a6.716,6.716,0,0,0,.52-.9c.139-.229.275-.358.48-.74.016.019-.08.166-.135.267-.207.461-.009.454-.425,1.156.168-.33.04-.317.174-.607a1.8,1.8,0,0,0-.249.361,1.565,1.565,0,0,0-.021.356C807.6,496.722,807.584,496.665,807.547,496.654Zm-2.247,4.819c.116-.048-.15.506-.278.682A2.111,2.111,0,0,1,805.3,501.473Zm1.447-2.868-.153.249c-.224.411-.239.38-.378.62-.577,1.151.087-.2.152-.422C806.476,498.92,806.706,498.548,806.747,498.605Zm-.96,1.974a4.958,4.958,0,0,1-.275.513c.037-.176.324-.707.154-.592C805.816,500.213,805.823,500.468,805.787,500.579Zm-.971,1.452c-.186.36-.068-.032.087-.289-.106.083-.441.923-.555,1.033.1-.329.237-.463.429-.938.068-.012.261-.436.3-.334C804.973,501.761,804.8,501.907,804.816,502.031Zm-1.174,2.848c-.152.114.323-1.173.355-.962A6.941,6.941,0,0,0,803.642,504.879Zm39.645,71.286c-.174.055.446.107.72.161-.128.025-.711-.038-.733-.115-.274-.039-.113.065-.322.048-.338-.1-.832-.128-1.169-.207-.057-.013.067-.054.022-.069-.093-.018-1.018-.24-.562-.185a5.315,5.315,0,0,1,.849.254,6.108,6.108,0,0,0,.894.09c-.164-.127-.482-.074-.88-.136-.458-.154-2.62-.661-3.575-.963,1.044.244,2.227.582,3.415.845l3.406.55C844.986,576.452,843.654,576.15,843.287,576.165Zm4.766.319a6.141,6.141,0,0,1,1.192-.009,2.6,2.6,0,0,1,.589.032C850.083,576.693,848.188,576.489,848.053,576.484Zm-1.308-.169c-.1,0-.241.029-.016.07.3.06.357.01.156-.024.285-.033.694.072,1.177.075l-.009.048a20.9,20.9,0,0,1-3.1-.278,8.707,8.707,0,0,0-1.163-.206c-.167-.057-.046-.045.02-.069a6.591,6.591,0,0,0-1.146-.251c-.111-.113,1.19.212.887.089.3-.029.412.135.556.184a.7.7,0,0,1,.426.114c.154.035.443.055.583.091.068.018,0,.073.28.093.154.018.071-.018.012-.047a5.881,5.881,0,0,0-.718-.161c-.025-.006.219-.009.159-.024-.249-.06-.855-.091-.716-.16Zm-.308.025a4.012,4.012,0,0,0-.717-.161C845.528,576.221,846.31,576.376,846.437,576.34Zm-42.218-73.3a5.962,5.962,0,0,0-.567,1.187,2.347,2.347,0,0,1,.441-1.091,4.086,4.086,0,0,1,.558-1.2c.2-.283-.186.338-.322.662A1.19,1.19,0,0,0,804.219,503.039Zm46.8,73.459c.574.014,1.3.181.426.143C851.962,576.587,850.93,576.577,851.021,576.5Zm-1.2.1.738.039C850.772,576.727,849.58,576.663,849.818,576.6Zm-46.2-71.244.151-.411.086.044-.151.41C803.746,505.152,803.673,505.4,803.619,505.358Zm38.632,70.185c.12-.046.676.053.761,0,1.008.166,2.267.33,3.043.5-.884-.075-1.915-.307-2.766-.406C842.838,575.578,842.7,575.608,842.251,575.543Zm-36.022-27.777a3.905,3.905,0,0,1,.483.813c.187.344.43.743.7,1.2a5.716,5.716,0,0,1-.623-.985C806.558,548.394,806.405,548.137,806.229,547.766Zm2.255-52.415c-.327.54.208-.144-.154.436.068-.065.2-.271.209-.2a6,6,0,0,1-.4.61c-.136.206-.42.745-.419.594a5.185,5.185,0,0,1,.4-.61c.166-.268-.054-.068-.057-.045.015-.116.342-.564.154-.436.4-.545.383-.732.691-1.126-.031.076-.051.156-.024.171C808.763,494.914,808.511,495.406,808.484,495.351Zm31.085,79.441a2.361,2.361,0,0,1,.853.223c.139.035.12,0,.158-.009a7.105,7.105,0,0,0,1,.237c.159.057.653.1.56.161l-1.309-.233C840.382,575.059,840.177,574.939,839.569,574.792Zm59-24.391c.189-.125-.571,1.242-.6,1.032.154-.253.151-.122.35-.48.179-.307-.139.1-.214.211-.343.545-.085.394-.449.964a3.24,3.24,0,0,1,.488-1.121C898.336,550.7,898.371,550.731,898.573,550.4Zm-7.421,9.828c-.235.273-.594.74-.632.621a4.152,4.152,0,0,0,.532-.511c.022-.146-.427.421-.379.235.276-.283,1.031-.989.8-.876.1-.208.556-.593.549-.493-.109.134-.3.309-.4.438-.053.068-.05.124-.068.146Zm1.718-1.417c-.268.375-1.036,1.145-1.5,1.674.108-.177.214-.354.091-.349.322-.389.206-.114.281-.129.285-.279.088-.168.154-.275.044-.071.218-.278.2-.221.023-.078-.014-.082-.165.039-.071.056-.109.15-.085.127a4.361,4.361,0,0,0-.65.605,2.24,2.24,0,0,1,.6-.659c.542-.584.45-.6.989-1.117.031.057-.3.4-.571.7l.049.053a7.775,7.775,0,0,1,.788-.9c.116-.132.056-.125.051-.162.262-.315.24-.185.433-.409a7,7,0,0,1,.5-.749c.054.061-.189.4-.47.785-.318.434-.239.4-.283.564-.36.446-.094-.056-.454.389C892.715,558.919,892.768,558.923,892.87,558.812Zm4.483-6.923c.078-.2.167-.233.329-.492.149-.238.205-.392.29-.52.22-.333.392-.505.6-.843-.1.408-.593.855-.833,1.408A2.715,2.715,0,0,0,897.353,551.889Zm-1.037,1.811a2.134,2.134,0,0,1,.379-.643,7.432,7.432,0,0,1,.562-1.057c-.363.664-.052.283.25-.179-.233.627-.69,1.048-1.066,1.79C896.433,553.573,896.391,553.611,896.316,553.7Zm-8.687,9.935.331-.3c-.029.1-.022.186-.373.5C887.457,563.861,887.707,563.643,887.629,563.635Zm.291.158a4.154,4.154,0,0,0,.584-.463,1.753,1.753,0,0,1,.3-.34c.01.036.022.072.154-.042C888.705,563.217,888.032,563.861,887.92,563.793Zm1.139-.965c.061-.186.533-.471.985-.922-.258.134.717-.708.994-1.126.146-.005-.483.621-.762.94A11.811,11.811,0,0,1,889.059,562.828Zm-.294.1c-.011-.021.125-.138.208-.22-.02-.037-.121.025-.265.142-.039-.008.621-.6.178-.257,0-.114.4-.336.456-.38.136-.111.31-.295.442-.4.057-.045.1-.027.141-.063.185-.129.355-.386.346-.278.182-.191.488-.57.434-.4a11.856,11.856,0,0,1-.972.919c-.209.167-.483.239-.693.562.224-.142.74-.645.737-.505C889.235,562.566,889.184,562.473,888.765,562.932Zm9.632-12.659c-.064.065-.128.127-.038-.029.147-.274.438-.7.711-1.2l.753-1.547c.22-.492.27-.46.02.013l-.662,1.44A11.32,11.32,0,0,1,898.4,550.273Zm-9.158,11.81c.185-.214.05-.221.477-.592-.307.324.367-.163-.146.294.1-.019.554-.5.494-.33-.449.337-.932.85-1.567,1.364.249-.31-.189.145-.168.022C888.813,562.364,888.8,562.5,889.239,562.083Zm.073-.388c-.391.287.789-.7.708-.761.306-.278.406-.485.713-.745a15.474,15.474,0,0,1-1.062,1.246C890,561.056,889.731,561.32,889.312,561.7Zm6.971-7.632a1.7,1.7,0,0,0,.232-.389c.194-.327.145-.117.367-.462-.121.345.127.036-.2.6-.113.043.084-.264-.031-.221-.217.315-.438.735-.166.444,0,.04-.081.128-.09.119l-.18.239c-.122.04.212-.358.089-.318a9.16,9.16,0,0,1-.788,1.088c-.047-.055.138-.332.268-.556A5.87,5.87,0,0,1,896.283,554.063Zm7.233-16.083c-.115.256.286-1.157.389-1.589A9.552,9.552,0,0,1,903.516,537.98Zm-1.409,5.711a6.831,6.831,0,0,0,.459-1.1,2.9,2.9,0,0,1-.343,1c.03.078-.179.577-.2.737a10.219,10.219,0,0,0,.55-1.56c-.009.028.052-.005.043.022a2.739,2.739,0,0,0,.122-.607,1.168,1.168,0,0,1,.2-.4c.12-.359.252-.792.342-1,.166-.549.108.018.274-.533.065-.2-.034-.029-.1.122a2.064,2.064,0,0,1,.151-.488c.064-.233.139-.493.178-.669-.017.19-.105.571-.129.753.031-.018.068-.134.089-.123.075-.331.073-.485.122-.757a7.483,7.483,0,0,0,.446-1.426c-.047.284-.077.532-.16.9a3.154,3.154,0,0,0,.174-.574,15.091,15.091,0,0,1-.817,3.069c-.089.239-.109.263-.148.262-.045.153,0,.122-.061.3-.1.3-.127.206-.148.262-.064.176-.049.255-.113.446-.1.309-.314.712-.461,1.11a18.825,18.825,0,0,1-.7,1.835c-.26.487-.565,1.057-.851,1.59a4.122,4.122,0,0,0-.176.419c-.447.9-.914,1.756-1.275,2.562a3.63,3.63,0,0,0-.275.357c.018-.132.492-.791.311-.7-.19.39-.4.787-.527,1.1-.438.56-1.059,1.71-1.608,2.538a5.152,5.152,0,0,1-.37.467,3.99,3.99,0,0,1-.654.814c-.01-.159.5-.708.658-1.005.242-.394.519-.848.7-1.151a1.525,1.525,0,0,0,.138-.271c.061-.093.25-.317.272-.353l.373-.655a8.8,8.8,0,0,0,.606-1.037c.079.006-.242.566.1.069.107-.2-.057.033-.059-.042a2.46,2.46,0,0,0,.361-.838c.547-1.034.86-1.743,1.3-2.522a4.617,4.617,0,0,0,.4-1.153,6.377,6.377,0,0,0,.56-1.22l.085.046C902.1,543.923,902.179,543.678,902.107,543.691Zm-2.189,4.933a.849.849,0,0,0,.171-.243c-.1-.058-.224.358-.433.783.095-.1.122.022.251-.188C900,548.656,899.734,549.091,899.918,548.624Zm.5-.918a6.541,6.541,0,0,0-.268.716.559.559,0,0,0-.131.27c.224-.518.18-.164.389-.636C900.261,548.151,900.512,547.682,900.417,547.706Zm.5-.919a3.742,3.742,0,0,0-.475.758c0,.149.145-.156.168-.069C900.775,547.155,900.714,547.159,900.916,546.787Zm2.565-5.916c.045-.108.079-.155.1-.121.115-.35.249-.736.173-.746A4.168,4.168,0,0,0,903.481,540.871Zm-1.65,4.2a11.875,11.875,0,0,0-.525,1.083C901.4,545.995,902.025,544.773,901.831,545.066Zm.029-.5a5.015,5.015,0,0,0-.637,1.529C901.614,545.33,901.46,545.412,901.86,544.569ZM852.046,576.6c.5.043.2-.073.744-.071-.06.081-.612.081-.46.183C852.071,576.693,852,576.654,852.046,576.6Zm53.692-52.668a6.867,6.867,0,0,1-.048,1.345A10.488,10.488,0,0,1,905.738,523.933Zm-6.991,26.228c.267-.5.2-.206.429-.609-.047.222-.411.609-.448.778C898.442,550.749,898.939,549.972,898.747,550.161Zm.718-.77c.089-.039-.114.267-.093.3a7.328,7.328,0,0,0-.547.9A5.809,5.809,0,0,1,899.465,549.391Zm1.006-3.226.259-.533c-.018.081-.034.16,0,.17l.13-.267c.076-.17.023-.158-.042-.024a2.3,2.3,0,0,1,.345-.655c-.029-.039-.123.138-.148.085a4.172,4.172,0,0,0,.595-1.35c.034.07-.231.666-.12.6-.027.085-.2.394-.2.394a.272.272,0,0,0-.023.158c-.14.291-.3.568-.584,1.2C900.641,545.926,900.479,546.3,900.471,546.165Zm-90.414-52.921c.072.024-.251.474-.4.617C809.626,493.809,809.836,493.532,810.057,493.244ZM900.2,547.216a4.562,4.562,0,0,0,.565-1.218c.22-.513.236-.351.431-.78.28-.508.25-.742.448-1.105a3.84,3.84,0,0,1-.406,1.129A11.018,11.018,0,0,1,900.2,547.216Zm-.11.281c.112.207-.547,1.159-.765,1.8-.023-.219.032-.086-.209.217C899.279,549,899.817,548.244,900.091,547.5Zm.706-.959c.118-.241.114-.3.24-.55.186-.167-.275.585-.2.576-.33.629-.639,1.191-1.021,1.993C899.653,548.742,900.612,546.915,900.8,546.538Zm3.128-21.933a4.525,4.525,0,0,1,.247,1.2l-.015.729a7.771,7.771,0,0,1-.022,1.314c0,.3.026.479.033.74a10.045,10.045,0,0,1-.155,1.427c-.064.434-.122.836-.177,1.215-.109.758-.208,1.429-.339,2.109a3.614,3.614,0,0,1,.02-.446c-.088.079-.09.375-.134.711a5.536,5.536,0,0,0-.3,1.111,4.457,4.457,0,0,0,.373-1.239,9.036,9.036,0,0,1-.324,1.714c-.014-.268-.185.388-.017-.311a4.155,4.155,0,0,0-.243.834c.078,0,.207-.534.269-.366l-.184.7c.207-.918-.191.115-.237.53.03.03.089-.3.133-.413a11.165,11.165,0,0,1-.248,1.142c-.047.084-.108.315-.141.256a9.439,9.439,0,0,1-.468,1.517,5.666,5.666,0,0,0,.257-1.754c.045-.149.069-.078.118-.263.094-.425-.083.116-.091-.034.155-.52.147-.678.269-1.126.1-.117-.041.326-.1.575.071.166.308-.97.291-1.118.1-.444.153-.293.265-.824a2.579,2.579,0,0,0,.016-.447c-.043-.008-.082.459-.084.425-.054.181-.1.205-.155.4a11.023,11.023,0,0,1-.292,1.117c.137-.618.315-1.244.435-1.886.089-.649.178-1.3.267-1.948.071.2.14.2.233.065.085-.433.025-.431.11-.864.039-.394-.1.369-.139.113l.111-.714c-.116.033-.159.432-.225.98-.037-.371.171-1.474.24-2.158.007.08.015.157.048.159a3.931,3.931,0,0,0,.05-.724,1.416,1.416,0,0,0-.077.275c-.013-.617.03-1.716.055-2.6.026.167.05.165.08-.132.034-.316-.056-.6-.08-.3a5.186,5.186,0,0,1,.022-.864C903.708,525.068,903.837,525.026,903.925,524.6Zm-.907,10.241a2.806,2.806,0,0,0-.315,1.113C902.84,535.577,902.845,535.382,903.018,534.846Zm.425-2.573c-.129.416-.154.583-.253.376-.139.729.107.247.073.468-.093.2-.269,1.319-.157,1.3a1.737,1.737,0,0,0,.047-.586A7.367,7.367,0,0,0,903.443,532.273Zm.329-3.037a5.1,5.1,0,0,0-.133,1c-.021.2-.171.913-.065.726.054-.023.1-.626.158-.7A5.036,5.036,0,0,1,903.772,529.236Zm.1.317c.048.057.125-.284.135-.561C903.924,528.83,903.936,529.179,903.868,529.553Zm-.1-1.047a1.6,1.6,0,0,0,.042.591,4.911,4.911,0,0,0,.053-.573Zm-.048-.447c.011.121.144.42.15-.116C903.877,527.721,903.706,527.594,903.716,528.059Zm.011-2.03c.007-.151-.024-.118-.031.14.076.05.124-.153.15-.558C903.776,525.474,903.788,526.082,903.727,526.029ZM863.04,575.577a5.777,5.777,0,0,1-1.172.1c.633-.126.831-.051,1.454-.225C863.288,575.491,863.038,575.545,863.04,575.577Zm-.446-.029c-.495.024.658-.2.86-.225C863.307,575.427,862.749,575.453,862.594,575.548Zm4.709-1.2a5.462,5.462,0,0,1-1.7.482c-.264.087-.517.173-.85.266-.029-.014.053-.037.14-.061.024-.027-.058-.008-.145.013.416-.217,1.9-.374,1.843-.543C866.986,574.38,866.962,574.442,867.3,574.345Zm-5.87,1.425c-.71.085-.746.181-1.456.266.006-.1.91-.2,1.161-.295.23-.014.874-.035.445.079.02.072.564-.159.584-.087-.014.1-.651.168-1.019.2C861.019,575.876,861.373,575.825,861.433,575.77Zm3.907-.679-2.293.558a4.163,4.163,0,0,1,1.414-.508c.24.037-.616.165-.564.218A12.65,12.65,0,0,1,865.34,575.091Zm26.621-16.174c-.048-.009.129-.233-.048-.054.1-.217.459-.476.448-.384Zm-33,17.321c.392-.078.72-.067,1.46-.219-.044.064-.692.118-.582.184C859.49,576.231,858.908,576.334,858.957,576.238Zm-5.713.126a9.036,9.036,0,0,1,1.906-.091c.127.084-.265.015-.44.02C854.293,576.307,853.612,576.375,853.244,576.364Zm13.668-1.7c.908-.235.072-.177.976-.4-.07.086-.437.2-.4.275a5.579,5.579,0,0,1-1.44.316C866.485,574.77,867.241,574.482,866.912,574.667Zm-11.026,1.523c.349-.074,1.316-.068,1.906-.117A14.233,14.233,0,0,1,855.886,576.19Zm1.611.14a4.763,4.763,0,0,0,.876-.078c-.04.056-.543.1-.583.16C857.591,576.406,857.516,576.374,857.5,576.33Zm-3.834.254c.05-.066-.2-.07-.582-.044.35-.126,1.175-.044,1.769-.133a1.045,1.045,0,0,0,.436.075c.441-.036-.139-.044.005-.1a4.273,4.273,0,0,0,.586,0c.14.038-.444.1,0,.1a2.845,2.845,0,0,1-.885.066,4.532,4.532,0,0,1-.593.076c-.066-.048.214-.056.446-.069.044-.041-.136-.035-.143-.066a12.53,12.53,0,0,1-1.485.215c.378-.128-.205-.034-.588.005-.014-.043.185-.06.157-.1C853.234,576.563,853.211,576.623,853.663,576.584Zm5.578-.777a13.139,13.139,0,0,0,1.449-.217c.258-.041.309-.022.581-.063s.3-.072.579-.11a30.048,30.048,0,0,0,4-.9c-.017.142-.942.285-1.273.373a7.912,7.912,0,0,1-.992.277c-.178.052-.138.085.006.048-.138.1-.633.142-.576.073-1.239.224-2.142.312-3.045.508A2.618,2.618,0,0,1,859.241,575.807ZM892.827,557.9c-.3.25.53-.71.713-.949a2.151,2.151,0,0,1-.338.489C893.025,557.654,892.822,557.847,892.827,557.9Zm1.534-.963c-.178.225-.4.431-.573.682-.12,0,.626-.79.556-.7l.7-.973c.267-.356.513-.634.718-.954.053,0,.2-.169.4-.446a15.9,15.9,0,0,1-1.1,1.417C894.788,556.327,894.606,556.629,894.361,556.936Zm-1.134.739c.126-.028-.325.4-.117.306a1.171,1.171,0,0,1-.334.294A2.334,2.334,0,0,1,893.227,557.675Zm-.451.6c-.288.308.229-.018-.219.417-.171.1.226-.4-.081-.089C892.467,558.53,892.708,558.267,892.776,558.275Zm.667-.161a3.349,3.349,0,0,0,.576-.683C894.338,557.071,893.351,558.482,893.443,558.114ZM873.8,571.536c.545-.268.524-.216.923-.442.058.122-.8.352-.622.43C873.668,571.76,873.875,571.551,873.8,571.536Zm13.4-8.747c.531-.583,1.358-1.213,1.954-1.763.461-.449.646-.823.97-1.1.072.022-.353.44-.56.685a4.6,4.6,0,0,1-.49.552,1.486,1.486,0,0,1-.231.176c-.124.11-.393.431-.558.471A8.807,8.807,0,0,1,887.205,562.789Zm7.5-6.55a6.037,6.037,0,0,1-.414.63C894.17,556.893,894.544,556.39,894.706,556.239Zm.646-1.419c.164-.16.385-.427.589-.662a13.69,13.69,0,0,1-1.626,2.32c-.1.142-.043.13-.037.169a5.532,5.532,0,0,0-.788,1.088c-.3.36-.308.245-.548.5a12.589,12.589,0,0,0,1.016-1.282,2.809,2.809,0,0,1,.36-.678c.053-.006-.055.141-.037.169C894.776,555.721,895.494,554.958,895.352,554.82Zm-1.981,1.755a3.562,3.562,0,0,1,.741-1.1c.065-.166.682-1.062.723-.92C894.331,555.226,893.7,556.171,893.371,556.575Zm-19.948-80.783c-.634-.311-1.733-.662-2.48-.93.352.1.786.239,1.228.395l.66.24ZM842.66,577.233a2.82,2.82,0,0,1,.906.117A2.82,2.82,0,0,1,842.66,577.233Zm1.082.047-1.346-.209A4.16,4.16,0,0,1,843.742,577.28Zm-.215.21a2.094,2.094,0,0,1-.758-.094A1.921,1.921,0,0,1,843.527,577.49Zm-8.849-2.538a8.024,8.024,0,0,1-1.005-.345A3.97,3.97,0,0,1,834.678,574.952Zm9.09,2.794c1.079.132,1.592.26,2.414.374-.242.055.674.109.432.164-.491-.106-.962-.155-1.354-.234-.03-.006.038-.038.011-.046-.124-.04-.6-.078-.754-.117-.234-.016.032.041-.176.069-.35-.134-.8-.124-1.347-.258-.173-.022-.091.01-.007.023-.169.048-.4-.089-.6-.117-.049-.062.924.083.481-.022.3-.011.754.156.425.163C843.443,577.742,843.855,577.825,843.768,577.746Zm3.126-.027a10.088,10.088,0,0,1-1.656-.206C845.573,577.459,846.29,577.689,846.894,577.719Zm-14.647-3.307c.053-.044-.183-.147-.381-.243a1.362,1.362,0,0,0-.321-.042c-.335-.12-.505-.256-.958-.456.358.107.1-.037.47.095.52.291-.039.012-.048.083.483.223.532.095,1.307.435-.108.1.242.16.821.381-.054.09-.581-.088-1.2-.316C831.906,574.294,832.071,574.35,832.247,574.412ZM846.365,578a13.359,13.359,0,0,0,1.363.121A4.2,4.2,0,0,1,846.365,578Zm-1.589.094a4.021,4.021,0,0,1-.763-.095C844.1,577.921,844.547,578.021,844.776,578.1Zm-15.2-4.808a4.626,4.626,0,0,1-.862-.337C828.753,572.888,829.231,573.134,829.58,573.289ZM825.8,571.34a3.431,3.431,0,0,0,.375.257,4.59,4.59,0,0,1-.822-.417C825.416,571.164,825.728,571.356,825.8,571.34Zm21.7,6.411,4.68.274c.471.06-.549-.007-.91-.024l-4.082-.218C847.139,577.739,847.314,577.744,847.5,577.751ZM820.521,568c-.531-.388-.429-.4-.283-.363C820.613,567.906,820.437,567.882,820.521,568Zm-5.488-4.183c-.3-.265-.479-.45-.4-.459C814.937,563.621,815.115,563.8,815.033,563.815Zm4.576,3.827a18.522,18.522,0,0,1-2.394-1.9c-.348-.333-.31-.183-.713-.586.035.006.13.087.148.071-.591-.575-.86-.746-1.279-1.1.235.054-.2-.336-.453-.61a5.7,5.7,0,0,1,1.2,1.165,3.063,3.063,0,0,1,1.009.726c0,.09-.437-.367-.5-.362.056.15.388.34.469.4.1.115.55.47.68.612.012.013-.048.024-.035.033.155.12.307.183.522.333a1.308,1.308,0,0,1,.227.2,3.566,3.566,0,0,1,.609.459l.227.2C819.454,567.415,818.977,567.172,819.609,567.642Zm-.439-.42c-.563-.4-.878-.821-1.011-.7A5.666,5.666,0,0,0,819.17,567.222Zm11.142,6.023a3.616,3.616,0,0,1,.965.44A8.008,8.008,0,0,1,830.312,573.245Zm-.335-.03c.312.074,1.125.573,1.663.742A10.944,10.944,0,0,1,829.977,573.215Zm-16.56-11.972a6.212,6.212,0,0,1-.83-.883C812.351,560.036,813.2,561.006,813.417,561.243Zm3.712,3.546c-.427-.332-.982-.866-1.58-1.413l-1.217-1.121c-.377-.374-.546-.6-.1-.118ZM799.5,520.732c.128-.382-.06,1.143-.04,1.639a3.707,3.707,0,0,1,.04-1.189A1.585,1.585,0,0,0,799.5,520.732Zm.19-2.207c-.045.537-.091,1.07-.119,1.772A6.319,6.319,0,0,1,799.693,518.525Zm.346-.981c.06-.363.086-.024.094.022-.053.362-.108.441-.161.717C799.928,518.154,800.131,517.61,800.039,517.544Zm53.346,60.47a22.331,22.331,0,0,1,2.269-.107C854.934,578,853.863,577.991,853.385,578.014Zm-38.524-14.648c-.2.082-1.179-.737-1.718-1.533-.151-.153-.043.016.064.142a6.888,6.888,0,0,1-.885-1.049c-.126-.139-.068-.031-.019.014a11.328,11.328,0,0,1-1.106-1.26c-.184-.149-.59-.643-.593-.513l-1.3-1.7a4.793,4.793,0,0,0-.443-.8c-.264-.272.463.707.057.319-.191-.243-.282-.388-.232-.394-.611-.838-1.462-1.926-1.891-2.595-.176-.283-.234-.425-.173-.424a7.72,7.72,0,0,1-.991-1.548,10.245,10.245,0,0,1-.7-1.018c.011-.082.155.168.282.373-.139-.366-.526-.807-.688-1.187-.094-.147-.066-.063-.022.009-.164-.1-.118-.214-.2-.41l-.331-.689-.33-.689a4.213,4.213,0,0,1-.152-.429c-.075-.157-.223-.324-.332-.528s-.092-.251-.175-.422c-.056-.113-.09-.126-.155-.268-.249-.543-.371-.91-.569-1.248a2.028,2.028,0,0,0,.14.356,10.511,10.511,0,0,1-.748-1.921c-.086-.214-.188-.471-.284-.712-.029-.082-.087-.327-.185-.58-.077-.2-.046-.019-.1-.133-.121-.252-.247-.741-.365-1.006a1.557,1.557,0,0,1,.255.564c-.172-.582.157.174.09-.176-.047-.114-.076-.137-.128-.281-.17-.425,0,.149-.094.022a3.926,3.926,0,0,1-.208-.574l-.2-.422c-.026-.068-.163-.669-.223-.573-.1-.326-.009-.219-.066-.452-.055-.253-.09-.277-.123-.288a9.715,9.715,0,0,0-.453-1.778c-.069-.381-.106-.687-.228-1.194-.055-.049-.016.122.027.3-.1-.249-.128-.54-.287-1.034-.073-.274-.105-.082-.172-.287-.093-.467-.193-.64-.248-.894l-.115-.758c-.1-.537-.224-1.333-.35-2.2a23.252,23.252,0,0,1-.307-2.653,4.335,4.335,0,0,1-.028-1.07c0-.339-.056-.22-.07-.461-.041-.887-.076-1.643-.108-2.339l-.037-1c.014-.321.048-.632.08-.94a6.192,6.192,0,0,1-.03.893,7.89,7.89,0,0,0,.052.944c.095.217.024-.54.005-.912a4.08,4.08,0,0,1,.044-.454c.012-.368-.03-.531-.007-.77a11.931,11.931,0,0,0,.1-2.295c.052-.675.075-1.291.1-1.849a8.526,8.526,0,0,1,.251-1.487c.047-.888.373-2.544.564-3.625a11.076,11.076,0,0,1,.575-2.534c.186-.783.375-1.576.533-2.238a20.289,20.289,0,0,1,.852-2.617,21.193,21.193,0,0,0,.773-2.163,6.274,6.274,0,0,0,.425-1.148,2.77,2.77,0,0,1,.208-.407l1.227-2.642.689-1.362a7.142,7.142,0,0,1,.392-.837l.578-.9c.263-.442.485-.918.779-1.32.077-.128.038-.12.042-.161.2-.3.392-.574.658-1.03.3-.361.462-.562,1.029-1.316.238-.2-.288.575-.093.523a5.9,5.9,0,0,0,.639-.851c.122-.2-.052.009.02-.186.33-.469.267-.2.529-.543.36-.436.216-.388.513-.763.019.046.149-.113.161-.054.331-.408.326-.492.623-.867.053-.006-.057.144-.04.173a4.431,4.431,0,0,1,.863-1.054c.122-.135.028-.074-.017-.017A13.947,13.947,0,0,1,812,487.845c.181-.225.023-.132.291-.354a5.193,5.193,0,0,0,.552-.746c.154-.134.185-.083.369-.262a3.975,3.975,0,0,1,.292-.355c-.034-.046-.222.138-.2,0,.263-.288.137-.123.134-.075.3-.3.243-.325.5-.58.292-.242.693-.36.819-.676a1.133,1.133,0,0,0-.338.306c-.2.15-.185.03-.314.091.261-.257.494-.494.889-.838-.014.086-.622.558-.521.569a9.321,9.321,0,0,0,1.426-1.387c.385-.313,1.067-.992,1.073-.839.436-.36.288-.341.651-.652.217-.171-.053.082-.213.224.084.009.792-.553.445-.143a6.348,6.348,0,0,0,.849-.639,6.049,6.049,0,0,0-.635.413c.177-.176-.268.028.289-.394.573-.424-.115.128.051.081.41-.31.487-.463.731-.544.358-.286-.143.043-.05-.083.254-.135.816-.584,1.234-.887.255-.144-.163.247.3-.076a1.279,1.279,0,0,0,.342-.314c-.044-.01-.368.263-.39.23-.165.022.362-.315.587-.5-.155,0-.5.349-.867.614a8.827,8.827,0,0,1,1.445-1.132c-.029.06-.2.193-.211.246a2.737,2.737,0,0,1,1.2-.645c.1-.067.119-.1.25-.178a3.71,3.71,0,0,1-.749.2c.3-.157.543-.272.576-.208a2.137,2.137,0,0,0,.62-.459c.182-.091.265-.1.3-.07a5.238,5.238,0,0,1,.772-.494,2.459,2.459,0,0,1,.541-.27c.473-.306-.086-.033.212-.268l-.392.236c.114-.122.942-.588.812-.4a8.8,8.8,0,0,1,1.339-.713c-.364.079-1.435.739-1.126.444a6.88,6.88,0,0,1,.687-.314c.11-.058.128-.088.266-.154,0-.048-.187.033-.173-.024a2.322,2.322,0,0,0-.528.312c-.127.046.063-.1.334-.237a7.3,7.3,0,0,1,.753-.316c.033.032-.15.128-.1.156A7.9,7.9,0,0,1,828.8,475c.251-.168-.144-.021-.315.018.736-.428,1.469-.554,2.354-1.071.421-.212.182-.021.713-.251.465-.147.28-.168.553-.278.7-.2,1.125-.4,1.593-.5a1.866,1.866,0,0,1,.419-.2c.189-.094.167-.147.407-.25-.165.028-.135,0,.134-.1.054.057-.369.289.18.114.368-.14-.206.03-.021-.1.559-.187.884-.372,1.282-.515.546-.156.951-.162,1.635-.351.356-.081-.1-.088.433-.185.459-.127.077.011.155.01.1,0,.479-.112.454-.041.591-.18.172-.128.423-.256a14.431,14.431,0,0,0,1.628-.413c.326-.031-.01.083-.135.158.251-.018.907-.239,1.49-.324-.122.1.109.091-.441.211a3.2,3.2,0,0,0,.6-.066c.332-.053.057-.111.141-.167.459-.067.356-.141.9-.208.176-.03.125-.063.147-.1.985-.114,1.889-.283,2.718-.381.147-.023.117-.047.151-.071a12.185,12.185,0,0,1,1.521-.117c.028,0-.026.046,0,.049.129.013.6-.045.762-.037.166-.014.1-.053.307-.063.193-.087-.493.005-.3-.082.69-.1.37.123,1.219-.01.04.037-.147.049-.158.08a9.26,9.26,0,0,1,1.067-.051c.179-.012.132-.05.159-.079.906,0,1.47-.085,2.292-.046-.039.033-.456-.015-.463.024.183.088,1.686-.008.619-.04a8.214,8.214,0,0,1,1.073.033c-.073.046.095.069.138.1.173.005.088-.019,0-.023.378-.065,1.467.157,1.687.042.483.014.332.091.906.1.082-.047-.208-.057-.448-.073a5.2,5.2,0,0,1,1.063.082c.264.02-.177-.122.471-.014.326.039.28.078.286.117.5.1.959.09,1.529.164.09.012.176.05.3.07a1.94,1.94,0,0,0,.309.024l1.663.259,1.058.169a6.187,6.187,0,0,1,1.037.269,3.244,3.244,0,0,0,.584.176,1.549,1.549,0,0,0,.165-.006c.055.013,1,.374,1.194.285l1.788.442c.174.038.645.151.6.146.19.073.206.126.412.2.457.17.426.072.718.265l.462.094,3.139,1.127c.994.423,1.934.885,2.842,1.284a1.108,1.108,0,0,1,.237.2c.689.273,1.383.56,2.05.9l1.929,1.129c.34.217.161-.01.569.264-.109.022.1.178.318.335.144,0-.33-.256-.187-.255.328.2.64.387.626.439.186.1.277.11.324.086a15.432,15.432,0,0,1,2.15,1.488c-.407-.168-.4-.141-.546-.079.254.2.256.149.293.13a1.248,1.248,0,0,1,.393.475c.63.414,1.105.886,1.5,1.07.281.194.142.163.333.31.137.1.117.029.279.15a6.6,6.6,0,0,1,.816.689c.032.1.108.222.512.565.317.181-.905-.863-.173-.256.193.161.413.38.452.413.287.244.373.28.488.381.2.178.223.237.434.429a26.663,26.663,0,0,1,2.451,2.311c.124.131.121.07.16.07a20.346,20.346,0,0,0,1.91,2.006c.221.227.317.387.495.583a3.5,3.5,0,0,0,.348.316c.127.136.106.182.166.254l.478.6c.173.223.312.363.571.727a3.326,3.326,0,0,0-.346-.506,10.764,10.764,0,0,1,.846,1.1c-.264-.254.2.4-.2-.062.027.146.226.2.479.6.173.142-.158-.363.084-.048.365.485-.062-.021.12.282.161.235.162.121.246.211s.461.67.409.471a11.926,11.926,0,0,1,1.169,1.8c-.108-.032.088.328-.13.064.274.525,1.065,1.835,1.427,2.363.075.109.09.1.123.112.737,1.049,1.187,2.4,1.583,2.982a5.969,5.969,0,0,0,.774,1.508c.156.386.363.711.552,1.1.142.26.217.644.312.864.062.159.163.323.2.421.238.568.481,1.283.705,1.873l.8,2.167c.149.508.287.858.414,1.331.146.547.264,1.093.442,1.639-.1-.1-.049.164-.106.168-.124-.562-.174-.313-.285-.732a8.152,8.152,0,0,0,.226.893c-.169-.36-.336-.458-.226.181.014.084.127.321.161.438.075.316.276,1.025.383,1.635a10.018,10.018,0,0,1,.228,1.359c.136.331.346,1.9.527,2.871.056.3.123.446.185.758.111.875.078,1.782.114,2.6-.1-.087-.081.384-.147.448.005.842-.149.9-.162,1.654-.1-.312-.1,0-.1.443-.144-.568-.149.378-.244.425,0-.243-.035-.262-.045-.455a3.2,3.2,0,0,0,0,.6c-.077-.367-.079-.074-.142-.464-.044-.059-.04.112-.034.295-.025-.2-.071-.116-.111-.31-.008-.043-.005-.268-.014-.3-.045-.156-.106.068-.128-.161-.009-.1.026-.169.01-.3a1.834,1.834,0,0,0-.149-.608c-.005-.517-.063-.576-.074-1.047-.012-.175-.049-.128-.079-.153.046-.718,0-2.139.039-2.68l-.177-1.184c-.154-.051-.129.466-.227.594-.165-.976-.134.1-.262-.292l-.088-.586c-.057,0-.033.254-.123.149l-.217-1.61a1.507,1.507,0,0,0,.009-.591c-.083-.511-.063.016-.116-.289l-.087-.586.1-.007a3.342,3.342,0,0,0-.261-1.159c-.031.016.261.853.1.727l-1.12-4.451c-.056-.187-.1-.219-.156-.422-.056.007-.007.259-.106.169-.188-.688-.275-.587-.509-1.39-.122-.124.07.318.154.564.14.444-.121-.239-.175-.41a24.472,24.472,0,0,1-.985-2.926,4.976,4.976,0,0,1-.473-1.088c.05.02.159.411.2.4.01-.031-.027-.145,0-.152a1.535,1.535,0,0,0-.385-.647c-.465-.918-.732-1.673-1.145-2.392.394.655-.214-.58-.317-.665-.207-.412-.4-.878-.636-1.3l-.7-1.155c-.573-.912-1.194-1.972-1.785-2.967-.673-.94-1.331-1.8-1.842-2.4-.142-.219.025-.039.061-.037a.73.73,0,0,1-.154-.249c-.253-.337-.249-.259-.481-.567-.157-.208-.329-.527-.488-.736-.182-.255-.3-.264-.519-.533-.22-.236-.3-.359-.237-.369a4.139,4.139,0,0,1-.752-.725c.046.012.21.208.237.191-.084-.155-.416-.458-.673-.78l-.159-.248a22.431,22.431,0,0,0-2.063-2.116,1.231,1.231,0,0,0-.273-.152,17.124,17.124,0,0,0-1.743-1.593l.053-.049a4.359,4.359,0,0,0-.706-.549c-.317-.322.171.07.179.033a4.27,4.27,0,0,0-.833-.625,16.756,16.756,0,0,0-1.686-1.208l-.439-.39c-1.684-1.262-3.847-2.384-5.862-3.712a7.689,7.689,0,0,0-.957-.412c-.519-.269-.919-.5-1.564-.812l.051-.082a9.076,9.076,0,0,1-1.751-.8,5.591,5.591,0,0,1,.929.452,5.138,5.138,0,0,1,.848.3,2.648,2.648,0,0,0-.507-.3c.449.174.278-.03.5.03.535.145,1.2.544,1.924.827.25.133.571.286.493.32l.535.271c-.006-.053-.186-.178-.48-.349a14.3,14.3,0,0,1,1.523.931c-.186-.025-.1.015.055.174a3.664,3.664,0,0,1,.775.446c0-.035.054-.017.156.039.015-.078-1.067-.608-.844-.6.552.338,1.147.693,1.508.951.488.276.062-.061.331.061a8.756,8.756,0,0,1-1.018-.622c.045-.025.134-.012.315.08a1.509,1.509,0,0,0-.338-.291c-.488-.247.184.19.053.173-.265-.175-.264-.121-.3-.1-.4-.224-.448-.3-.748-.486a3.256,3.256,0,0,1,.523.292c-.131-.206-.689-.406-.919-.506A5.793,5.793,0,0,1,878,477.1c-.27-.145-.1.068-.584-.2a1.114,1.114,0,0,1-.334-.295,4.116,4.116,0,0,1-.457-.115l-2.149-1.041-1.194-.584c-.411-.183-.845-.321-1.266-.481-.319-.125-.188.005-.453-.09a2.515,2.515,0,0,0,.536.249c-.418-.072.088.193.176.3l-.279-.1-.278-.1c.233.008.182-.081-.351-.283-.137.028.467.2.223.21a5.971,5.971,0,0,0-1.4-.492,5.989,5.989,0,0,0,.834.308c.536.207.794.368,1.206.547-.211-.044-.559-.071-.07.128-.468-.137-.923-.267-1.3-.352-.385-.124-.256-.145-.531-.247-.371-.161-.713-.243-1.116-.387-.228-.081-.227-.111-.405-.175a10.913,10.913,0,0,0-1.269-.387c-.856-.243-2.634-.685-3.565-.927a2.86,2.86,0,0,0-.863-.2c-.4-.065-.277-.1-.566-.146-.245-.047-.28-.025-.3,0-.474-.053-.177-.108-.562-.16a11.172,11.172,0,0,1-1.166-.182c-.172-.023-.134.024-.165.048a18.019,18.019,0,0,0-1.881-.342,1.238,1.238,0,0,0-.307.024c-.8-.122-2.222-.144-3.772-.243-.776-.023-1.587-.122-2.375-.081l-2.238.128-1.179.1-1.393.067a9.369,9.369,0,0,0-1.242.191c.747-.092.52-.012-.29.116.473-.058-2.991.4-4.207.665-.234.062-.245.037-.429.085-.257.066-.632.19-.995.278l-.715.157c-.334.087-.56.214-1.275.373a3.88,3.88,0,0,1-.435.061c-.218.058-.453.18-.7.251a2.77,2.77,0,0,0-.423.115l-1.094.448c-.355.131-1.85.652-2.346.851-.151.06-.116.109-.4.2-.049-.024.119-.087.118-.12-.248.087-.283.134-.545.223-.015.035.042.03.151,0-.041.085-.433.158-.289.053-.311.16-.469.251-.792.393l-.911.489-.8.357c-.783.4-1.815.863-2.489,1.256-.323.19-.671.46-.984.651-.2.124-.224.114-.387.2-.381.214-.712.463-.994.628-.247.144-.479.241-.649.335l-.765.433a2.573,2.573,0,0,0-.346.283c-.192.147-.209.129-.364.241-.21.153-.238.208-.459.372l-.718.5a20.864,20.864,0,0,1-1.872,1.42c-.033.061-.277.24-.568.5l-.952.888-.558.471-1.72,1.612c-.579.511-1.025,1.115-1.508,1.586a4.533,4.533,0,0,0-.608.63c.034,0,.193-.181.312-.306-.185.266-1.1,1.278-1.12,1.154-.026.119-.224.285-.561.684-.172.184-.344.514-.788,1.063-.078.018.093-.2.229-.386-.069.056-.268.21.037-.169-.109.026-.172.267-.352.469.053-.106.056-.165.02-.185-.264.317-.205.328-.425.6.029-.2-.357.278-.494.537.172-.093.556-.588.669-.57a6.078,6.078,0,0,0-.37.652c-.149.149-.2.114-.353.269-.252.342-.128.36.159-.051a1.566,1.566,0,0,1-.706.738c-.124.251-.482.724-.314.7a1.445,1.445,0,0,0-.246.367c-.234.2-.568.775-.663.771.19-.334.382-.627.362-.453l.44-.584c0-.157-.446.546-.443.39a2.707,2.707,0,0,1,.459-.571c-.087-.018-.444.474-.55.492-.269.364-.288.613-.533.884-.08-.078.408-1.022.28-.906.171-.3.494-.622.781-1.078-.112.228.031.01.072.065.425-.55.047-.334.514-.924.227-.3.122-.131.124-.085.207-.252.093-.2.231-.387.384-.559.4-.418.745-.911.268-.416-.226.2-.174.033.083-.042.42-.562.478-.557.207-.286-.144.085-.229.185.174-.335.681-.8.925-1.162-.245.147-.322.413-.583.673-.083.007-.441.476-.265.148-.428.52-.3.513-.68.983-.316.409-.114.054-.463.576-.163.245-.243.394-.411.626-.2.2-.428.477-.678.781-.284.421.254-.325.143-.07a8.833,8.833,0,0,1-.687.945,3.486,3.486,0,0,0-.46.787,5.628,5.628,0,0,0-.579.855c.031-.3.473-.673.6-1.027-.34.378-.757.941-1.119,1.37-.214.5.3-.255.5-.544.038.1-.6.985-.35.849a1.136,1.136,0,0,1-.271.35,11.642,11.642,0,0,1-.813,1.421c-.019-.064.339-.564.252-.549l-.6.845c-.168.341-.063.311-.012.349a10.226,10.226,0,0,1-.538,1.054c-.113-.025.31-.568.348-.828a9.973,9.973,0,0,0-.6,1.189c.028.041.122-.136.146-.081l-.583,1.2c-.246.386.477-.949.327-.839-.2.292-.439.982-.692,1.482.418-.678-.328.755-.538,1.227-.21.369.3-.7.429-.948a3.994,3.994,0,0,0-.605,1.353,8.664,8.664,0,0,0-.689,1.8c.12-.168.365-.965.535-1.381.055,0-.172.5-.235.707a7.729,7.729,0,0,0-.419,1.273,20.949,20.949,0,0,0-.886,2.354c-.035.159.019.117-.03.307-.091.38-.153.458-.2.393-.178.992-.455,1.557-.636,2.443-.121.272-.028-.08-.053-.177-.054.235-.086.241-.135.424s.019.213.068.024c0,.426-.254,1.029-.316,1.61.031.023.062.045.092-.125-.008.356-.142.784-.181,1.326,0-.329-.118-.092-.185.253-.055-.117.071-.308.091-.587-.046-.043-.093.1-.138.419-.08.649.133-.043.117.341-.147.639-.152.7-.3,1.6l-.07-.018c-.114.733-.063.963-.2,1.778-.039-.222-.076.229-.087.282-.035.1-.094-.117-.111.277.031.5.1-.525.182-.262-.016.591-.113.407-.127,1.025,0,.209.042.02.056-.14a5.72,5.72,0,0,1-.079,1.034c-.021.361,0,.822-.016,1.2s-.075.726-.056,1.039c-.041.036-.033-.146-.063-.158a6.292,6.292,0,0,1-.024.894c-.058.039,0-.432-.048-.455a5.175,5.175,0,0,0,.02.9c.045-.086.073-.614.155-.577a5.427,5.427,0,0,0-.01.593c-.006.043-.046-.229-.055-.155a9.417,9.417,0,0,0-.05,1.474c.041.408.032-.447.1.008l.009,1.184-.073,0a4.993,4.993,0,0,0,.029.595c.008.524-.059.551.066.893.009-.309.037-.97.089-.146.044-.251-.045-1.132-.053-1.63.08-.052.077.669.1,1.041.023.47.048,1,.064,1.333l-.12,0c.018.621.1.808.148.6l.129.881c-.039-.052-.076-.258-.116-.293.114.67.094.915.218,1.617-.024-.027-.046-.146-.071-.146.165,1.167.244,1.728.4,2.8a6.239,6.239,0,0,1,.38,1.3c.1-.058-.264-.8-.214-1.162l.4,1.586c-.027.058-.074-.107-.122-.282.1.511-.1-.012-.046.3.149.675.011-.206.145.28.194.647-.025.335.185,1.019.073.277.032-.237.156.127.027.353.358,1.221.171.871.24.686.353,1.389.587,2,.191.178-.173-.59-.236-1.007.117.1.168.623.331.988.128.327.234.467.351.826-.029.158-.148-.176-.274-.543a2.04,2.04,0,0,0,.206.709c-.087-.06-.15-.167-.067.166.078.184.041-.19.219.253.115.136-.136-.62.067-.167.131.356.045.174,0,.15.285.716.337.905.607,1.675-.11.05-.222-.716-.323-.68a6.022,6.022,0,0,0,.257.851c.112.308.081-.01.07-.019.126.1.164.505.245.393.166.528.379.864.5,1.234.22.278.76,1.514,1.261,2.526a6.638,6.638,0,0,1,.489,1.079c.075.143.088.073.173.249.916,1.668,1.6,2.561,2.348,3.946.089.135.095.064.2.232.2.295.109.309.38.632.014.168-.26-.21-.355-.312a4.978,4.978,0,0,0-.647-1.165c-.02.1.273.468.417.784.034.075-.015.1.012.159a5.325,5.325,0,0,0,.469.756c.179.111-.27-.394-.092-.284.166.166.744.865.373.3.073.043.848,1.042.686.963.514.549,1.132,1.483,1.877,2.485.874,1.042,2.063,2.257,2.8,3.066.284.288.162.251.359.469.234.224.464.521.506.541a2.763,2.763,0,0,1,.584.469c.146.241-.221-.14-.384-.254-.079-.056-.2-.091-.275-.154-.156-.117-.51-.657-.526-.528,0,.062.155.146.3.33.04.049-.032.164.37.459.085.007-.505-.454-.271-.348.536.456,1.127,1.107,1.606,1.536.058-.064-.7-.668-.821-.849-.076-.2.3.169.33.107,1.125.966,1.985,1.842,2.813,2.625a23.009,23.009,0,0,1,2.285,1.658c.149,0-.054-.186-.391-.444.077-.012.531.37.639.391.052-.074-.333-.253-.472-.355l-1.28-.993c-.132-.092-.114-.026-.27-.143a3.535,3.535,0,0,1-.762-.689c-.256-.216.1.147-.161-.05-.713-.716-1.6-1.41-2.271-2.109.359.216-.561-.6-.542-.69-.282-.267,0,.179-.4-.236-.005.033.182.194.308.313.33.33-.218-.156-.346-.283a9.224,9.224,0,0,0-.636-.81c-.157-.067.186.27.357.468-.075.036-.306-.311-.513-.534-.418-.449-1.07-1.121-1.6-1.738,0-.081.18.13.337.3-.087-.266-.563-.613-.733-.738a19.22,19.22,0,0,1-1.4-1.89c-.148-.047.39.577.575.855-.771-.841-1.546-2.092-2.132-2.83a2.887,2.887,0,0,0-.22-.214c-.135-.178.057,0,.043-.022-.171-.235-.415-.473-.568-.69-.295-.49-.3-.651-.545-1.045-.093-.146-.1-.087-.141-.093-.688-1.2-1.411-2.208-1.809-3.043-.094-.155-.061-.044-.022.009a12.666,12.666,0,0,1-.947-2c-.154-.273-.318-.579-.45-.774l-.83-1.833c-.257-.669-.458-1.379-.662-2,.038-.219-.073-.627.034-.612-.441-1.187-.673-1.726-1.01-2.907a1.226,1.226,0,0,0-.143-.271,5.13,5.13,0,0,1-.157-.716c-.093-.338-.024.169,0,.3.143.654.284.777.363,1.273a6.264,6.264,0,0,1-.41-1.265.821.821,0,0,0,.024.293.583.583,0,0,1-.072-.286c-.016-.106-.068-.377.023-.3-.049-.19-.1-.378-.145-.57a3.9,3.9,0,0,1-.061-.434,4.372,4.372,0,0,1-.228-.706c.078-.052-.145-.8-.073-.871-.14-.429-.039.219-.157-.128-.124-.442-.145-.692-.036-.434-.187-.337-.151-1.068-.273-1-.07.123.173.677.128.723-.063.162-.164-.618-.2-.864l-.113-.433a17.738,17.738,0,0,1-.3-2.33c-.094-.386-.138-1.032-.24-1.6-.063-.344-.091-.674-.132-.88a8.375,8.375,0,0,0,.191,1.754,4.514,4.514,0,0,1-.242-1.314c-.024-.465,0-1.062-.059-1.766.071-.125.068.384.117.445l-.152-1.181a9.787,9.787,0,0,0-.015-1.32c-.066-.052.062.826-.044.582a5.277,5.277,0,0,0-.105-1.182,3.312,3.312,0,0,1,.105-1.017c-.01-.217.011-.571-.072-.452-.007-.39.107-.623.008-.592a3.83,3.83,0,0,1,.166-.866c0-.4-.065.385-.127.129.133-1.016.086-1.868.173-2.793a1.7,1.7,0,0,1-.024-.451c.068.409.071-.328.181-.412-.017-.181.112-1.2.02-.9-.056-.161.071-.283.091-.432.041-.414-.095.2-.071-.169.256-1.408.36-2.68.609-3.792.059-.232.09-.241.135-.422.092-.372.119-.687.253-1.159a2.848,2.848,0,0,1,.193-.555c.129-.522.287-1.167.424-1.723a11.209,11.209,0,0,1,.673-2.038,8.518,8.518,0,0,1,.681-1.372c.069.091.159.076.325-.326a1.412,1.412,0,0,1-.16.571c.154-.277.048.4.325-.324a2.316,2.316,0,0,0-.1.759c-.023.116-.219.545-.108.429a19.431,19.431,0,0,0-.807,2.172c-.206.76-.411,1.514-.611,2.25-.066.231-.157.425-.229.688-.1.362-.158.736-.272,1.135-.064.244-.111.294-.161.559a5.563,5.563,0,0,1-.178,1.152c-.019.158.031.111,0,.3-.063.4-.118.758-.179,1.152-.032.166-.114.42-.114.42-.025.157,0,.275-.021.443-.037.344-.14.707-.181,1-.037.271-.015.341-.043.586-.013.47-.046.935-.1,1.451-.022.245,0,.276.032.3-.086.862-.117,2.054-.18,3.345-.05.278-.088-.266-.133.278.051.447.081-.2.127.158.048,1.135.058,1.517.126,2.619a1.225,1.225,0,0,1-.069-.439,1.058,1.058,0,0,0,.107.731c.053.679-.072-.2-.058.288,0,.31.047.278.085.294l.048,1.019c-.036.24-.031-.015-.1,0l.02.437c.034.3.067-.536.119.291.1.589-.037-.024-.075.144a2.877,2.877,0,0,0,.087.577c.051.318.112.06.167.143l.151,1.006c-.038-.112-.078-.153-.118-.141.061.181.115.76.182.573a4.753,4.753,0,0,1,.119,1.444c.033.274.219.654.107.721.081.4.048-.343.136.427a.843.843,0,0,0,.006-.292c-.017.084.346,1.284.156,1,.108.43.173.329.287.838l-.072.009c.064.083.148.42.216.554a2.305,2.305,0,0,1,.083.718c.114.006.326,1.041.393,1.258a2.1,2.1,0,0,0-.083-.427,11.567,11.567,0,0,1,.342,1.273,11.865,11.865,0,0,0,.454,1.369,3.583,3.583,0,0,0,.136,1.007c.135.427.16.248.295.674-.06-.426.26.4.091-.172.11.156.342.975.364.652.158.412.319.831.486,1.268s.41.873.61,1.316c.414.879.817,1.746,1.168,2.442a6.72,6.72,0,0,1-.671-1.294c-.235-.479-.471-1-.65-1.3a6.244,6.244,0,0,1,.285.818c.237.534.25.289.467.756l-.045.016a9.609,9.609,0,0,1,.559,1.339c.074.14.087.071.17.245a6.509,6.509,0,0,0,.487.894c.152.315,0,.095.083.277.3.495.01-.054.218.221.2.328.45.789.442.593.411.778,1.132,1.881,1.48,2.5-.3-.393-.832-1.364-1.224-1.983-.12-.129-.27-.334-.335-.323.191.329.332.534.367.469.242.5.516.817.9,1.5-.118-.135-.063-.031-.064.033a15.01,15.01,0,0,0,1.105,1.549l1.317,1.741c.186.3-.219-.173.005.168.375.5-.019-.235.516.535.133.275-.228-.1-.47-.392-.013.13.544.793.5.547.159.231.328.415.194.222.917,1.09,2.121,2.368,3.275,3.674,1.231,1.231,2.55,2.36,3.576,3.284.126.109.077.038.018-.017a12.342,12.342,0,0,0,1.265.987c.018.11-.442-.291-.184-.019a4.513,4.513,0,0,0,.567.457c.285.248-.422-.314-.619-.4l1.221,1.038a4.16,4.16,0,0,1,1.081.543c.274.223.586.467.52.512.565.374,1.273.823,2.476,1.554.084.076.1.125.067.153.259.172.258.118.293.095.559.367,1.233.761,2,1.218,1.17.564,2.283,1.169,3.253,1.657a8.156,8.156,0,0,1,1.174.6c.18.069.236.045.434.115a4.1,4.1,0,0,1,.652.317c1.106.284,2.494.978,4.29,1.5.325.142-.23-.014-.19.074a14.525,14.525,0,0,1,1.467.258c-.142.007-.419-.047-.338.06a6.256,6.256,0,0,1,1.005.237c-.108.022-.671-.158-.738-.118.316.139.765.114,1.44.326.021.071-.224.023-.6-.081.241.148.515.092.863.2.02.057.625.17.7.231.4.06.939.1,1.328.174-.158.008-.169.063-.327.071a5.025,5.025,0,0,1-.567-.156c-.056.044.141.112.395.178.258.041.574.073.746.091.017.074-.351.02-.334.094l.612,0a1.882,1.882,0,0,1,.7.206l-1.505-.2a5.852,5.852,0,0,1-1.383-.4c-.327-.071.162.081-.166.031-.607-.168-1.483-.362-1.852-.507-.14-.035-.122,0-.161.008-.839-.223-1.383-.409-2.007-.523a18.228,18.228,0,0,0-2.37-.851,9.751,9.751,0,0,0-1.216-.525c-.066.073.529.278.776.414-.222.021-.284-.112-.694-.256-.3-.115-.1.053-.2.055a7.406,7.406,0,0,0,1.587.458l2.191.816c.642.2,1.236.329,1.885.525-.363-.065-.327.048-.772-.053.039.066.762.2.845.27.066-.033,0-.078-.261-.142a5.314,5.314,0,0,1,1.167.254c0,.039-.1.068.11.128.516.158.107-.093.745.119-.277.01-.276-.011.1.151.251.049.109-.029-.127-.083.043-.024.432.1.447.067.332.128.659.238.385.249a11.334,11.334,0,0,0,1.327.224c.582.084.421.169,1,.253.424.033.882.076.628-.048.818.13,1.226.15,1.206.067.419.045.372.092.728.137.057.061-.221.012-.452-.022-.006.071.315.14.56.209a5.79,5.79,0,0,1,1.033.149c.165.1-.483-.035-.316.06-.012.064.4.042.3-.012.491.025.75,0,1.345.048.059-.053-.006-.093-.126-.127a9.642,9.642,0,0,1-1.044-.032c.116-.091-.776-.16-.7-.275.837.147,2.015.135,3.164.214,1.151.043,2.281.155,3.05.153-.028.108-.348.054-.6.027l-4.448-.238a9.6,9.6,0,0,1,1.314.19c.505.046.205-.086.755-.031.331,0,.2.057.437.071a.738.738,0,0,0,.453-.024c.07,0,.19.033.293.04a1.777,1.777,0,0,0,.3-.008,8.126,8.126,0,0,0,1.929.024c.254-.021.279.006.293.034.446-.037-.138-.044.008-.1a2.862,2.862,0,0,1,.588.044c.322-.011.074-.089.157-.128l3.263-.2a1.814,1.814,0,0,1,.295.034c.162-.012.636-.114.881-.152a5.813,5.813,0,0,0,.88-.156,2.93,2.93,0,0,1,.441-.018c.722-.2,2.42-.306,3.51-.617.133.045-.368.148-.423.2-.59.064-.883.108-1.469.22-.283.052-.111.11-.585.16a7.541,7.541,0,0,0,1.322-.246c.155.033.984-.146.888-.047.248-.1-.157-.067.274-.218.4-.123.376-.061.723-.159.136-.109-.326.039-.581.1a11.432,11.432,0,0,1,1.429-.437l1.149-.292a3.638,3.638,0,0,1,.44-.062,1.775,1.775,0,0,0,.278-.121,4.179,4.179,0,0,0,.859-.242c.243-.071.274-.051.3-.026.414-.128.419-.206.829-.345a1.454,1.454,0,0,1-.548.25c.1.014.436-.1.578-.107.323-.126.65-.253.538-.3.1-.017.845-.241.691-.277-.148-.009-.527.227-.975.354a5.883,5.883,0,0,1,.686-.3c-.1-.04-.76.226-.861.185a3.35,3.35,0,0,1-1.127.337c.059-.053.622-.107.7-.257a.543.543,0,0,0-.277.1c-.462.1.614-.372-.449-.009.053-.1,1.122-.341,1.235-.506-.524.144-.828.263-1.545.437-.415.126.2.012.021.118a1.778,1.778,0,0,1-.595,0,4.718,4.718,0,0,1-.854.217c.494-.28,1.493-.343,2.386-.74-.051.059-.429.178-.256.2.539-.173.2-.185.812-.371.017-.036-.039-.032-.148,0a3.668,3.668,0,0,0,1.057-.588,3.865,3.865,0,0,1,.7-.2c.616-.2.817-.33,1.368-.521q.058.062-.393.219c.449-.026,1.454-.546,1.537-.45.545-.295-.064-.122-.313-.036-.038-.04.464-.235.651-.339-.37.26.234,0,.317.035a19.472,19.472,0,0,1,1.8-1.021c.349-.185.271-.075.421-.122.106-.055.123-.085.255-.148.26-.155-.4.124.1-.153.277-.145.263-.088.29-.059l.565-.325c.189-.128.4-.271.689-.441a6.652,6.652,0,0,0,.9-.485,1.884,1.884,0,0,0-.386.205c.34-.289,1.762-1.051,2.482-1.553.267-.134.162.046.555-.194.182-.122-.063,0-.033-.064.692-.477,1.362-1,1.873-1.406.05.049.2-.01.636-.353-.089.035-.283.179-.272.112.214-.2.206-.1.26-.133a6.6,6.6,0,0,1,.822-.611,16.14,16.14,0,0,1-1.385,1.089c-.274.213-.177.236-.552.5.315-.349-.867.619-1.093.723a4.22,4.22,0,0,1-.336.3,1.789,1.789,0,0,1-.568.174c-.346.289-.463.212-1.012.582-.113.235.811-.375.47-.031-.346.16-.674.306-.71.2-.549.307-.547.406-.21.239-.064.086-.283.188-.261.13a7.829,7.829,0,0,1-.9.485c-.247.138-.14.212.153-.009-.137.169-.574.295-.742.476-.02.058.135-.033.154-.008.2-.156.8-.475.724-.522.49-.324.407-.162.9-.487.091.008-.226.177-.222.218.065.023.214-.157.242-.174.161-.1.226-.075.4-.184.2-.128.309-.247.607-.422.168-.11.078-.117.083-.162a5.484,5.484,0,0,1,.924-.445c.4-.223.317-.281.443-.411a6.7,6.7,0,0,1,.658-.31,12.047,12.047,0,0,1,1.472-1.243c-.067.157.481-.316.731-.484.359-.283.165-.283.774-.694a3.763,3.763,0,0,1-.327.3,2.249,2.249,0,0,0,.584-.443c-.1.062-.164.064-.27.12-.366.181-.572.393-.405.181l-1.057.784a11.256,11.256,0,0,1,1.279-.979c.419-.3,1.06-.958,1.755-1.543-.035.131.162-.028.193.02.589-.489.816-.753,1.321-1.161a1.337,1.337,0,0,1-.378.471c.358-.222.429-.5.7-.765.373-.364.332-.163.687-.546.178-.214-.072-.036-.36.251.153-.284.387-.341.642-.6.381-.46.07-.2.2-.437.4-.419-.052.211.374-.231.017-.106.49-.569.317-.525.331-.3.83-.947.625-.613a13.023,13.023,0,0,0,.874-.991c.188-.179.044.017.05.053.334-.334.085-.209.23-.394.232-.107.234-.328.726-.919a3.944,3.944,0,0,1-.179.438c-.882,1.065-1.567,1.755-2.161,2.471l-.923,1.068-.509.58-.632.583c-.148.145.016.043.138-.06-.373.36-.756.756-1.063,1.025-.092.08-.219.134-.356.257a1.583,1.583,0,0,0-.205.217c-.179.146.1-.187-.464.355.1-.289.735-.713,1.048-1.044a23,23,0,0,0-2.041,1.651c.046-.068.091-.135.068-.158-.425.415-.182.321,0,.26.492-.412.311-.392.72-.75.006.143-.351.616.357,0-.451.389-.93.932-1.518,1.387s-1.2.919-1.8,1.3c-.325.33-1.184.935-1.868,1.449-.228.172-.053.147-.466.377a.688.688,0,0,1-.455.078l-1.25.782c-.032.078.114.005.168.011.177-.165.685-.463.841-.619.835-.326-.416.494-1.063.837a.755.755,0,0,0,.1-.12c-.062.036-.748.455-.611.425l-1.557.949-1.933.981c-.808.412-1.7.794-2.4,1.147a9.852,9.852,0,0,1-1.215.559,10.078,10.078,0,0,0-1.373.574c.1.051.817-.239.872-.162a10.876,10.876,0,0,1,1.822-.623,3.951,3.951,0,0,1,1.028-.651c.089-.118-.208.03-.172-.051.8-.416.473-.078.329.056.131-.045.675-.326,1.08-.49.258-.126-.238.015.093-.178a9.222,9.222,0,0,1-.936.448c.122-.094.346-.218.369-.283.494-.219,1.022-.475,1.614-.764a17.022,17.022,0,0,0,1.93-1.073c.424-.2-.79.468-.6.45.038.048.444-.213.781-.416s.062-.146.478-.373c-.275.25.206-.017.411-.164.278-.2-.047-.1.244-.175a2.968,2.968,0,0,0,.91-.493c-.149.034-.578.3-.56.2a5.826,5.826,0,0,1,.666-.318c.1-.066.116-.1.243-.175.059-.11-.283.117-.412.165-.146.026.358-.243.369-.251.281-.19.277-.216.485-.348.541-.369,1.256-.906,1.91-1.4a6.932,6.932,0,0,1-.938.727c.043.045.421-.254.737-.487.043.055.316-.124.536-.249.365-.323-.341.175-.192-.037.679-.529.552-.232.932-.453.443-.332.767-.54,1.1-.758.219-.167.029-.122.186-.258.572-.506.525-.318,1.152-.925,0,.148.474-.292.455-.12a5.008,5.008,0,0,0-.956.961,3.156,3.156,0,0,0,.457-.381c-.074.1-.088.153-.056.18-.241.223-.365.3-.374.241-.168.132-.217.327-.322.318-.2.085-.125.055.2-.238-.23.151-.184,0,.031-.221-.191.085-.356.382-.679.585-.069-.019-.238.065-.21-.053-.362.268-.051.188-.414.457,0,.081.474-.329.41-.185-.181.118-.6.484-.612.425a3.8,3.8,0,0,1-.682.6c.164-.22.072-.238-.54.252-.346.188.285-.292-.06-.105a2.608,2.608,0,0,1-.573.486c.023-.068-.116.03-.263.136.05-.106.166-.3-.093-.17a2.419,2.419,0,0,1-.56.506c-.2.03.367-.334.169-.3-.484.321-.277.288-.43.439-.243.15-.06-.087-.537.248-.062.067,0,.1-.327.337.134-.015.283-.248.751-.481-.161.185.3-.141.4-.2.056-.024,0,.069.034.064.053-.006.312-.2.273-.113a3.89,3.89,0,0,1-.593.457c.034-.05.2-.181.211-.233a5.516,5.516,0,0,0-.6.442c.115.077.7-.311,1.14-.691.155-.026-.247.236-.456.4.251-.11.4-.157.079.15.042,0,.247-.163.264-.136a3.73,3.73,0,0,1,.71-.558,7.673,7.673,0,0,1-1.82,1.334c-.429.267-.748.5-1.145.72a2.98,2.98,0,0,1,.5-.332,4.861,4.861,0,0,0-.76.487,2.377,2.377,0,0,1-.405.188c-.222.14-.371.3-.613.454-.2.133-.3.152-.524.288l-.677.436a3.76,3.76,0,0,1-.639.281,4.466,4.466,0,0,1,1.269-.829c-.08-.063-.59.319-1.069.521-.384.207-.139.106-.1.154-.274.122-.421.207-.388.239-.238.12-.686.3-.524.3.03.037.491-.276.685-.3-.613.363-1.4.668-2.158,1.059-.171.088-.324.2-.528.306a15.4,15.4,0,0,1-2.061.914c-1.062.4-2.241.838-2.967,1.077-.023.007.012-.052-.01-.048-.145.028-.375.184-.56.229.258-.283-.275.193-1,.316-.171.047-.116.074-.133.108a11.368,11.368,0,0,1-1.612.36c-.46.1-.319.157-.867.27q-.186-.081.57-.244c0-.077-.45.04-.883.15-.095.1.16.05.163.107a52.393,52.393,0,0,1-21.177.856l-1.633-.25-.8-.125-.819-.218c-.235-.063-.261-.041-.444-.091l-2.319-.628c-.486-.127-.951-.211-1.464-.356-.672-.244-2.675-1.01-3.809-1.4l-1.12-.372a8.976,8.976,0,0,1-1.228-.627,14.905,14.905,0,0,1-1.758-.853c.075.064.3.172.232.193-.494-.26-.936-.471-1.406-.692a9.95,9.95,0,0,1-1.524-.84c.064,0,.248.108.3.1-.509-.341-.377-.133-.7-.314-.3-.189-.01-.13.073-.1-.369-.212-.58-.287-.942-.492-.383-.279-.661-.406-1.154-.705l-.625-.411a8.738,8.738,0,0,1-1.5-1c-.168-.136-.281-.27-.328-.307-.205-.161-.37-.175-.6-.452l-1.99-1.377a2.758,2.758,0,0,1-.445-.4c-.2-.183-.253-.194-.462-.389a3.1,3.1,0,0,1-.3-.337c-.054-.053-.222-.169-.35-.288-.476-.442-1.194-1.148-1.647-1.538-.2-.172-.354-.267-.592-.476-.061-.092-.18-.2-.288-.341a11.838,11.838,0,0,1-.927-.99c-.214-.238-.512-.5-.745-.752-.183-.2-.19-.25-.383-.46l-1.155-1.244c-.419-.434-.755-.951-1.1-1.383-.148-.2-.134-.223-.249-.375-.619-.815-1.2-1.512-1.568-2.029a3.017,3.017,0,0,1-.226-.385c-.48-.656-.831-1.249-1.312-2.023-.028-.095-.156-.308-.09-.289-.094-.15-.1-.09-.143-.1a19.62,19.62,0,0,1-1.244-2.062c-.284-.455-.249-.486-.56-1.067-.047-.164-.145-.4-.018-.314-.291-.606-.134-.154-.285-.374-.319-.615-.257-.676-.538-1.237-.124-.249-.118-.057-.222-.24a26.681,26.681,0,0,1-1.14-2.622c-.1-.3-.192-.662-.313-1a29.6,29.6,0,0,1-1.053-2.975,1.318,1.318,0,0,0-.146-.278c-.186-.979-.452-1.524-.668-2.627a4.681,4.681,0,0,1-.368-1.158c-.039-.049-.01.247,0,.3.035.157.111.256.159.432.06.223.04.282.088.442.062.212.145.386.2.578.086.32.114.536.2.881s.236.82.372,1.462c.056.179.1.4.106.435.053.156.255.616.384.988l.411,1.135.722,1.987c-.023.05-.089-.124-.122-.123.142.439.38.92.266.863.081.159.1.1.135.115.062.008-.229-.483-.274-.7a22.262,22.262,0,0,1,.972,2.05c.133.351.294.4.283.536.088.3-.072-.042-.2-.249-.081-.131-.029.06-.176-.257-.052-.112-.039-.143-.108-.28a2,2,0,0,1,.219.4c-.148-.458-.446-.892-.628-1.371-.225-.164.5,1.066.252.863a15.818,15.818,0,0,1,1.006,1.88c.182.143-.283-.659-.148-.586a13.672,13.672,0,0,1,.672,1.515c-.143-.219-.516-1-.374-.5.136.26.139.075.329.52-.092-.033,0,.2.126.465a3.165,3.165,0,0,0,.428.607,7.915,7.915,0,0,0-.4-.808,8.287,8.287,0,0,1,.624,1.038c-.266-.26.056.277.179.576.173.106-.2-.493.055-.188a8.359,8.359,0,0,0,.38.816c.235.365-.093-.224-.112-.279.4.619.883,1.392,1.389,2.219.489.839,1.169,1.621,1.735,2.419a4.418,4.418,0,0,0,.651.837c.236.348.6.855.961,1.341.389.461.792.883,1.017,1.132a7.526,7.526,0,0,1-1.137-1.223c-.553-.733-1.05-1.428-1.465-1.929-.044.083.2.364-.034.2.348.433.445.67.633.851l-.411-.632a7.151,7.151,0,0,1,.905,1.216c.084.017-.423-.546-.211-.4.267.345.517.732.832,1.088l.984,1.094,2.1,2.324c.734.769,1.561,1.455,2.316,2.165.782.681,1.476,1.416,2.233,1.957l.588.473c.275.2.495.337.743.529a7.947,7.947,0,0,0,1.2.929c.008.075.463.388.558.509.157.11.154.056.032-.036.537.4,1.145.721,1.728,1.078l1.734,1.066c.569.349,1.116.7,1.65,1.009.555.268,1.084.515,1.573.724.192.1-.026.011-.027.04.489.206,1.005.43,1.662.754-.045.047-.55-.229-.6-.183a12.56,12.56,0,0,1,1.379.642c-.058.089-.563-.3-.721-.269-.437-.2-.46-.271-.943-.485-.114-.049-.149-.045-.287-.112-.068.028-.015.093.222.214-.451-.187-.587-.136-.64-.123a11.07,11.07,0,0,0,1.075.574c.035.1-.451-.2-.564-.246-.145-.066-.1,0-.163-.026l-1.527-.715c-.209-.15-.11-.251.245-.094.131,0-.448-.328-.521-.307-.405-.24.326.074.343.033q-.444-.222-.452-.14c-.44-.2-.259-.227-.764-.492a2.093,2.093,0,0,1,.548.294,1.829,1.829,0,0,0,.558.232,11.621,11.621,0,0,0,1.491.75c.237,0-1.086-.528-.494-.346-.594-.223-.949-.457-1.406-.6-.254-.138-.557-.341-.482-.364-.582-.273-1.65-.977-2.589-1.582a10.566,10.566,0,0,1-1.578-.921c-.355-.229-.664-.411-1.141-.767.013-.044.183.074.186.019a3.271,3.271,0,0,0-.535-.311c-.416-.3-.971-.754-1.23-.895a2.666,2.666,0,0,0,.452.4c-.26-.143-.794-.57-1.023-.68a11.687,11.687,0,0,1-1.124-1.01c-.174-.145.022.062-.053.05-.481-.432-.558-.595-1.087-1.058a1.846,1.846,0,0,1-.373-.276c-.072-.011.054.11.188.237a5.592,5.592,0,0,1-.88-.837c-.265-.224.107.148-.168-.057-.357-.349-.036-.247-.694-.8.054.083.239.253.169.252-.349-.378-.459-.341-.693-.6.029.032.171.07.057-.045-.106-.094-.323-.264-.148-.074-.007.092-.543-.627-.55-.535a4.553,4.553,0,0,0,.486.574c.219.212.408.386.285.362.159.136.141.048.188.043Zm12.929,9.348c.016-.076-.018-.168-.47-.388l-.081.12Zm.035-.329-.411-.2c.1.127.049.21.742.52C828.451,572.723,827.53,572.367,827.825,572.385Zm-9.633-6.32c.349.275,0,.177.66.617.192.05-.149-.186-.175-.252C818.791,566.468,818.133,565.972,818.192,566.065Zm66.419.253c.254-.231.76-.592.654-.636-.394.267-.214.237-.439.416-.014-.064-.039-.116-.3.075Zm-5.856,3.816-.382.231c.121.012-.1.16-.072.211C878.775,570.3,878.653,570.262,878.755,570.134Zm.342.046c-.245.232-.089.187-.574.543C878.975,570.445,879.707,569.87,879.1,570.18Zm2.251-1.5c.029.067-.48.452.193.052-.176,0,.234-.232.329-.339C881.631,568.545,881.576,568.54,881.348,568.681Zm-.191-.052c.014-.049.191-.163.221-.218a5.181,5.181,0,0,0-.519.285C880.848,568.767,880.93,568.759,881.157,568.629Zm-.524.624c-.026.053-.162.151-.087.164a4.738,4.738,0,0,1,.524-.288C881.065,569.052,881.029,569,880.633,569.253Zm-2.553,1.176c.421-.181.8-.51,1.4-.844.045.012.226-.09.285-.088.012.029-.214.154-.235.2a4.955,4.955,0,0,0,.807-.374,4.277,4.277,0,0,0,.479-.374c-.1-.081-.377-.008-.985.342-.066.1.183-.073.275-.109.145-.058.429-.138.179.032-.323.17-.577.282-.57.176C879.072,569.773,878.5,570.133,878.08,570.429Zm-.43-.272a4.064,4.064,0,0,0,.738-.5,3.95,3.95,0,0,1-.765.434Zm-2.878,1.074c.116-.033,1.056-.432.917-.465A3.158,3.158,0,0,0,874.772,571.231Zm-1.241.886c.664-.334,1.183-.457,1.734-.8.1-.189-.626.186-.812.335A4.853,4.853,0,0,0,873.531,572.117Zm-1.911.768c.478-.1,1.049-.434,1.512-.577A7.292,7.292,0,0,0,871.62,572.885Zm-.62-.056a10.785,10.785,0,0,0,1.79-.649C872.092,572.471,871.415,572.608,871,572.829Zm5.466-1.237c0,.017-.011.036-.127.087-.019.079.215-.015.565-.19C876.92,571.411,876.818,571.415,876.466,571.592Zm-.286-.342c-.048.128.745-.325,1.088-.467-.193.174.071.081.567-.178C877.908,570.423,876.584,571.032,876.18,571.25Zm.059.158a.991.991,0,0,1,.563-.189,2.723,2.723,0,0,0,.52-.3c-.532.244-.6.241-.3.038C876.674,571.116,876.05,571.485,876.239,571.408Zm-.01.4c-.392.156-.295-.024-.985.337-.126.119.265-.072.3-.037.008.007-.311.178-.247.2.031.01.071.032.557-.213C875.673,572.036,876.051,571.95,876.229,571.812Zm-3.152,1.336c-.178-.055,1.132-.493.641-.429a4.868,4.868,0,0,0,.791-.431c.463-.168.92-.332,1.519-.593L876,571.6c-.6.295-.949.444-.7.23-.71.349-1.187.63-1.856.967C873.64,572.864,872.159,573.4,873.077,573.148Zm-1.46.887c.562-.221.952-.409,1.386-.606a15.02,15.02,0,0,0,1.921-.834c.025-.074-.051-.078-.173-.05-.232.143-.786.38-.932.5.358-.126.465-.253.683-.3a4.145,4.145,0,0,1-1.1.47c.7-.376.181-.192.632-.461.254-.128.306-.117.547-.235,0-.076-.422.14-.441.078.048-.037.642-.347.254-.175a8.23,8.23,0,0,1-1.041.631c.389-.074-.156.218-.38.285.268-.095-.061.122-.255.2.02-.136-1,.3-1.165.269l.03.117a2.963,2.963,0,0,1,.858-.26C872.065,573.8,871.393,574,871.617,574.035Zm-.809-.166c-.392.163-.371.1-.706.23C869.88,574.294,870.863,573.915,870.808,573.869Zm-.787.54c.607-.208.165-.128.405-.223a3.069,3.069,0,0,0,.832-.353c-.541.174-.887.363-1.124.408C870.266,574.265,869.95,574.374,870.021,574.409Zm-.82.425a4.318,4.318,0,0,0,.846-.307c-.111.035-.168.04-.151,0A2.264,2.264,0,0,0,869.2,574.834Zm-1,.3c-.465.149-.125-.049-.589.1a2.036,2.036,0,0,1-.573.2c-.167.123.473-.1.307.021-.431.116-.733.089-.874.222.425-.114.456-.06.882-.174.529-.187.866-.3,1.56-.583.017-.036-.038-.059.127-.123.684-.282-.388.115-.418.177-.185.079-.445.053-.576.154C868.205,575.087,868.4,575.072,868.2,575.132Zm-1.769.276a7.222,7.222,0,0,0,.873-.2c.166-.122-.472.1-.306-.021.44-.13.532-.11.873-.2.232-.108-.019-.027-.018-.095a9.645,9.645,0,0,0-1.289.4C867.242,575.131,866.469,575.37,866.432,575.408Zm-.559.291a.924.924,0,0,0-.744.04c.255-.059.335-.043.3.022-.257.071-.73.161-.575.2.5-.138.815-.2,1.165-.271.192-.046,1.052-.264.578-.172Zm.389-.421a6.542,6.542,0,0,0-1.014.233A3.374,3.374,0,0,0,866.262,575.278Zm-1.167.2c.47-.088.1-.1.569-.194.228-.055.121.033.439-.062l-.015-.095c-.539.156-.69.145-1.153.268C864.874,575.485,865.44,575.329,865.095,575.475Zm-1.127.534c-.161.122,1.258-.228.874-.172C864.272,576.013,864.537,575.833,863.968,576.009Zm-.6-.07c.407-.083.6-.073,1.161-.221C864.591,575.614,863.669,575.8,863.369,575.939Zm-1.608.34a5.5,5.5,0,0,0,1.326-.2A6.34,6.34,0,0,0,861.761,576.279Zm-.577.329a6.288,6.288,0,0,0,.89-.085A1.957,1.957,0,0,0,861.184,576.608Zm.011.217c.362-.008,1.2-.164,1.785-.244.136-.116-.831.115-.75.016.205-.033.151-.085-.152-.026-.079.047.182.1-.141.143A1.672,1.672,0,0,0,861.2,576.825Zm-5.514.576c-.353.017-.439-.021-.9.018C854.566,577.507,855.675,577.438,855.681,577.4Zm5.046-1.016c-.113.022-.29.044-.293.068.585-.064.454-.138.583-.208l-.587.087C860.325,576.414,860.723,576.337,860.727,576.385Zm-.424.525c-.024.064.231.041.448.03.047-.04.21-.078.145-.119Zm-2.076-.151c.769-.085.935-.179,1.469-.268,0,.064-.408.123-.586.185a2.9,2.9,0,0,0,1.027-.251,14.652,14.652,0,0,1-1.764.191C858.495,576.666,858.167,576.71,858.227,576.759Zm.443.3c-1.5.248.6-.021.592-.113C858.985,576.985,858.931,577.013,858.67,577.057Zm-1.935.149-.005.121c-.014.034-1.078.066-.6.076.58-.032,1.1-.053,1.5-.047.239-.13-.774,0-.6-.116.282-.008.331-.043.6-.052-.086.175,1.4.028,1.633-.147l-1.334.175c-.283-.077.492-.139.443-.212A8.781,8.781,0,0,1,856.735,577.206Zm-2.218-.23a4.113,4.113,0,0,1,.59.02c.332-.051-.183-.05.154-.08.058.038.192-.014.445-.021.085.073-.283.088-.005.12a3.17,3.17,0,0,0,.6-.052c-.083,0-.168-.011,0-.024a3.729,3.729,0,0,1,1.039.047c-.047-.094.268-.146.154-.248a11.776,11.776,0,0,1-1.334.039c-.019.031-.047.06-.3.063-.46.024-.419-.056-1.036,0C854.756,576.89,854.4,576.905,854.517,576.976Zm.138.137c.563.033.27.074.743-.011-.165.1.367.051.292.13.307.007.568-.106.3-.086a.562.562,0,0,1-.3.014l0-.048a7.875,7.875,0,0,0,1.045-.074,6.142,6.142,0,0,0-1.043.05,9.8,9.8,0,0,0-1.485,0C854.1,577.156,854.468,577.1,854.655,577.113Zm-1.657.271a5.753,5.753,0,0,1,.743.013l-1.048.05c-.128.034-.2.074-.162.127.891-.011.934-.12,1.655-.15.1-.054-.265-.033-.293-.058a2.223,2.223,0,0,0,.3-.063,2.14,2.14,0,0,1-.3-.01c-.063-.02.312-.069-.145-.041C854.044,577.359,853.071,577.32,853,577.384Zm-1.322-.2a5.385,5.385,0,0,0,.659.061c.274,0,.577-.029.829-.035C853.068,577.081,852.1,577.181,851.676,577.182Zm-.5.084-.258-.028a2.135,2.135,0,0,0-.44-.072c-.11-.006-.564-.041-.6.016a5.705,5.705,0,0,1,.891.071c-.7-.058-.421.037-.608.04a7.233,7.233,0,0,0-.892-.072,10.717,10.717,0,0,0,1.629.184c0,.024-.125.021-.156.039a5.657,5.657,0,0,0,.749.04c.232-.079-.668-.04-.436-.119l.748.039c.165-.091-.669-.045-.738-.111-.029-.027.046-.03.115-.027C851.334,577.281,851.265,577.27,851.177,577.266Zm-2.333-.211c.791.066.363-.022.6-.016.621.015,1.289.124,1.782.119-.219-.016-.128-.065-.135-.1-.7.032-1.208-.049-2.235-.1Zm-3.986-.476c-.015.031.056.062.129.093a1.681,1.681,0,0,0,.607.022A3.014,3.014,0,0,0,844.858,576.579Zm-1.679-.042a5.619,5.619,0,0,0,.892.114A2.587,2.587,0,0,0,843.179,576.537Zm-3.273-.516a3.152,3.152,0,0,0,.58.151C840.632,576.114,839.823,575.9,839.906,576.021Zm-.063-.265a8.122,8.122,0,0,0,1.437.4A13.036,13.036,0,0,0,839.843,575.756Zm-2.623-1a1.879,1.879,0,0,0,.557.194l.027-.067A3.178,3.178,0,0,0,837.22,574.752Zm-1.171-.266c.448.234,1.063.36,1.028.228a2.421,2.421,0,0,0-.571-.161c.084.035.164.061.13.072A1.085,1.085,0,0,0,836.049,574.486Zm-1.91-.807c-.107.081.558.21.836.308a5.307,5.307,0,0,0,1.123.39C835.458,574.151,834.577,573.789,834.139,573.679ZM832.9,573.5a2.545,2.545,0,0,0,.85.288A5.739,5.739,0,0,0,832.9,573.5Zm8,1.91a6.591,6.591,0,0,0,1.135.315C842.085,575.635,841.341,575.495,840.905,575.413Zm-1.563-.432a9.936,9.936,0,0,0,.992.283c-.569-.174-.319-.139.032-.091A4.962,4.962,0,0,0,839.342,574.981Zm-1.63-.647c.117.089-.012.154.515.283C838.322,574.548,837.967,574.436,837.712,574.334Zm-.474,0c.762.23-.585,0,.372.245C837.856,574.565,837.606,574.383,837.238,574.335Zm-3.789-1.244c-.16-.063-.133-.089-.1-.115a4.416,4.416,0,0,0-.564-.183C832.654,572.81,833.324,573.1,833.449,573.091Zm-.956-.685c.006.04-.092.06.091.136-.018-.059.4.151.4.174-.03.029-.36-.113-.31-.038.612.233,1.464.49,2.082.743.337.138.456.263.787.393-.442-.158-1.25-.382-1.021-.249.317.033,1.255.385,1.446.381-.022,0-.437-.178-.256-.146.24.1.6.147.69.255a1.915,1.915,0,0,0-.424-.131c.2.1.552.236.661.321-.168-.027-.174,0,.112.113-.078-.1.5.1.333-.038-.36-.084-.462-.082-.554-.192a3.87,3.87,0,0,0,.508-.068,3.831,3.831,0,0,1-.558-.181c-.206-.012.514.271.1.139a3.089,3.089,0,0,1-.541-.225c-.013,0,.389.127.285.08-.38-.173-.8-.3-1.239-.459-.286-.1-.75-.345-.837-.283.657.24.8.378,1.337.6a4.454,4.454,0,0,1-1.072-.473,8.37,8.37,0,0,1-1.24-.458c.007-.07.888.359.721.19C833.328,572.784,833.162,572.662,832.493,572.406Zm-2.818-.7a1.66,1.66,0,0,0,.871.557.848.848,0,0,1-.242-.171,9.477,9.477,0,0,1,.947.433c-.192-.01.18.152.219.213a7.192,7.192,0,0,0,.976.365c-.062-.1-.075-.077.058-.107l-.73-.27-.7-.34Zm-3.725-1.848c.456.288.826.5,1.152.677.007.069-.381-.2-.421-.174.095.065.25.154.24.175a2.262,2.262,0,0,0,.258.146c.044-.019,0-.1.189-.015.126.177.689.337,1.067.518l-.039.061c.587.2,1.364.755,1.483.692-.573-.255-.956-.525-.6-.426a8.237,8.237,0,0,0-1.24-.521C827.3,570.71,826.274,569.868,825.95,569.86Zm-2.211-2.167c.389.2.447.3.655.343-.274-.2-.235-.139-.608-.4Zm-1.037-.126a3.671,3.671,0,0,0,.728.5C823.658,568.113,822.7,567.567,822.7,567.567Zm-.259.075c.794.586-.16-.019.159.27.548.376.954.576,1.4.843.331.165-.182-.2.187,0a9.2,9.2,0,0,0,.939.715q.354.162.468.117c-.456-.281-1.009-.626-.536-.272-.431-.278-.633-.462-1.094-.753A10.545,10.545,0,0,1,822.443,567.642Zm-.2,0c-.14-.112-.055-.075.031-.036-.316-.239-.207-.251-.544-.5C821.475,566.956,821.938,567.5,822.245,567.643ZM802.4,509.429a1.853,1.853,0,0,0,.087-.434c-.147.509-.014-.428-.162.246C802.3,509.407,802.356,509.3,802.4,509.429Zm-2.11,6.966a10.413,10.413,0,0,0,.2-1.464C800.456,515.087,800.3,516.084,800.291,516.4Zm.032,6.975c.007-.447.053-.527.071-.87A1.751,1.751,0,0,0,800.323,523.37Zm.072,2.187c-.076-.4,0-.828-.081-1.167C800.3,524.533,800.308,525.646,800.4,525.557Zm2.193,13.78c-.068-.139-.123-.122-.19-.262a4.456,4.456,0,0,0,.16.562C802.629,539.644,802.673,539.643,802.588,539.337Zm1.932,6.412c-.254-.5-.023-.305-.376-.952-.1-.043.158.477-.052.169A4.056,4.056,0,0,0,804.52,545.749Zm1.579,1.912a1.836,1.836,0,0,1-.206-.542c-.081-.009.04.276.076.436-.046.015-.2-.348-.216-.229C806.12,548.119,805.956,547.609,806.1,547.661Zm4.291,7.091a3.977,3.977,0,0,0-.565-.679C810.165,554.5,810.278,554.794,810.39,554.752Zm1.925,3.266-.494-.546C811.643,557.419,812.331,558.18,812.315,558.018Zm1.086.664c-.261-.287-.567-.646-.629-.623C812.987,558.274,813.422,558.836,813.4,558.682Zm1.512,1.782c-.321-.379-.861-.873-.666-.594C814.309,559.9,814.972,560.743,814.913,560.464Zm2.171,2.56a2.613,2.613,0,0,0-.688-.759C816.111,562.18,816.7,562.669,817.084,563.024Zm2.44,1.521a10.415,10.415,0,0,1-1.055-1c-.114-.019.158.184.289.329C818.974,564.135,819.326,564.532,819.524,564.545Zm1.394,1.92a6.7,6.7,0,0,0-1.167-.7,9.84,9.84,0,0,0,1.069.8C820.563,566.365,820.815,566.408,820.918,566.465Zm-2.973-2.231c-.13,0,.568.587.856.818a5.373,5.373,0,0,1,.492.34q-.174-.014.3.32c.141.014-.293-.278-.152-.265a3.254,3.254,0,0,0,.762.483A14.986,14.986,0,0,1,817.945,564.234Zm-5.534-5.572c.074.089.1.139.061.138a5.383,5.383,0,0,1,.5.551C813.12,559.409,812.364,558.587,812.411,558.662Zm-1.822-2.153c.2.275.337.444.4.45a5.37,5.37,0,0,0-.333-.488Zm-.6-.847a1.49,1.49,0,0,0,.408.79c.167.08-.067-.169-.1-.289,0,.014.16.158.041-.025ZM804.7,547.24a4.144,4.144,0,0,0,.43.789c-.194-.391-.146-.431-.339-.821Zm4.29-53.179c.079-.008-.165.289-.35.664.152-.249.142-.12.371-.452C809.038,494.187,809.348,493.574,808.991,494.061Zm1.917-2.626c-.073.088-.118.123-.124.084a2.882,2.882,0,0,0-.391.64A5.59,5.59,0,0,0,810.908,491.435ZM876.88,476.91c-.342-.147-.49-.355-.788-.409A2.979,2.979,0,0,0,876.88,476.91Zm1.84,1.221c-.228-.136-.281-.2-.21-.212-.392-.254-.47-.239-.9-.521a3.5,3.5,0,0,0,.7.541c.058.031.015-.06.154.038C878.448,478.008,878.765,478.251,878.72,478.131Zm2.236,1.2c.1-.013-.6-.48-.729-.5C880.452,478.988,880.666,479.143,880.956,479.33Zm23.675,35.352c.066.566.2.559.1-.007Zm-.891-3.91c-.078,0,.039.444.147.872C903.994,511.717,903.852,511.209,903.74,510.772Zm1.365-2.034c.01.2-.165-.029-.03.469.06.12.114.186.158.13C905.155,509.057,905.176,509.005,905.1,508.738Zm-1.2-3.8c-.062-.033.024.206.034.3-.091-.079-.226-.262-.013.316.035,0,.028-.079.019-.16.11.315.185.454.227.416A5.021,5.021,0,0,1,903.9,504.939Zm-2.329.124c.16.378.423,1.313.5,1.236.026-.137-.13-.2-.225-.549.023-.022.041-.055-.053-.289C901.787,505.7,901.606,504.993,901.571,505.063Zm1.67-1.375c.136.353.381.9.379.69a8.9,8.9,0,0,1-.594-1.423C902.912,502.844,903.144,503.435,903.241,503.688Zm-.806-1.666c.146.193.389.672.463.651C902.632,502.024,902.184,501.41,902.435,502.022Zm-6.065-7.194c-.181-.3-.048-.286-.34-.65C895.934,494.132,896.272,494.73,896.37,494.828Zm-6.5-8.954.075-.061-.332-.3C889.53,485.522,889.57,485.613,889.867,485.874Zm-15.5-10.529a6.5,6.5,0,0,0,1.1.48A11.839,11.839,0,0,0,874.37,475.345Zm-1.688-.941c.331.15.265.166.795.4A1.526,1.526,0,0,0,872.682,474.4Zm-1.419-.166c.089-.073-.8-.315-.978-.361A6.1,6.1,0,0,0,871.263,474.238Zm-5.148-1.919c.4.085.262.119.408.18a8.521,8.521,0,0,0,1.32.294,2.876,2.876,0,0,0,.414.157,26.09,26.09,0,0,1,2.673.96c-.112-.088.809.283.3.061-.262-.1-.321-.09-.571-.186a3.416,3.416,0,0,0-.8-.4c-.251-.1-.366-.108-.713-.237a10.93,10.93,0,0,0-1.113-.431c-.187-.049-.209-.023-.444-.091A5.648,5.648,0,0,0,866.115,472.319Zm-17.934-1.586c.352-.007.7.033,1.041.022.4-.012.462-.063.749-.083.148-.011.111.017.147.017a.248.248,0,0,0,.151-.031,5.35,5.35,0,0,0,1.351-.161c-.55,0-1.414.106-2.244.155A4.5,4.5,0,0,0,848.181,470.733Zm-19.544,6.441a4.687,4.687,0,0,0,.795-.38C829.525,476.653,828.538,477.16,828.637,477.174Zm2.333-1.3c-.52.195-.492.357-.228.242C830.619,476.091,831.19,475.867,830.97,475.872Zm-.7.2a5.7,5.7,0,0,0,.688-.249C831.633,475.432,830.469,475.848,830.267,476.075Zm17.612-5.232c.041-.072-.335-.057-.3-.13.117-.011.3-.014.3-.038C847.076,470.722,846.96,470.883,847.879,470.843Zm-8.523.256a6.593,6.593,0,0,0,1.179-.323A6.222,6.222,0,0,0,839.356,471.1Zm-3.954,1.143a3.619,3.619,0,0,1,1.017-.3c.005-.063.263-.144-.022-.118C836.153,471.915,835.343,472.181,835.4,472.242Zm-7.979,3.411c.187-.053.686-.287.679-.351C827.915,475.355,827.416,475.589,827.423,475.653Zm1.128.87a8.04,8.04,0,0,0,1.065-.535c-.1.152.514-.22.544-.234.284-.13.367-.1.692-.251-.132-.054.716-.393.768-.5.242-.1.692-.283.569-.166-.438.164-.585.159-.682.3.223-.091.448-.15.7-.253s1.116-.586,1.244-.5c-.078.028-.154.077.006.024.158-.131.842-.194.971-.378-.093,0-.538.191-.57.155a10.61,10.61,0,0,0,1.532-.581,1.592,1.592,0,0,1,.295-.03c.122-.033.891-.339.979-.35.022,0-.012.051.008.047.281-.066.574-.194.86-.243.027.022-.013.074.156.035.3-.129-.031-.073-.165-.082.594-.176.14-.135.846-.339a4.111,4.111,0,0,0,.584-.1,2.955,2.955,0,0,1,.571-.194l1.394-.377.745-.184.761-.1a1.684,1.684,0,0,1,.585-.161l3.981-.64c.112-.2-1.1.114-1.624.191l-2.514.327c.01.04-.11.079-.29.117l-.861.113c-.257.055-.489.127-.719.19l-1.471.426c-.1-.029.4-.18-.155-.035-.163.087-.547.193-.709.279-1.058.269-2.085.526-2.591.687a10.064,10.064,0,0,1-1.543.56c.2.053-.7.311-.958.449.029-.062.367-.183.4-.246-.468.216-.675.241-1.263.458-.2.173.608-.211.579-.133a8.444,8.444,0,0,1-1.254.48c-.008.034-.026.07-.267.148.252-.171-.061-.011-.411.164a6.49,6.49,0,0,0-1.194.624c-.024-.035.006-.085.1-.156a2.435,2.435,0,0,0-.649.39,19.99,19.99,0,0,1-1.906.832c.008-.036.219-.165-.027-.067-.189.122-.176.185-.359.305a1.893,1.893,0,0,0-.779.435,5.028,5.028,0,0,1,1.2-.583c-.208.137-.611.3-.908.519a4.107,4.107,0,0,1-.646.362c-.281.264.313-.067.972-.458A11.626,11.626,0,0,0,828.551,476.523Zm-5.986,3.6c.044-.136-.459.234-.619.4C821.9,480.655,822.405,480.286,822.565,480.119Zm-3.3,3.08a11.56,11.56,0,0,1,.957-.681,1.682,1.682,0,0,0-.641.357c.072-.052.141-.1.13-.068A2.586,2.586,0,0,0,819.266,483.2Zm-.919.463a4.438,4.438,0,0,0,.657-.6A2.2,2.2,0,0,0,818.347,483.662Zm-.4.2c.039.1.317-.2.575-.456C818.592,483.234,818.163,483.681,817.95,483.859Zm-1.115-.837a3.988,3.988,0,0,0,.749-.772A4.181,4.181,0,0,0,816.835,483.022Zm-.308.085c.009-.109-.286.155-.607.451C815.912,483.666,816.206,483.4,816.527,483.107Zm-1.494,1.544c.282-.25.549-.49.535-.548C815.377,484.224,814.9,484.656,815.033,484.651Zm-.47,2.065c.4-.385.142-.271.492-.565a6.843,6.843,0,0,0,1.214-1.1,12.091,12.091,0,0,1-1.008.878c.036-.017.337-.331.1-.119a6.062,6.062,0,0,1-.536.517C814.628,486.54,814.478,486.723,814.563,486.716Zm-.952-.7a5.531,5.531,0,0,1,.536-.531c-.017-.041-.071-.036-.172.026A1.8,1.8,0,0,0,813.611,486.016Zm-2.105,4.151c.464-.592.849-.836.985-1.113-.321.318-.394.258-.784.68-.092.153-.074.171.066.069A1.241,1.241,0,0,0,811.506,490.167Zm-1.016,1.065c.241-.308.27-.414.2-.425C810.449,491.129,810.3,491.418,810.49,491.232Zm-4.585,6.773c.065-.1.106-.136.116-.1.24-.344.5-.9.544-.889.019.064-.339.566-.252.551a5.968,5.968,0,0,0,.524-.9c-.175.145-.05-.1-.193.039C806.384,497.2,806.1,497.67,805.905,498.005Zm-3.5,8.219c.092-.265.138-.3.227-.546-.1.085.017-.224-.056-.193A2.605,2.605,0,0,0,802.4,506.224Zm-.718,1.952a5.574,5.574,0,0,0,.35-.817c-.028-.019-.072.044-.117.109.109-.51.364-.829.412-1.115a12.124,12.124,0,0,0-.53,1.225c.024.039.1-.012.037.179a3.081,3.081,0,0,0-.234.544C801.426,509.252,801.535,508.646,801.685,508.176Zm-3.77,19.3a7.6,7.6,0,0,0-.082-1.223c0,.184-.023.092-.049,0C797.848,526.777,797.754,527.267,797.915,527.479Zm.063.308a.58.58,0,0,0-.015-.3,4.957,4.957,0,0,0-.059.76C797.987,528.378,797.934,527.847,797.978,527.787Zm.095,2.133a3.7,3.7,0,0,0-.132-.915A2.645,2.645,0,0,0,798.073,529.92Zm1.272,2.832a8.83,8.83,0,0,0-.228-1.04A2.839,2.839,0,0,0,799.345,532.752Zm-.7.8a2.422,2.422,0,0,0-.185-.905A2.3,2.3,0,0,0,798.64,533.549Zm3.439,9.831a7.365,7.365,0,0,0-.333-.846c-.037.03-.045.112.009.307C801.789,542.629,801.976,543.226,802.079,543.38Zm.263.864a1.376,1.376,0,0,0-.184-.574c.028.392-.144-.357-.253-.557C801.785,543.2,802.235,544.108,802.342,544.244Zm2.34,5.892c-.1-.175-.435-.965-.508-.939C804.4,549.54,804.462,549.917,804.682,550.136Zm3.079,4.9a1.318,1.318,0,0,1-.315-.344c-.111-.023.026.2.166.424.026-.036.14.095.315.344C808.037,555.483,807.9,555.262,807.761,555.037Zm.712,1.16a1.613,1.613,0,0,0-.146-.439C808.3,555.826,808.042,555.674,808.473,556.2Zm.42-.241a12.711,12.711,0,0,0-1.169-1.412c.125.226.12.136.293.354C808.306,555.262,808.832,556.05,808.893,555.956Zm3.072,4.109c.214.2.495.5.587.507-.3-.307-.236-.312-.489-.577Zm-.629-.481a5.838,5.838,0,0,0-.53-.552c-.127-.059-.022.216.124.28C810.715,559.035,811.208,559.479,811.336,559.584Zm1.576,1.851c-.273-.272-.843-1-.857-.877C812.327,560.831,812.9,561.561,812.912,561.435Zm.019-.015a11.855,11.855,0,0,0-1.187-1.384c-.048.014-.351-.365-.366-.3C812.076,560.5,812.258,560.616,812.931,561.42ZM836.654,473.2a2.371,2.371,0,0,1,.848-.314,1.247,1.247,0,0,1-.424.157c-.023.027.06.008.148-.013A3.168,3.168,0,0,1,836.654,473.2Zm43.233,95.861c-.039.117-.464.321-.75.481A3.386,3.386,0,0,1,879.887,569.058Zm-78.747-58.4a14.081,14.081,0,0,1-.5,2.018c-.1-.009.058-.221.113-.431A14.868,14.868,0,0,1,801.14,510.654Zm-1.222,20.737c.094.445.173,1.044.31,1.907C800.115,532.768,799.961,531.888,799.918,531.391Zm68.4,44.355a8.462,8.462,0,0,1-1.9.534,4.736,4.736,0,0,1-1.182.251C866.277,576.316,867.543,575.959,868.316,575.746ZM883.978,567c-.217.157-.239.214-.468.378a.475.475,0,0,1-.335.009C883.56,567.135,883.886,566.948,883.978,567Zm-12.787,7.8c-.325.177-1.279.473-1.852.7C869.744,575.285,870.654,575,871.191,574.8Zm-13.118,2.975,2.547-.381a23.814,23.814,0,0,1-4.666.52C855.652,577.885,857.442,577.835,858.073,577.777Zm26.686-11.211-1.2.894C883.778,567.276,884.643,566.521,884.759,566.566Zm3.2-2.714a3.3,3.3,0,0,1-.653.622A3.22,3.22,0,0,1,887.963,563.852Zm-1.773,1.62a9.13,9.13,0,0,1-1.215.874,8.191,8.191,0,0,1,.936-.755C885.928,565.629,886.034,565.576,886.19,565.472Zm-12.283,6.865c-.565.236-.505.3-.925.488-.379-.017-.9.341-1.262.432.069-.045.135-.09.121-.12a7.807,7.807,0,0,1,.981-.331C873.128,572.681,873.883,572.2,873.907,572.337ZM861.9,472.351c-.958-.118-1.909-.28-3.048-.474.79.083,1.75.223,2.771.382C861.873,472.289,861.892,472.32,861.9,472.351ZM806.735,493.7a7.35,7.35,0,0,1,.608-.882,2.847,2.847,0,0,1-.3.491C806.9,493.547,806.756,493.764,806.735,493.7Zm80.487-12.123a3.848,3.848,0,0,1,.737.566c.173.159.618.59.513.567C888,482.243,887.839,482.137,887.222,481.581Zm-75.9,6.188c.25-.212.731-.772,1.152-1.225s.955-1.1,1.065-1.092A25.725,25.725,0,0,1,811.325,487.769Zm32.956-17.817c-.517-.007,1.136-.2,1.36-.276a2.006,2.006,0,0,0,.454-.043C845.88,469.767,844.495,469.879,844.281,469.952Zm-25.968,11.474c.314-.23.632-.465.65-.394C818.616,481.3,818.3,481.532,818.313,481.426Zm-7.564,7.294c-.092,0,.574-.6.482-.6.127-.049.788-.9.77-.735C811.562,487.863,811.254,488.143,810.749,488.72Zm-2.987,3.862c.41-.567.553-.638.879-1.049C808.626,491.558,807.739,492.794,807.762,492.582Zm3.362-4.13c.339-.37.72-.8.767-.733C811.693,487.876,811.152,488.551,811.124,488.452Zm1.383-1.407c.023-.147-.438.433-.387.245.343-.375.4-.324.767-.731C812.889,486.618,812.746,486.794,812.507,487.045Zm56.379-12.969c-.281-.021-1.064-.354-1.556-.449l-3.553-.925c-.582-.183-1.392-.218-1.573-.352l.875.164.889.221,1.816.44,1.477.391.8.215Zm-12.515-2.443c-.278-.007-1.091-.028-1.467-.078A7.074,7.074,0,0,1,856.371,471.633Zm-8.512-.02c-.222.055-.648.048-1.027.116C846.714,471.633,847.524,471.637,847.859,471.613Zm6.755-.1a10.074,10.074,0,0,1-1.911-.079C853.057,471.4,854.021,471.5,854.614,471.516Zm24.312,7.079a10.3,10.3,0,0,1-1.269-.749C877.862,477.908,878.536,478.374,878.926,478.6Zm9.469,6.974c-.175-.053-.4-.343-.671-.581l-1.6-1.429c-.569-.5-1.205-.907-1.69-1.287.262.03.788.537,1.093.762C886.367,483.677,887.138,484.447,888.4,485.569Zm-17.717-10.831a5.972,5.972,0,0,1-1.516-.56C869.553,474.355,869.993,474.469,870.678,474.738Zm6.74,2.939a2.5,2.5,0,0,1-.808-.364A5.509,5.509,0,0,1,877.418,477.677Zm-76.775,28.534c.058-.317.432-1.2.615-1.736C801.2,504.794,800.825,505.673,800.643,506.211ZM832.487,574.6c-.21-.036-.653-.2-.893-.254a.883.883,0,0,0,.263.148c-.268-.005-.187-.128-.561-.233A5.962,5.962,0,0,1,832.487,574.6Zm3.413,1.31c-.169.068-.708-.217-1.156-.4A10.871,10.871,0,0,1,835.9,575.914Zm-4.866-1.494c-.411-.2-.842-.4-.791-.463C830.315,574.053,831.208,574.4,831.034,574.42Zm3.34,1.162a43.911,43.911,0,0,0-1.714-.659A12.452,12.452,0,0,1,834.374,575.582Zm-3.1-1.275c-.155.015-.453-.2-.706-.3-.09-.037-.131-.012-.162-.025-.224-.1-.228-.144-.4-.221a4.486,4.486,0,0,1-.864-.339c-.1-.129.33.113.576.226-.03-.1.375.072-.075-.17.212.009.274.158.4.221.189.093.06-.016.162.025.218.086.535.321.95.486C831.117,574.226,831.163,574.262,831.273,574.307ZM823.7,570.34c-.645-.4-.83-.414-1.595-.921.1-.007-.164-.138-.352-.287a6.858,6.858,0,0,1,1.571.95c.024-.056-.2-.208.077-.094-.29-.167-.809-.479-1.263-.775a2.921,2.921,0,0,1-.82-.738,10.639,10.639,0,0,0,1.2.918c.153.1.492.22.177.024.874.444,2.258,1.414,3,1.8a9.325,9.325,0,0,1-1.226-.637c-.129-.016.419.372.491.357.447.344-.525-.262-.811-.439-.215-.182.1-.021.205-.016-.533-.306-.728-.472-1.154-.734-.166.008.384.3.474.375.033.027-.22-.091-.16-.042.085.069.49.293.345.3C823.731,570.3,823.739,570.343,823.7,570.34Zm7.4,4.285L829.5,574c-.374-.157-.169-.128-.555-.269s-.877-.355-1.475-.626a16.753,16.753,0,0,1-2.027-1.022c-.11-.1-.426-.3-.485-.38.021-.115.791.407.494.1a9.828,9.828,0,0,0,1.08.59,9.456,9.456,0,0,0-1.285-.828c.009-.045.19.057.188,0A13.274,13.274,0,0,0,828,572.949c.037.075-.222-.057-.44-.161a2.055,2.055,0,0,0-.62-.168,1.647,1.647,0,0,0,.718.3c1.092.537,2.018,1.067,2.9,1.408A2.132,2.132,0,0,0,831.094,574.625Zm-2.661-1.225a3.161,3.161,0,0,0-.388-.242c-.144.037.489.314.93.532C829.92,574.14,828.836,573.58,828.433,573.4Zm-3.591-2.3c.049,0,.27.145.29.12a5.9,5.9,0,0,0-.767-.5c-.011.021.148.113.246.179.022.1-.423-.133.2.236a3.38,3.38,0,0,1-.8-.46c-.1-.064.3.145.277.141.062.012-.751-.448-.915-.559-.028-.077.215.078.421.2a10.889,10.889,0,0,1,1.913,1c-.081-.026-.159-.051-.173-.021a3.186,3.186,0,0,1,.838.4c-.074.03-.014.119.354.284-.229.073-.882-.387-1.393-.665.027-.06.245.093.056-.078A2.127,2.127,0,0,1,824.842,571.1ZM836.4,575.9c-.05.034-.435-.129-.452-.1l-1.143-.422a4.486,4.486,0,0,1-1.111-.486c.348.118.291.154.7.285l.032-.065a13.053,13.053,0,0,0-1.557-.6c-.118-.141.459.13.734.22l.733.22c.723.245,1.484.557,2,.707.336.15-.236-.019-.192.062a7.511,7.511,0,0,0-1.689-.673,2.423,2.423,0,0,0,.8.424c.111-.026-.022-.1-.4-.223C835.438,575.384,835.845,575.72,836.4,575.9Zm-14.682-6.734c-.554-.284-.59-.5-1.329-1.028.514.425.189.247-.31-.112.146-.033-.452-.383-.65-.64.1.05.566.331.05-.053a5.11,5.11,0,0,1,.991.716c-.12-.02-.651-.467-.569-.278.119.089.114.05.155.057l.854.642c.2.144-.122-.235.43.2C821.537,568.913,820.742,568.444,821.72,569.168Zm19.03,8.088c.523.133.338.181.885.23C841.688,577.617,840.643,577.295,840.75,577.256Zm64.642-47.516c.036-.356.083-1.336.115-1.937A13.124,13.124,0,0,1,905.392,529.74Zm-64.478,47.509a2.574,2.574,0,0,0-.78-.078,4.346,4.346,0,0,1-1.158-.375,9.679,9.679,0,0,0,1.331.346c0-.024-.176-.065-.288-.1A3.127,3.127,0,0,1,840.914,577.249Zm65.831-49.675a1.508,1.508,0,0,1,.015.619c.065.026.062-.245.095.018a10.714,10.714,0,0,1-.1,1.838c-.128.979-.263,2.01-.4,3.045-.035.233-.088.409-.095.448a39.863,39.863,0,0,1-.925,4.512l-.254.882c-.041.167-.064.432-.111.613l-.22.731c-.357.995-.785,2.257-1.2,3.321-.017-.15-.131.175-.161.089-.185.59.059-.017.107.055l-.729,2.032a1.874,1.874,0,0,1-.288.541,5.169,5.169,0,0,1-.469.968c.212-.084-.157.422-.254.743a2.823,2.823,0,0,1,.371-.49c.078-.249-.106.014.012-.354.2-.443.274-.466.49-.956l.083.049c.232-.461-.072-.144.21-.766.046,0-.038.195.016.187.293-.525.218-.784.441-1.153a10.462,10.462,0,0,1,.5-1.631,6.89,6.89,0,0,1-.255.9c.081-.126.185-.361.278-.544.115-.317-.1.116-.1.122a3.08,3.08,0,0,1,.139-.444,1.628,1.628,0,0,1,.223-.742c.113-.12-.091.326-.117.453s.095,0-.02.333a10.11,10.11,0,0,0,.577-1.426c-.1-.05-.23.574-.332.693-.158.134.119-.51.105-.63.2-.476.067-.053.162-.094a3.915,3.915,0,0,0,.46-.973c.078.035-.054.6-.2.755-.125.4.183-.367.162-.094a6.683,6.683,0,0,1-.374,1.018c-.051.138-.094.328-.193.592l-.849,2.156c-.114.3-.114.409-.2.588l-1.573,3.192c-.2.422-.365.711-.562,1.1-.618,1.144-1.379,2.247-2.067,3.377-.358.558-.694,1.126-1.067,1.661l-1.193,1.518c-.157.2-.268.293-.406.46-.339.408-.636.844-1.02,1.355l-.765.965c-.318.366-.318.253-.568.516-.481.6-1.113,1.175-1.645,1.836-.181.208-.067-.065.161-.282-.435.351-.907,1.041-.785.963-.2.2-.415.435-.609.611a1.189,1.189,0,0,1-.437.278c-.469.573-1.513,1.263-1.908,1.79a1.432,1.432,0,0,1-.37.27c-.082.069-.172.194-.328.328-.257.214-.6.517-.986.818l-1.2.857a3.68,3.68,0,0,0-.591.5c-.146.1-.126.039-.16.03-.662.522-1.2.924-1.723,1.279-.119.089-.081.1-.1.134a5.7,5.7,0,0,1-1.047.629c-.3.164-.167.154-.372.281-.311.155-.9.494-1.466.829l-1.171.735-.77.519c-1,.517-2.04.99-2.9,1.4a15.547,15.547,0,0,1-2.227,1.033c-.241.1-.309.161-.563.257-.23.086-.264.066-.44.134l-1.143.466c-.816.3-1.6.539-2.46.866a3.222,3.222,0,0,1-.437.153l-.749.166c-.19.05-.415.152-.587.2l-.45.09-.592.175-1.766.437-.859.214-.817.135c-.248.044-.264.012-.458.044a98.675,98.675,0,0,1-4.712.7c.017-.047.507-.042.461-.095a1.8,1.8,0,0,0-.615.1c-.289-.028-1.012.032-1.533.05-.353.01-.174.078-.464.1a33.714,33.714,0,0,1-4.3.063h-.928c-.966-.037-1.947-.127-2.912-.181a5.8,5.8,0,0,1-.921-.08c-.28-.047-.441-.108-.749-.164-.276-.05-.473-.048-.766-.094-1.119-.187-2.434-.383-3.624-.639a9.133,9.133,0,0,1,1.064.167c.289.036,1.011.044,1.062.166.533.1.4-.025.929.071-.017.039.1.078.284.117-.061-.063.545-.022.917.118.182-.062-.559-.125-.426-.187,1.029.126,1.448.255,2.28.288.152-.081-.658-.081-.427-.171,1.054.117,1.8.008,2.586.167.319,0,.33-.02.165-.063.352-.015.563.091.609.032.359.026-.184.054-.167.087,1.079-.02,1.754.055,2.9.057,0-.023-.185-.01-.3-.01.545-.025,1.952-.148,2.744-.129.539-.013.379-.1.918-.116a6.449,6.449,0,0,0,.912,0c.26,0,.288-.033.306-.063a1.953,1.953,0,0,0,.91-.108c-.11-.018-.848.083-1.213.075.044-.065-.052-.1-.453-.074-.123.01-.152.031-.3.038.1.02.348.008.3.058-1.885.052-3.237.159-4.564.175-1.327-.063-2.629-.125-4.4-.244-.177-.041-.052-.04.014-.071a15.439,15.439,0,0,1-2.563-.306c-.165-.019-.114.031-.313,0-.41-.078-.835-.155-.719-.233-.4-.034-.472-.053-.326.046a1.7,1.7,0,0,0-.437-.116,4.56,4.56,0,0,1,.938,0,10.879,10.879,0,0,0,1.342.233c.212.119-.513-.065-.467,0,.287.1,1.182.189.766.046.582.109.881.1,1.2.155.061.048-.227.048-.462.008a1.729,1.729,0,0,0,.916.016c.761.066,1.635.116,2.573.138.426.035.635.092,1.05.128.166,0,.109-.042.31-.032a14.816,14.816,0,0,0,2.291-.026c.777-.04,1.521-.073,2.1-.073.152.073-.473.06-.761.084a4.527,4.527,0,0,0,1.368-.137l1.351-.036,1.241-.171,2.527-.394c.115.029.449-.05.154.05a2.065,2.065,0,0,0,.6-.139l.918-.117.915-.22,1.724-.445,1.763-.474a9.156,9.156,0,0,0,1.173-.313l.71-.282c.221-.08.342-.076.582-.16.2-.069,1.355-.52,1.7-.669.146-.063.091-.082.274-.151a8.207,8.207,0,0,0,1.006-.34,2.25,2.25,0,0,0,.829-.383c.432-.211.477-.158.974-.412a2.012,2.012,0,0,0-.419.173c.116-.16.506-.268.815-.416l2.524-1.222c.851-.429,1.687-1,2.7-1.567.6-.379,1.764-1,2.572-1.613.219-.163.271-.166.5-.341a8.663,8.663,0,0,1,1.355-.977,11.881,11.881,0,0,1,1.439-1.13,2.208,2.208,0,0,1-.353.293c-.016.065.707-.473.475-.383a3.818,3.818,0,0,0,.956-.742c-.016-.018-.148.108-.239.183.422-.456,1.385-1.262,2.017-1.854a12.382,12.382,0,0,0,1.733-1.472c-.082.045-.555.53-.493.35.651-.584.652-.782,1.325-1.472.389-.411.822-.826,1.263-1.311a2.054,2.054,0,0,1-.292.355c.266-.2.684-.749.362-.5.229-.26.389-.417.443-.413.6-.676,1.478-1.854,2.14-2.768-.257.463.465-.456.584-.7-.122.017-.415.659-.4.453l1.379-1.832c.413-.63.767-1.233,1.032-1.668.008.06.107-.1.136-.086l.181-.433c.341-.559.7-1.14,1.031-1.687l.432-.722.387-.776.8-1.6.378-.834a38.029,38.029,0,0,0,1.942-4.788l.43-1.3c.316-.935.515-1.85.77-2.781.271-1.178.614-2.309.778-3.411.041-.269.074-.308.117-.593l.07-.608a5.935,5.935,0,0,0,.164-1.207,25.806,25.806,0,0,0,.456-3.917c.044-.011.04.2.087.17l-.066,1.215c-.03.328.08.087.106.178.039-.334-.029-.227-.018-.467.015-.384.045-.131.064-.294a2.474,2.474,0,0,0,0-.461A4.123,4.123,0,0,0,906.745,527.574Zm-51.861,50.562a3.546,3.546,0,0,0-.909.019A3.594,3.594,0,0,0,854.884,578.136Zm-6.44.267c-.284-.042-.715-.069-1.059-.105-.106.082.782.185.892.168C847.838,578.429,848.519,578.442,848.444,578.4Zm1.485.344a4.148,4.148,0,0,0-1.218-.113A9.314,9.314,0,0,0,849.929,578.747Zm5.223-.071a5.919,5.919,0,0,0-1.382.089C854.3,578.7,854.692,578.759,855.152,578.676Zm3.821-.815a3.781,3.781,0,0,0-1.054.2C858.048,578,858.879,577.93,858.973,577.861Zm10.181-1.759c-.384.128-.746.217-1.021.334A2.51,2.51,0,0,0,869.154,576.1Zm4.312-1.616c-.058-.039-.382.167-.419.2a8.969,8.969,0,0,0,1.273-.53C874.421,574,873.775,574.411,873.466,574.486Zm15.464-10.053a2.183,2.183,0,0,0-.526.572C888.692,564.742,888.985,564.474,888.93,564.433Zm.438-.687a12.636,12.636,0,0,0-1.454,1.346c.45-.367.179-.147.324-.325C888.55,564.384,889.417,563.916,889.368,563.746Zm2.362-2.371c-.224.181-.636.685-.569.729A3.438,3.438,0,0,0,891.73,561.375Zm.237-.188c.3-.333.351-.3.648-.637C892.692,560.346,892.029,561.044,891.967,561.187Zm4.6-4.633-.369.491C896.135,557.319,896.74,556.468,896.571,556.554Zm1.367-1.86c-.466.673-.375.3-.81.919.067.041.375-.37.551-.534.173-.1-.285.41-.112.31A1.909,1.909,0,0,0,897.938,554.694Zm2.766-4.055a5.561,5.561,0,0,0,.308-.535C901.007,549.951,900.571,550.692,900.7,550.639Zm.243-.95c-.185.4-.357.693-.4.838a.933.933,0,0,1,.2-.235C900.938,549.949,900.986,549.737,900.947,549.689Zm3.382-7.233a5.53,5.53,0,0,0,.451-.808c.009-.27-.219.382-.3.539-.023.044-.022-.055-.043-.021l-.128.278c-.087.181-.151.381-.236.569C904.083,543.191,904.23,542.71,904.329,542.456Zm-.31,1.047-.268.725C903.734,544.485,904.167,543.314,904.019,543.5Zm-.632,1.223c.154-.065.293-.743.461-.968-.066.019.13-.43.1-.466C903.712,543.826,903.657,544.1,903.387,544.726Zm-.289,1.245a2.692,2.692,0,0,0,.277-.729c.051-.152.361-.739.247-.736a8.261,8.261,0,0,0-.323.834C903.17,545.67,903.046,545.961,903.1,545.971Zm-1.12,2.2c.153-.346.33-.727.256-.747C902.081,547.771,901.905,548.151,901.978,548.172Zm4.141-15.145c-.054.05-.108.026-.163.425.007.279.015.36.116.192A4.693,4.693,0,0,0,906.119,533.027Zm.188-2.145a.9.9,0,0,1-.093.289c.025-.16.048-.384,0-.156a10.353,10.353,0,0,1-.163,1.051c.092.078.149-.531.187-.89C906.268,531.231,906.331,530.99,906.307,530.882Zm-67.541,45.611c-.715-.182-.841-.163-1.508-.294-.391-.141-.684-.272-.974-.4a12.02,12.02,0,0,1,1.672.287,5.036,5.036,0,0,1-1.065-.179c-.069.048.173.127.56.221a4.907,4.907,0,0,1,2.085.468,4.115,4.115,0,0,0-.735-.191c.576.264,1.775.411,2.189.618l.031-.091c-.547-.161-.712-.154-1.183-.282-.252-.208,1.423.243,1.484.336.422.07.785.1,1.2.2a5.054,5.054,0,0,0-.629,0c-.281-.047-.079-.091-.426-.14-.214-.05-.075.054-.318-.008a1.893,1.893,0,0,0,.588.148,3.623,3.623,0,0,1-1.369-.2C839.873,576.86,839.31,576.631,838.766,576.493Zm.036.332-.444-.116c.382.041-.2-.1-.1-.151C838.72,576.676,838.739,576.748,838.8,576.825Zm2.562.516c.576.116.536.087.9.17C842.247,577.544,841.125,577.391,841.364,577.341Z" fill-rule="evenodd"/>
      </g>
      <g id="组_1817" data-name="组 1817">
        <g id="组_1816" data-name="组 1816">
          <path id="路径_1379" data-name="路径 1379" d="M815.992,521.171l-6.956-.563.1-1.2,5.744.464.153-1.89,1.213.1Z"/>
          <path id="路径_1380" data-name="路径 1380" d="M817.041,513.979a3.6,3.6,0,0,1-.608,1.312,3.281,3.281,0,0,1-1,.9,3.467,3.467,0,0,1-1.273.43,3.727,3.727,0,0,1-1.422-.086,3.62,3.62,0,0,1-1.276-.58,3.215,3.215,0,0,1-.878-.955,3.182,3.182,0,0,1-.418-1.248,3.941,3.941,0,0,1,.1-1.454l.05-.2a3.911,3.911,0,0,1,.6-1.341,3.226,3.226,0,0,1,.958-.9,3.12,3.12,0,0,1,1.221-.429,3.652,3.652,0,0,1,1.39.087,3.747,3.747,0,0,1,1.3.59,3.374,3.374,0,0,1,1.387,2.244,3.583,3.583,0,0,1-.076,1.438Zm-5.593-1.389a2.449,2.449,0,0,0-.058.934,2.214,2.214,0,0,0,.285.823,2.159,2.159,0,0,0,.586.643,2.4,2.4,0,0,0,.862.4,2.367,2.367,0,0,0,.919.053,2.1,2.1,0,0,0,1.431-.884,2.54,2.54,0,0,0,.387-.867l.05-.2a2.5,2.5,0,0,0,.062-.957,2.172,2.172,0,0,0-.279-.821,2.081,2.081,0,0,0-.578-.628,2.392,2.392,0,0,0-.828-.376,2.439,2.439,0,0,0-.936-.058,2.156,2.156,0,0,0-1.465.886,2.456,2.456,0,0,0-.388.858Z"/>
          <path id="路径_1381" data-name="路径 1381" d="M819.932,506.206a3.608,3.608,0,0,1-.89,1.138,3.3,3.3,0,0,1-1.181.645,3.45,3.45,0,0,1-1.339.129,3.755,3.755,0,0,1-1.364-.407,3.637,3.637,0,0,1-1.109-.857,3.142,3.142,0,0,1-.761-2.441,3.972,3.972,0,0,1,.433-1.392l.094-.183a3.9,3.9,0,0,1,.887-1.169,3.208,3.208,0,0,1,1.14-.663,3.155,3.155,0,0,1,1.287-.14,3.679,3.679,0,0,1,1.333.4,3.741,3.741,0,0,1,1.128.869,3.434,3.434,0,0,1,.673,1.166,3.345,3.345,0,0,1,.165,1.337,3.6,3.6,0,0,1-.4,1.382Zm-5.128-2.63a2.427,2.427,0,0,0-.268.9,2.181,2.181,0,0,0,.089.865,2.152,2.152,0,0,0,.424.761,2.411,2.411,0,0,0,.748.579,2.34,2.34,0,0,0,.881.261,2.082,2.082,0,0,0,1.6-.534,2.533,2.533,0,0,0,.574-.757l.094-.182a2.512,2.512,0,0,0,.279-.917,2.167,2.167,0,0,0-.085-.863,2.065,2.065,0,0,0-.419-.744,2.377,2.377,0,0,0-.72-.555,2.4,2.4,0,0,0-.9-.27,2.143,2.143,0,0,0-1.628.527,2.484,2.484,0,0,0-.573.748Z"/>
          <path id="路径_1382" data-name="路径 1382" d="M819.288,495.143a.734.734,0,0,1-.01-.422.94.94,0,0,1,.187-.347.475.475,0,0,1,.372-.176.644.644,0,0,1,.427.181l3.22,2.777-1.45-5.2a.747.747,0,0,1-.011-.418.928.928,0,0,1,.19-.35.473.473,0,0,1,.371-.176.651.651,0,0,1,.428.181l4.865,4.2-.8.921-3.57-3.082,1.475,4.867a.874.874,0,0,1,.033.466.813.813,0,0,1-.415.529.75.75,0,0,1-.289.082.787.787,0,0,1-.586-.2l-2.967-2.562,1.618,5.345-.947,1.1Z"/>
          <path id="路径_1383" data-name="路径 1383" d="M831.843,492.606l-2.759,2.094-4.22-5.56,2.716-2.061.736.97-1.746,1.325.979,1.29,1.5-1.142.732.962-1.5,1.142,1.038,1.369,1.789-1.358Z"/>
          <path id="路径_1384" data-name="路径 1384" d="M835.915,490.2l-3.006,1.72-3.466-6.059,2.96-1.693.6,1.057-1.9,1.089.806,1.4,1.639-.938.6,1.049-1.638.938.853,1.491,1.95-1.115Z"/>
          <path id="路径_1385" data-name="路径 1385" d="M842.934,487.535a3.607,3.607,0,0,1-1.444.156,3.259,3.259,0,0,1-1.28-.393,3.468,3.468,0,0,1-1.022-.872,3.769,3.769,0,0,1-.658-1.268,3.636,3.636,0,0,1-.162-1.4,3.154,3.154,0,0,1,.369-1.241,3.214,3.214,0,0,1,.855-1,3.934,3.934,0,0,1,1.3-.66l.976-.3.356,1.164-.976.3a2.416,2.416,0,0,0-.834.438,2.246,2.246,0,0,0-.562.673,2.19,2.19,0,0,0-.249.839,2.382,2.382,0,0,0,.1.928,2.339,2.339,0,0,0,.427.815,2.139,2.139,0,0,0,.661.541,2.108,2.108,0,0,0,.838.23,2.568,2.568,0,0,0,.946-.117l.975-.3.357,1.164Z"/>
          <path id="路径_1386" data-name="路径 1386" d="M845.037,487.033l-1.123-6.888,1.191-.195.927,5.688,1.872-.3.2,1.2Z"/>
          <path id="路径_1387" data-name="路径 1387" d="M854.728,479.325l.034,3.829a3.485,3.485,0,0,1-.681,2.343,2.465,2.465,0,0,1-1.966.831l-.233,0a2.454,2.454,0,0,1-1.98-.793,3.5,3.5,0,0,1-.714-2.334l-.033-3.829,1.217-.011.033,3.83a4.31,4.31,0,0,0,.089.921,1.494,1.494,0,0,0,.26.593.939.939,0,0,0,.45.318,2.069,2.069,0,0,0,.668.088l.232,0a2,2,0,0,0,.66-.1,1,1,0,0,0,.454-.326,1.394,1.394,0,0,0,.254-.6,4.378,4.378,0,0,0,.074-.918l-.035-3.829Z"/>
          <path id="路径_1388" data-name="路径 1388" d="M860.57,483.468a1.651,1.651,0,0,1,.411.383,1.62,1.62,0,0,1,.237.444,1.657,1.657,0,0,1,.089.47,2.245,2.245,0,0,1-.027.448,1.964,1.964,0,0,1-.3.766,1.745,1.745,0,0,1-.612.564,2.562,2.562,0,0,1-.931.291,4.212,4.212,0,0,1-1.248-.049l-2.064-.35,1.169-6.881,2.319.393a3.023,3.023,0,0,1,1.69.741,1.573,1.573,0,0,1,.381,1.445,2.1,2.1,0,0,1-.116.411,1.76,1.76,0,0,1-.211.391,1.422,1.422,0,0,1-.326.321A1.439,1.439,0,0,1,860.57,483.468Zm-2.277-2.52-.762,4.49,1.049.179a2.209,2.209,0,0,0,1.044-.031.682.682,0,0,0,.5-.568.783.783,0,0,0-.157-.69,1.034,1.034,0,0,0-.625-.323l-.83-.142.2-1.191.83.141a.9.9,0,0,0,.645-.089.8.8,0,0,0,.321-.581.676.676,0,0,0-.191-.66,2.038,2.038,0,0,0-.979-.356Z"/>
        </g>
      </g>
      <g id="组_1819" data-name="组 1819">
        <g id="组_1818" data-name="组 1818">
          <path id="路径_1389" data-name="路径 1389" d="M889.948,524.675l6.955.562-.1,1.2-5.743-.463-.153,1.89-1.213-.1Z"/>
          <path id="路径_1390" data-name="路径 1390" d="M888.9,531.866a3.607,3.607,0,0,1,.609-1.31,3.289,3.289,0,0,1,1-.9,3.478,3.478,0,0,1,1.274-.43,3.682,3.682,0,0,1,1.421.086,3.626,3.626,0,0,1,1.277.58,3.147,3.147,0,0,1,1.3,2.2,3.941,3.941,0,0,1-.1,1.454l-.05.2a3.929,3.929,0,0,1-.6,1.341,3.249,3.249,0,0,1-.958.9,3.181,3.181,0,0,1-1.222.43,3.891,3.891,0,0,1-2.686-.678,3.425,3.425,0,0,1-.923-.98,3.372,3.372,0,0,1-.466-1.264,3.619,3.619,0,0,1,.076-1.438Zm5.594,1.391a2.44,2.44,0,0,0,.057-.936,2.158,2.158,0,0,0-.872-1.467,2.434,2.434,0,0,0-.86-.393,2.35,2.35,0,0,0-.919-.053,2.151,2.151,0,0,0-.8.288,2.129,2.129,0,0,0-.628.6,2.543,2.543,0,0,0-.386.868l-.05.2a2.524,2.524,0,0,0-.063.957,2.15,2.15,0,0,0,.28.822,2.093,2.093,0,0,0,.578.628,2.393,2.393,0,0,0,.828.376,2.435,2.435,0,0,0,.936.057,2.184,2.184,0,0,0,.823-.288,2.131,2.131,0,0,0,.641-.6,2.477,2.477,0,0,0,.389-.857Z"/>
          <path id="路径_1391" data-name="路径 1391" d="M886.008,539.641a3.637,3.637,0,0,1,.89-1.139,3.317,3.317,0,0,1,1.181-.646,3.507,3.507,0,0,1,1.339-.128,3.728,3.728,0,0,1,1.365.408,3.6,3.6,0,0,1,1.108.856,3.132,3.132,0,0,1,.761,2.441,3.934,3.934,0,0,1-.434,1.392l-.092.183a3.934,3.934,0,0,1-.888,1.17,3.243,3.243,0,0,1-1.139.663,3.157,3.157,0,0,1-1.287.138,3.63,3.63,0,0,1-1.333-.4,3.747,3.747,0,0,1-1.128-.87,3.452,3.452,0,0,1-.674-1.166,3.361,3.361,0,0,1-.165-1.336,3.585,3.585,0,0,1,.4-1.383Zm5.127,2.629a2.4,2.4,0,0,0,.27-.9,2.228,2.228,0,0,0-.089-.865,2.166,2.166,0,0,0-.424-.761,2.39,2.39,0,0,0-.749-.58,2.351,2.351,0,0,0-.882-.261,2.137,2.137,0,0,0-.849.1,2.106,2.106,0,0,0-.746.436,2.537,2.537,0,0,0-.574.757l-.095.183a2.552,2.552,0,0,0-.28.918,2.207,2.207,0,0,0,.085.863,2.077,2.077,0,0,0,.42.743,2.357,2.357,0,0,0,.72.555,2.445,2.445,0,0,0,.9.27,2.135,2.135,0,0,0,1.627-.528,2.458,2.458,0,0,0,.575-.747Z"/>
          <path id="路径_1392" data-name="路径 1392" d="M886.652,550.7a.713.713,0,0,1,.008.421.9.9,0,0,1-.187.347.47.47,0,0,1-.37.176.653.653,0,0,1-.429-.18l-3.218-2.778,1.448,5.2a.757.757,0,0,1,.013.418.9.9,0,0,1-.191.35.472.472,0,0,1-.371.176.658.658,0,0,1-.43-.181l-4.863-4.2.8-.921,3.569,3.08-1.475-4.865a.872.872,0,0,1-.034-.468.82.82,0,0,1,.172-.336.782.782,0,0,1,.243-.191.725.725,0,0,1,.289-.082.814.814,0,0,1,.3.034.8.8,0,0,1,.285.164l2.967,2.561-1.618-5.344.948-1.1Z"/>
          <path id="路径_1393" data-name="路径 1393" d="M874.1,553.24l2.759-2.094,4.221,5.559-2.716,2.062-.735-.969,1.746-1.326-.979-1.29-1.505,1.141-.73-.962,1.5-1.141-1.038-1.368-1.79,1.357Z"/>
          <path id="路径_1394" data-name="路径 1394" d="M870.026,555.65l3.006-1.72,3.465,6.059-2.959,1.693-.605-1.057,1.9-1.088-.8-1.406-1.639.937-.6-1.048,1.639-.938-.853-1.491-1.95,1.115Z"/>
          <path id="路径_1395" data-name="路径 1395" d="M863.007,558.312a3.609,3.609,0,0,1,1.444-.158,3.316,3.316,0,0,1,1.28.394,3.483,3.483,0,0,1,1.022.872,3.785,3.785,0,0,1,.657,1.268,3.638,3.638,0,0,1,.163,1.4,3.145,3.145,0,0,1-.37,1.241,3.2,3.2,0,0,1-.854,1,3.968,3.968,0,0,1-1.3.66l-.975.3-.356-1.164.975-.3a2.4,2.4,0,0,0,.834-.437,2.259,2.259,0,0,0,.562-.673,2.2,2.2,0,0,0,.25-.839,2.381,2.381,0,0,0-.1-.928,2.341,2.341,0,0,0-.427-.814,2.082,2.082,0,0,0-1.5-.772,2.57,2.57,0,0,0-.946.117l-.977.3-.356-1.164Z"/>
          <path id="路径_1396" data-name="路径 1396" d="M860.9,558.813l1.124,6.888-1.192.2-.928-5.688-1.872.306-.2-1.2Z"/>
          <path id="路径_1397" data-name="路径 1397" d="M851.213,566.521l-.034-3.829a3.477,3.477,0,0,1,.682-2.341,2.46,2.46,0,0,1,1.966-.831l.232,0a2.45,2.45,0,0,1,1.981.793,3.5,3.5,0,0,1,.714,2.334l.034,3.829-1.217.011-.034-3.831a4.374,4.374,0,0,0-.089-.921,1.491,1.491,0,0,0-.261-.592.934.934,0,0,0-.449-.319,2.1,2.1,0,0,0-.668-.088l-.232,0a1.987,1.987,0,0,0-.662.105,1.018,1.018,0,0,0-.454.326,1.444,1.444,0,0,0-.254.6,4.535,4.535,0,0,0-.072.918l.033,3.829Z"/>
          <path id="路径_1398" data-name="路径 1398" d="M845.372,562.379a1.657,1.657,0,0,1-.412-.384,1.588,1.588,0,0,1-.237-.443,1.713,1.713,0,0,1-.089-.47,2.184,2.184,0,0,1,.027-.449,1.986,1.986,0,0,1,.3-.767,1.743,1.743,0,0,1,.613-.562,2.536,2.536,0,0,1,.931-.292,4.246,4.246,0,0,1,1.248.049l2.064.351-1.17,6.881-2.319-.4a3.013,3.013,0,0,1-1.69-.74,1.569,1.569,0,0,1-.38-1.445,2.118,2.118,0,0,1,.115-.411,1.76,1.76,0,0,1,.212-.391,1.376,1.376,0,0,1,.326-.32A1.437,1.437,0,0,1,845.372,562.379Zm2.277,2.519.762-4.491-1.049-.178a2.21,2.21,0,0,0-1.045.033.68.68,0,0,0-.5.567.787.787,0,0,0,.155.689,1.046,1.046,0,0,0,.627.325l.828.14-.2,1.191-.829-.141a.9.9,0,0,0-.646.09.8.8,0,0,0-.321.581.675.675,0,0,0,.192.659,2.046,2.046,0,0,0,.978.357Z"/>
        </g>
      </g>
      <circle id="椭圆_235" data-name="椭圆 235" cx="29.113" cy="29.113" r="29.113" transform="translate(823.287 494.821)" fill="#ffcbf8"/>
      <g id="组_1820" data-name="组 1820">
        <path id="路径_1399" data-name="路径 1399" d="M865.739,534.061a15.277,15.277,0,0,1-26.164.852" fill="#ffcbf8"/>
        <path id="路径_1400" data-name="路径 1400" d="M852.4,543.391a16.726,16.726,0,0,1-14.084-7.662,1.5,1.5,0,1,1,2.517-1.631,13.776,13.776,0,0,0,23.6-.769,1.5,1.5,0,0,1,2.619,1.465A16.8,16.8,0,0,1,852.4,543.391Z" fill="#1f2733"/>
      </g>
      <g id="组_1821" data-name="组 1821">
        <ellipse id="椭圆_236" data-name="椭圆 236" cx="3.729" cy="6.711" rx="3.729" ry="6.711" transform="translate(864.063 513.672)" fill="#fff"/>
        <ellipse id="椭圆_237" data-name="椭圆 237" cx="1.574" cy="2.834" rx="1.574" ry="2.834" transform="translate(866.217 517.55)" fill="#1f2733"/>
        <ellipse id="椭圆_238" data-name="椭圆 238" cx="3.729" cy="6.711" rx="3.729" ry="6.711" transform="translate(833.28 513.672)" fill="#fff"/>
        <ellipse id="椭圆_239" data-name="椭圆 239" cx="1.574" cy="2.834" rx="1.574" ry="2.834" transform="translate(835.434 517.55)" fill="#1f2733"/>
      </g>
      <circle id="椭圆_240" data-name="椭圆 240" cx="1.67" cy="1.67" r="1.67" transform="translate(882.228 497.267)"/>
      <circle id="椭圆_241" data-name="椭圆 241" cx="1.67" cy="1.67" r="1.67" transform="translate(819.111 548.094)"/>
    </g>
  </g>
</svg>
