<svg xmlns="http://www.w3.org/2000/svg" width="61.214" height="61.215" viewBox="0 0 61.214 61.215">
  <g id="组_2900" data-name="组 2900" transform="translate(-779.703 -977.731)">
    <path id="路径_10720" data-name="路径 10720" d="M836.817,993.035H833.1a7.491,7.491,0,0,1-7.491-7.49v-3.713l-3.216,1.856a7.49,7.49,0,0,1-10.232-2.741l-1.856-3.216-1.857,3.216a7.489,7.489,0,0,1-10.231,2.741l-3.216-1.856v3.713a7.489,7.489,0,0,1-7.49,7.49H783.8l1.857,3.215a7.491,7.491,0,0,1-2.742,10.232l-3.215,1.857,3.215,1.856a7.49,7.49,0,0,1,2.742,10.232l-1.856,3.215h3.712a7.49,7.49,0,0,1,7.49,7.49v3.713l3.216-1.856a7.49,7.49,0,0,1,10.232,2.741l1.856,3.216,1.856-3.216a7.49,7.49,0,0,1,10.232-2.741l3.215,1.856v-3.713a7.49,7.49,0,0,1,7.49-7.49h3.712l-1.856-3.215A7.489,7.489,0,0,1,837.7,1010.2l3.215-1.856-3.215-1.857a7.49,7.49,0,0,1-2.742-10.232Zm-8.849,15.3A17.658,17.658,0,1,1,810.31,990.68,17.658,17.658,0,0,1,827.968,1008.339Z" fill="#15d3a4"/>
    <circle id="椭圆_851" data-name="椭圆 851" cx="17.658" cy="17.658" r="17.658" transform="translate(790.635 992.959) rotate(-6.985)" fill="#fce937"/>
  </g>
</svg>
